<?xml version="1.0" encoding="UTF-8" standalone="no"?>
<svg
   xmlns:dc="http://purl.org/dc/elements/1.1/"
   xmlns:cc="http://creativecommons.org/ns#"
   xmlns:rdf="http://www.w3.org/1999/02/22-rdf-syntax-ns#"
   xmlns:svg="http://www.w3.org/2000/svg"
   xmlns="http://www.w3.org/2000/svg"
   xmlns:sodipodi="http://sodipodi.sourceforge.net/DTD/sodipodi-0.dtd"
   xmlns:inkscape="http://www.inkscape.org/namespaces/inkscape"
   id="Layer_1"
   viewBox="0 0 159.5 112.9"
   version="1.1"
   inkscape:version="0.91 r13725"
   sodipodi:docname="aegis.svg">
  <metadata
     id="metadata8477">
    <rdf:RDF>
      <cc:Work
         rdf:about="">
        <dc:format>image/svg+xml</dc:format>
        <dc:type
           rdf:resource="http://purl.org/dc/dcmitype/StillImage" />
        <dc:title>Aegis</dc:title>
      </cc:Work>
    </rdf:RDF>
  </metadata>
  <defs
     id="defs8475" />
  <sodipodi:namedview
     pagecolor="#ffffff"
     bordercolor="#666666"
     borderopacity="1"
     objecttolerance="10"
     gridtolerance="10"
     guidetolerance="10"
     inkscape:pageopacity="0"
     inkscape:pageshadow="2"
     inkscape:window-width="731"
     inkscape:window-height="480"
     id="namedview8473"
     showgrid="false"
     inkscape:zoom="1.7178683"
     inkscape:cx="79.75"
     inkscape:cy="56.450001"
     inkscape:window-x="240"
     inkscape:window-y="219"
     inkscape:window-maximized="0"
     inkscape:current-layer="Layer_1" />
  <title
     id="title8468">Aegis</title>
  <g
     id="Page-1">
    <g
       id="Aegis">
      <path
         id="AEGIS_Logo"
         class="st0"
         d="M118.1 64.6l4.8-5.4L85.4 0H72.6L35.1 59.1l4.8 5.4L68.3 24v20.2L48.6 64.6h25V17.8c0-8.2 5.5-7.8 5.5-7.8s5.5-.3 5.5 7.8v46.8h25L89.7 44.2V24l28.4 40.6zM79 40.2c-2.7 0-2.5 3.1-2.5 3.1v21.2h5V43.3s.2-3.1-2.5-3.1zM31.8 72.3H8l-3.9 3.8v23.8h7.8v-9.5h11l4.3-4.3v13.8h8.3V76l-3.7-3.7zm-4.4 11.8H12.1v-3.6l1.4-1.4H26l1.5 1.4-.1 3.6zm43-11.8H39.1v27.6h31.2v-6.4H47.7v-3.8h22.6v-6.6H47.7v-4h22.6l.1-6.8zm3.9 3.7l3.5-3.7h24.9l3.4 3.7v3.2H82.7v14.7h14.8c.1-1.4.1-2.7 0-4.1-.2.2-10.9 0-10.9 0v-6.5H106v14.2l-2.4 2.4H77l-2.6-2.6-.1-21.3zm43.9 23.9h-8.8V72.3h8.8v27.6zm3.3-23.9l3.7-3.7s30-.5 29.5 0-7.2 7.1-7.2 7.1h-18v3.7H153v14l-2.9 2.9h-28.6v-6.3h23.1v-4h-23.1V76zM0 106.6h6.8c.3-.1.7 0 1 .2.3.2.4.6.4.9v4c0 .4-.1.7-.4.9-.3.2-.6.3-1 .2H0v-5.6h1.4v4.4h5.2c.1 0 .1 0 .2-.1 0 0 .1-.1.1-.2V108c0-.1 0-.1-.1-.2 0 0-.1-.1-.2-.1H0v-1.1zm22.3 0h1.9l2.2 2.3 2.2-2.3h1.9l-3.4 3.5v2.8h-1.4v-2.8l-3.4-3.5zm30.4 0v5.1c0 .4-.1.7-.4.9-.3.2-.6.3-1 .2-.4 0-.9-.2-1.2-.5l-4.2-4.7v5.1h-1.4v-5.1c0-.4.1-.7.4-.9.3-.2.6-.3 1-.2.4 0 .9.2 1.2.5l4.2 4.6v-5.1h1.4v.1zm19.2.4l3.1 5.8h-1.7l-.6-1.2H69l-.6 1.2h-1.6l3.1-5.8c.3-.3.7-.5 1.1-.5.2.1.6.2.9.5zm-1.1 1l-1.3 2.6h2.6l-1.3-2.6zm23.6 4.8h-1.2l-3-5.1v5.1h-1.4v-5.1c0-.4.1-.7.4-.9.3-.2.6-.3 1-.2.5 0 .9.3 1.2.7l2.5 4.2 2.5-4.2c.2-.4.7-.7 1.2-.7.3-.1.7 0 1 .2.3.2.4.6.4.9v5.1h-1.4v-5.1l-3.2 5.1zm19.9-6.2v6.3h-1.4v-6.3h1.4zm22.5 0v1.2h-6.6c-.1 0-.1 0-.2.1s-.1.1-.1.2v3.5c0 .1 0 .1.1.2 0 0 .1.1.2.1h6.6v1.2H130c-.4.1-.7 0-1-.2-.3-.2-.4-.6-.4-.9v-4c0-.4.1-.7.4-.9.3-.2.6-.3 1-.2h6.8v-.3zm22.7 0v1.2h-6.6c-.1.1-.2.2-.2.3 0 .2.1.3.2.4l4.9 1.4c1.1.3 1.6.7 1.6 1.2v.7c0 .4-.1.7-.4.9-.3.2-.6.3-1 .2h-6.8v-1.2h6.6c.1-.1.2-.2.2-.3s-.1-.3-.2-.3l-4.9-1.4c-1.1-.3-1.6-.7-1.6-1.2v-.7c0-.4.1-.7.4-.9.3-.2.6-.3 1-.2h6.8v-.1z" />
    </g>
  </g>
</svg>
