<?xml version="1.0" encoding="UTF-8" standalone="no"?>
<svg
   xmlns:dc="http://purl.org/dc/elements/1.1/"
   xmlns:cc="http://creativecommons.org/ns#"
   xmlns:rdf="http://www.w3.org/1999/02/22-rdf-syntax-ns#"
   xmlns:svg="http://www.w3.org/2000/svg"
   xmlns="http://www.w3.org/2000/svg"
   xmlns:sodipodi="http://sodipodi.sourceforge.net/DTD/sodipodi-0.dtd"
   xmlns:inkscape="http://www.inkscape.org/namespaces/inkscape"
   version="1.1"
   x="0px"
   y="0px"
   viewBox="0 0 587.58746 947.67682"
   enable-background="new 0 0 587.58746 947.67682"
   xml:space="preserve"
   id="svg7727"
   inkscape:version="0.91 r13725"
   sodipodi:docname="anvil.svg"><metadata
     id="metadata7785"><rdf:RDF><cc:Work
         rdf:about=""><dc:format>image/svg+xml</dc:format><dc:type
           rdf:resource="http://purl.org/dc/dcmitype/StillImage" /><dc:title></dc:title></cc:Work></rdf:RDF></metadata><defs
     id="defs7783" /><sodipodi:namedview
     pagecolor="#ffffff"
     bordercolor="#666666"
     borderopacity="1"
     objecttolerance="10"
     gridtolerance="10"
     guidetolerance="10"
     inkscape:pageopacity="0"
     inkscape:pageshadow="2"
     inkscape:window-width="731"
     inkscape:window-height="480"
     id="namedview7781"
     showgrid="false"
     inkscape:zoom="0.24903004"
     inkscape:cx="293.79373"
     inkscape:cy="473.83841"
     inkscape:window-x="527"
     inkscape:window-y="251"
     inkscape:window-maximized="0"
     inkscape:current-layer="svg7727" /><g
     id="g7729"><path
       d="M229.73996,369.61014c0,17.27512,0,34.5502,0,52.57642c0,34.5502,0,69.1004,0,103.65067c0,4.50653,0,9.01306,0,13.51965  c0,2.25336-0.75108,9.01312,0,11.26642c2.2533,3.75543,14.27075,1.50214,18.02621,1.50214c9.01306,0,17.27512,0,26.28821,0  c4.50653,0,6.00876,0.7511,6.00876-4.50653c2.2533-36.8035,0-74.35809,0-111.91266c0-66.0961,0-132.19214,0-198.28824  c0-24.78603,0-50.32315,0-75.10918c0-7.51091,0-14.27075,0-21.78166c0-3.75546,0.75107-8.26199-0.7511-11.26637  c-5.2576,7.51091-8.26199,18.77728-12.01746,27.03929c-5.2576,12.76855-11.26636,25.53712-16.52399,37.55458  c-33.0481,78.11357-66.84723,155.47603-101.39746,232.83849c-14.27075,31.54584-27.7904,63.8428-42.06113,95.38864  c-3.75546,7.51093-6.75983,15.77289-10.51529,23.28381c0,0.7511-1.50219,2.2533-1.50219,3.00439  c0,4.50653,7.51092,3.00433,12.01746,3.00433c5.25764,0,10.51529,0,15.77291,0c5.25764,0,10.51529,0,15.77292,0  c6.00873,0,6.75983,0,9.76419-4.50653c0.75107-1.50214,0.75107-2.2533,1.50218-3.75543  c22.53275-51.82535,44.31442-103.6507,66.84717-155.47595c3.00438-6.75986,5.25763-16.52402,9.76422-22.53278  C230.49104,360.59705,229.73996,365.10358,229.73996,369.61014z"
       id="path7731" /><path
       d="M307.10242,535.60144c0,2.2533-1.50214,13.51965,0.7511,15.02185c0.75107,0.75104,6.00876,0,6.75983,0  c4.50653,0,9.01309,0,14.27075,0c8.26199,0,17.27515,0.75104,25.53714,0c5.2576-0.7511,3.75546-4.50653,3.75546-8.26202  c0-5.25763,0-10.51526,0-16.52399c0-19.52838,0-39.05673,0-58.58517c0-33.04803,0-66.0961,0-99.14407  c0-2.2533-0.7511-7.51093,1.50214-5.25763c2.25333,2.2533,3.00439,7.51093,4.50656,10.51529  c6.75983,15.77292,13.51965,30.79477,19.52835,46.56769c15.77292,36.8035,31.54584,72.85587,47.31882,109.65939  c2.2533,5.25757,6.00876,20.27942,12.01746,21.03058c7.51093,1.50214,17.27512,0,24.78604,0c3.75546,0,8.26199,0,12.01746,0  c3.00439,0,14.27075,1.50214,12.01746-3.00439c-7.51093-17.27515-15.02182-33.79913-22.53275-51.07425  c-33.04803-74.35809-65.34497-149.46729-98.39301-223.82535c-21.03058-48.06987-42.06113-96.13972-63.09171-144.20959  c-1.50217,0.75107-0.7511,5.25764-0.7511,7.51091c0,62.34061,0,124.6812,0,187.02184  C307.10242,395.14725,307.10242,465.74988,307.10242,535.60144z"
       id="path7733" /><path
       d="M124.58712,606.20404c2.25327-4.50653,5.25765-8.26202-0.75108-9.01312c-9.01311-1.50214-18.77729,0-27.03929,0  c-5.25764,0-10.51529,0-15.77291,0c-0.75108,0-1.50219,0-3.00438,0c-6.00873,0.7511-6.00873,3.75549-8.26199,9.01312  c3.75546,9.01306,9.0131,18.77728,15.02183,26.28821c3.75546,5.25763,8.262,10.51526,12.01746,16.52399  c0.75108,1.50214,4.50654,6.75983,5.25765,6.75983c1.50219,0,2.25327-3.75543,3.00438-4.50653  c4.50654-10.51532,8.26199-21.03058,12.76856-30.79474C120.83166,615.21716,122.33385,610.71063,124.58712,606.20404z"
       id="path7735" /><path
       d="M582.75305,455.98569C570.7356,380.12543,526.4212,315.53156,464.8317,270.466  c-16.52402-12.01746-33.79913-22.53273-51.82535-31.54584c-7.51093-3.75546-16.52399-5.25766-19.52838-12.76857  c-3.75546-8.26199-7.51089-17.2751-11.26636-26.28821c-16.52402-36.80351-32.29697-74.35806-48.06989-111.16157  c-7.51093-18.02621-15.77292-35.30132-23.28384-53.3275c-3.75546-9.01311-7.51093-17.2751-11.26636-26.28821  c-0.7511-1.50219-3.00439-9.01311-4.50656-9.01311c-2.2533-0.75109-3.00436,4.50655-3.75546,6.00873  c-13.51965,31.54586-27.03928,62.3406-40.55894,93.88646c-14.27075,33.79913-29.29259,66.84718-43.56334,100.64631  c-3.75546,9.01309-7.51093,18.77728-12.01746,27.79039c-3.00438,6.75984-14.27077,8.26199-21.03059,11.26637  c-18.02621,7.51093-34.55022,17.27512-51.07423,27.79041C56.98886,311.02502,14.17663,379.37436,2.91026,457.48788  c-10.5153,75.86026,7.51092,153.97379,53.3275,215.56339c23.28383,31.54584,53.3275,57.83405,86.37554,79.61566  c15.77292,10.51532,33.04802,19.52838,50.32315,27.03931c3.75546,1.5022,9.76422,3.00433,12.76854,6.00879  c3.00438,3.00427,4.50655,8.26202,6.00876,11.26636c4.50655,8.26202,9.01308,16.52399,13.51967,24.78607  c19.52838,35.30127,39.05675,70.60254,57.83403,106.65497c2.25333,4.50659,5.25763,9.76422,8.26202,14.27069  c2.2533,3.75549,2.2533,3.75549,4.50653,0c4.50653-7.51093,8.26199-15.77295,12.76852-23.28387  c9.76422-18.02618,19.52838-36.05243,29.2926-54.07855c9.76422-18.02618,19.52838-35.30133,29.29257-53.32758  c2.2533-4.50659,5.25763-9.01306,7.51093-13.51971c2.2533-3.75543,3.75546-9.01306,6.75983-12.01746  c4.50656-5.25763,14.27075-7.51093,20.27948-10.51526c34.5502-18.02618,67.59824-40.55896,95.38861-68.34937  c55.58081-54.07855,88.62885-126.18335,88.62885-204.29697C587.25958,487.53156,585.00635,471.75864,582.75305,455.98569z  M549.70502,594.18658c-24.78607,64.59387-72.85587,115.66809-133.69431,147.21393  c-7.51089,3.75549-15.77289,8.26202-24.03491,11.26642c-7.51089,3.00427-15.77289,5.25757-22.53275,9.01306  c-6.00876,3.00433-9.76422,13.51965-12.76852,19.52844c-3.75546,7.51086-7.51093,15.02179-11.26639,21.78162  c-16.52399,31.54578-32.29697,63.84277-50.32312,94.63757c-5.2576-4.50659-9.01306-14.27069-12.01746-21.03058  c-3.75546-7.51093-8.26199-15.02185-12.76852-23.28387c-9.01309-16.52405-17.27513-32.297-26.28821-48.82098  c-4.50655-7.51093-8.26201-15.77295-12.76854-23.28387c-3.00438-6.00879-6.00876-15.77301-12.76854-19.52844  c-7.51091-4.50659-18.02621-6.75983-26.28821-10.51532c-7.51093-3.00433-14.27075-6.75983-21.78168-10.51526  c-15.02184-8.26202-29.29259-17.27515-43.56331-27.79041c-54.82969-42.0611-90.88211-102.89954-100.64627-172  c-9.01311-68.34933,5.25765-136.69873,47.31877-192.27945c21.03056-28.54153,48.82096-51.82535,78.11353-71.35373  c14.27075-9.01309,28.5415-17.27509,44.31442-24.03494c3.00438-1.50218,8.26199-2.25327,10.51529-4.50653  s3.75546-6.75984,5.25761-9.01311c3.00438-7.51093,6.00876-14.27075,9.76422-21.78168  c14.27075-33.04803,28.5415-66.09605,43.56334-98.393c7.51093-16.52402,15.02185-33.79913,22.53275-51.07423  c2.2533-4.50653,4.50656-17.2751,8.26199-8.26199c3.75546,7.51092,6.75986,15.77291,9.76422,23.28383  c14.27075,32.29694,28.5415,65.34499,42.81223,97.64193c7.51089,16.52402,14.27075,33.79912,21.78165,50.32315  c3.00439,6.75983,5.25763,16.52402,12.01746,19.52837c7.51093,3.00438,15.02185,6.00873,21.78168,9.76419  c61.58951,29.29257,116.41922,80.36682,141.20529,144.20963C569.2334,464.24774,572.23779,534.85028,549.70502,594.18658z"
       id="path7737" /><path
       d="M280.81421,681.31317c0-18.77728,0-37.55457,0-55.58075c0-7.51093,2.2533-19.52838-0.75107-26.28827  c-12.01746,0-23.28384,0-35.30128,0c-3.75546,0-7.51093-0.75104-10.5153,0c-5.25761,0.7511-3.75546,5.25763-3.75546,10.51532  c0,6.00879,0,12.01746,0,18.02625c0,26.28821,0,51.82532,0,78.11353c0,12.01746,0,24.03491,0,36.80353  c0,11.26636,8.26201,22.53265,14.27077,32.29688c6.00874,11.26636,12.01744,22.53278,18.0262,33.79913  c3.00439,5.25763,6.00876,11.26636,9.01309,16.52399c2.2533,3.75549,4.50653,11.26636,8.26199,13.51971  c1.50217-0.75116,0.75107-9.01312,0.75107-11.26642c0-6.75977,0-13.51965,0-21.03058  C280.81421,764.68439,280.81421,723.37439,280.81421,681.31317z"
       id="path7739" /><path
       d="M498.63083,597.19092c-5.25763,0-11.26639,0-16.52402,0c-5.2576,0-11.26636,0-16.52399,0s-5.25763-0.75104-4.50653,3.75549  c0.75107,4.50653,3.75546,9.76422,5.2576,13.51965c2.2533,5.25763,4.50656,9.76422,6.00876,15.02185  c1.50217,4.50653,3.75546,8.26196,5.25763,12.76855c1.50217,3.75543,3.00436,12.01746,6.75983,15.02179  c5.25763-4.50653,9.76422-12.01746,13.51968-18.02618c4.50653-6.00879,8.26199-11.26636,12.01746-17.27515  c2.25333-3.75543,7.51089-10.51532,6.75986-15.02185c0-2.2533-2.2533-5.25757-3.75549-7.51093  C509.89719,596.43988,503.13736,597.19092,498.63083,597.19092z"
       id="path7741" /><path
       d="M345.40808,599.44421c-5.2576,0-10.51529,0-15.77289,0c-7.51093,0-15.02185,0-22.53278,0  c-3.00436,4.50659-0.75107,14.27075-0.75107,20.27948s0,12.01746,0,18.02618c0,40.55902,0,80.36682,0,120.92578  c0,4.50659,0,79.61578,0.75107,78.86462c12.01746-21.03058,23.28384-42.06116,34.55023-63.84277  c5.2576-10.51526,14.27075-21.03058,14.27075-32.297c0-36.80347,0-74.35809,0-111.16156c0-7.51093,0-14.27075,0-21.78168  c0-3.00439,0.75107-8.26202-2.2533-9.76422C352.16794,597.94202,347.66135,599.44421,345.40808,599.44421z"
       id="path7743" /><path
       d="M234.24649,589.68005c0.75108-0.7511,0.75108-2.25336,1.50217-3.00439c0-1.5022,1.50217-2.2533,3.00438-2.2533  c3.00438,0,6.75984,0,9.76422,0c0.75107,0,0.75107,0,1.50215,0c0.75108,1.50214,1.50217,3.00433,2.2533,4.50653  c0,0.7511,0.75108,1.50214,2.2533,1.50214c1.50217,0,2.2533,0,3.75546,0c0,0,0.75107,0,0.75107-0.75104  c0-1.5022-0.75107-2.2533-0.75107-3.00439c-1.50217-3.75549-2.2533-6.75983-3.75546-10.51532  c-1.50215-5.25763-3.75545-10.51526-5.25761-16.52399c0-0.7511-1.50215-1.50214-2.2533-1.50214c-0.75108,0-2.2533,0-3.00438,0  c-1.50217,0-2.2533,0.75104-3.00438,1.50214c-0.75108,2.2533-1.50215,4.50653-3.00438,6.00879  c-3.00438,6.75983-6.00876,12.76849-8.26199,19.52832c-0.75108,0.7511-0.75108,1.5022-1.50217,3.00439  c-0.75107,1.5022,0,2.2533,1.50217,2.2533h2.2533C233.49542,591.18219,234.24649,590.43109,234.24649,589.68005z  M239.50418,576.9115c1.50215-3.00439,2.2533-5.25763,3.75545-8.26202c0-0.75104,0.75108-0.75104,0.75108-1.50214  c0.75108,0.7511,0.75108,1.50214,1.50217,2.2533c0.75107,3.00439,1.50215,5.25763,2.2533,8.26196v0.7511l-0.75108,0.7511  c-2.2533,0-3.75546,0-6.00876,0c-0.75108,0-0.75108,0-1.50215-0.7511c0,0,0-0.7511,0-1.50214  C239.50418,577.6626,239.50418,577.6626,239.50418,576.9115z"
       id="path7745" /><path
       d="M118.57839,591.18219c0.75108,0,1.50219-0.7511,1.50219-1.50214c0.75108-1.5022,0.75108-2.25336,1.50219-3.75549  c1.50219-4.50653,2.25327-8.26196,3.75546-12.76855c0-0.75104,0-0.75104,0.75108-1.50214h0.75108h0.75108l0.75108,0.7511  c0.75108,2.2533,1.5022,3.75543,2.25328,6.00873c0.75107,3.75549,3.00436,6.75983,3.75545,9.76422  c0,1.50214,1.5022,3.00439,3.75546,2.2533c0.75108,0,1.50218,0,1.50218,0c0.75108,0,1.5022-0.7511,1.5022-0.7511  c0.75108-1.50214,0.75108-3.00433,1.50218-3.75543c0.75108-3.75543,2.25328-8.26202,3.00438-12.01746  c0.75108-3.00439,1.5022-6.00879,2.25328-9.01306c0-1.5022,0.75107-3.00439,0.75107-4.50653v-0.7511  c0,0-0.75107-0.00018-1.50215-0.00018s-2.25327,0-3.00438,0c-0.75108,0-0.75108,0-1.5022,0.7511  c0,0.75104-0.75107,0.75104-0.75107,1.50214c-0.75108,2.2533-1.5022,4.50653-1.5022,6.75983  c-0.75108,3.00439-1.50218,6.75983-3.00438,9.76422c-0.75108,0-1.50218-0.75104-1.50218-1.50214  c-1.5022-4.50653-3.75546-9.76422-5.25764-14.27075c-1.5022-3.75549-1.5022-3.75549-5.25765-3.75549  c-0.75108,0-1.50219,0.7511-2.25327,1.5022c0,0.75104,0,0.75104-0.75108,1.50214  c-0.75108,3.75549-2.25327,6.75983-3.00438,10.51532c-1.50219,4.50653-3.00438,9.76422-4.50654,14.27075  c0,0.75104-0.75108,2.2533-0.75108,3.00439v0.75104l0.75108,0.7511C116.32512,591.18219,117.82728,591.18219,118.57839,591.18219z"
       id="path7747" /><path
       d="M178.6657,559.63635c-0.75108,0-2.2533,0-3.00438,0c-0.75107,0-1.50215,0.7511-1.50215,1.50214  c0,0,0,0.7511-0.75108,0.7511c-3.00438,6.00879-6.75984,12.76855-9.76419,18.77728c0,0,0,0.7511-0.75108,0.7511h-0.75107  c0,0-0.75108,0-0.75108-0.7511c0-0.75104,0-1.50214,0-2.2533c0-3.00433-0.75108-6.00873-0.75108-9.01306  c0-2.2533-0.75108-5.25763-0.75108-7.51093c0-3.75543-0.75108-3.75543-3.75546-3.75543c-2.25327,0-3.00436,0-2.25327,3.00433l0,0  l0,0c0.75108,3.00439,0.75108,6.75989,1.5022,9.76422c0,2.2533,0.75107,4.50653,0.75107,6.00879  c0,3.00439,0.75108,5.25763,0.75108,7.51093c0,1.50214,0,2.2533,0.75108,3.75543c0,0.7511,0.75108,1.5022,1.5022,1.5022  c0.75107,0,2.25327,0,3.00436,0c1.5022,0,2.25328-0.7511,3.00438-1.5022c0-0.7511,0.75108-0.7511,0.75108-1.50214  c1.5022-2.2533,3.00438-5.25763,4.50655-7.51093c3.00438-6.00879,6.00876-11.26636,9.01308-17.27515  c0.75108-0.7511,1.50215-2.2533,1.50215-3.75543C179.41684,560.38745,179.41684,559.63635,178.6657,559.63635  C179.41684,559.63635,178.6657,559.63635,178.6657,559.63635z"
       id="path7749" /><path
       d="M178.6657,591.18219l0.75108,0.7511c0.75108,0,2.2533,0,3.00438,0s1.50217-0.7511,1.50217-1.5022  c0-0.75104,0-1.50214,0.75107-2.2533c0-0.7511,0-2.2533,0.75108-3.00439c0.75108-3.75543,1.50217-7.51086,2.2533-11.26636  c0.75108-3.75543,1.50217-8.26196,2.2533-12.01746c0.75108-2.2533,0-3.00439-2.2533-3.00439c-0.75107,0-0.75107,0-1.50215,0  s-0.75108,0-1.50217,0.7511c0,0-0.75108,0.7511-0.75108,1.5022c0,1.50214-0.75107,3.75543-0.75107,5.25757  c-1.50217,7.51093-2.25331,14.27075-3.75546,21.78168c0,0.7511,0,1.5022,0,2.2533  C177.91461,590.43109,177.91461,590.43109,178.6657,591.18219z"
       id="path7751" /><path
       d="M201.94958,566.39618c0-2.2533,0.75108-3.75543,0.75108-6.00873v-0.7511l-0.75108-0.7511c-0.75108,0-2.2533,0-3.00438,0  s-0.75108,0.7511-1.50215,0.7511c0,0.7511-0.75108,2.2533-0.75108,3.00439c-0.75108,3.00439-0.75108,5.25763-1.50217,8.26196  c-0.75108,6.00879-1.50215,11.26642-3.00438,17.27515c0,0.7511,0,1.5022,0,2.2533s0.75108,0.7511,0.75108,0.7511  c0.75108,0,1.50217,0,1.50217,0h8.26199h9.01308c0.75108,0,1.50217,0,2.2533-0.7511  c0.75108-0.7511,0.75108-1.50214,0.75108-1.50214c0-0.7511,0-0.7511,0-1.5022c0-0.75104,0-0.75104,0-1.50214l-0.75108-0.7511  c-0.75108,0-1.50215,0-2.2533,0c-3.00438,0-6.00876,0-8.26199,0c-0.75108,0-1.50217,0-2.2533,0  c-0.75108,0-0.75108,0-0.75108-0.75104v-0.7511c0-0.7511,0.75108-1.5022,0.75108-3.00439  C200.44737,576.16034,201.19846,571.65381,201.94958,566.39618z"
       id="path7753" /><path
       d="M285.32077,585.92456c-0.7511,0-1.50217,0-2.25333,0c-3.00436,0-6.00873,0-9.76419,0c-0.7511,0-1.50217,0-2.2533,0  c-0.7511,0-1.50217-0.7511-1.50217-1.50214c0-1.5022,0-3.00439,0-5.25763l0,0c0-0.7511,0-0.7511,0.75107-1.5022  c0.7511,0,0.7511-0.75104,1.50217-0.75104c3.00436,0,6.00876,0,9.01309,0c2.2533,0,3.00436,0,3.00436-3.00439  c0,0,0-0.7511,0-1.50214c0,0,0-0.7511-0.75107-0.7511c-0.7511,0-0.7511,0-0.7511,0h-7.51093c-0.75107,0-2.2533,0-3.00436,0  s-1.50217-0.7511-1.50217-1.50214c0-0.7511,0-1.5022,0-2.25336c0-0.75104,0-1.50214,0-2.2533c0-0.75104,0-0.75104,0.7511-1.50214  c0.75107,0,1.50214,0,3.00436,0c3.00439,0,6.00876,0,9.01309,0c3.0043,0,3.00436-0.7511,3.00436-3.75543  c0-0.7511,0-0.7511,0-1.5022c-0.75107,0-1.50217,0-1.50217,0c-5.2576,0-11.26636,0-16.52399,0c-0.75107,0-0.75107,0-1.50217,0  c-0.75107,0-1.50217,0.7511-1.50217,1.5022c0,1.50214-0.75107,3.75543-0.75107,5.25757c0,6.75989,0,14.27075,0,21.03064  c0,0.75104,0,1.50214,0,2.2533c0,0.75104,0,0.75104,0.75107,1.50214c0,0,0.7511,0.7511,1.50217,0.7511h18.02621  c0.7511,0,0.7511,0,1.50217,0s0.75107-0.7511,1.50217-0.7511c0-0.7511,0-2.2533,0-3.00439  C286.07184,586.67566,286.07184,585.92456,285.32077,585.92456z"
       id="path7755" /><path
       d="M379.95831,591.18219c1.50214,0,2.2533-0.7511,3.00436-1.50214c0.75107-0.7511,0.75107-2.25336,0.75107-3.75549  c-0.75107-3.00439-0.75107-5.25763-1.50214-8.26196c-0.7511-3.75549-3.75546-6.00879-7.51093-6.00879  c-2.2533,0-4.50653,0-6.75983,0c-0.7511,0-1.50217,0-2.2533,0c-0.7511,0-1.50217-0.7511-2.25333-1.50214  c0-1.5022-0.75107-3.00439-0.75107-4.50653c0-0.7511,0-0.7511,0-1.5022c0,0,0.75107-0.7511,1.50217-0.7511h6.75983  c0.7511,0,1.50217,0.7511,2.2533,1.5022l0.7511,0.7511c1.50214,0,3.00436,0,4.50653,0c0-1.5022,0-3.00439-1.50217-4.50659  c-1.50217-1.50214-3.00436-2.2533-5.25763-3.00433c-3.75543,0-7.51089,0-11.26636,0c-1.50217,0-2.2533,0.75104-3.00439,1.50214  c-0.75107,0.7511-1.50214,2.2533-1.50214,3.75543c0,0.7511,0,1.5022,0,2.25336c0,2.2533,0.75107,4.50653,1.50214,6.00873  c0,0.7511,0.7511,0.7511,0.7511,1.50214c1.50217,2.2533,4.50653,3.00439,6.75983,3.00439c3.00439,0,5.25763,0,8.26199,0  c0.7511,0,1.50217,0,1.50217,0c0.75107,0.7511,0.75107,0.7511,0.75107,1.5022c0.7511,1.50214,0.7511,3.00433,0.7511,4.50653  c0,0.75104,0,0.75104-0.7511,1.50214c0,0-0.75107,0.7511-1.50214,0.7511c-2.2533,0-4.50656,0-6.75986,0  c-0.75107,0-1.50214,0-2.2533-0.7511c0-0.7511-0.75107-0.7511-0.75107-1.50214c0,0-0.7511-0.7511-1.50217-0.7511  c-1.50217,0-2.2533,0-3.75546,0c-0.75107,0-0.75107,0.7511-0.75107,1.50214c0,1.5022,0.75107,3.00439,1.50217,4.50653  c1.50214,1.5022,3.75543,3.00439,6.00876,2.25336c3.75543,0,7.51089,0,11.26636,0  C379.20721,591.18219,379.20721,591.18219,379.95831,591.18219z"
       id="path7757" /><path
       d="M350.66571,567.14728c0-0.7511,0-1.50214,0-1.50214c0-1.5022-0.75107-2.25336-1.50217-3.00439  c-1.50217-1.5022-3.00436-3.00439-5.2576-3.00439c-5.25763,0-9.76422,0-15.02185,0c-1.50217,0-3.00436,0.7511-3.75546,2.2533  c-0.75107,0.7511-0.75107,2.2533-0.75107,3.00439c0,0,0,0.7511,0,1.50214c0,2.2533,0,4.50653,0.75107,6.75983  c0.7511,3.00439,0.7511,6.00879,0.7511,9.01312c0,1.50214,0,3.75543,0.75107,5.25757c0,0.7511,0.75107,2.25336,1.50217,3.00439  c1.50217,1.5022,3.75546,2.2533,6.00876,2.2533s5.2576,0,7.51093,0l0,0h8.26199c1.50214,0,3.00436-0.75104,3.75546-1.50214  c0.75107-0.7511,1.50214-2.2533,1.50214-3.75549c0-0.75104,0-1.50214,0-2.2533c0-1.50214-0.75107-3.00433-0.75107-3.75543  C352.16794,575.40924,350.66571,571.65381,350.66571,567.14728z M346.15918,585.17346l-0.7511,0.7511  c-0.75107,0-1.50214,0-1.50214,0c-3.00439,0-6.00876,0-9.01309,0c-0.75107,0-0.75107,0-1.50217,0  c-0.75107,0-1.50217,0-1.50217-0.7511c0-0.75104-0.75107-0.75104-0.75107-1.50214c0-3.00439-0.75107-5.25763-0.75107-8.26202  c0-3.00433-0.7511-6.00873-0.7511-9.01306c0-0.7511,0-1.50214,0-2.2533c0.7511,0,1.50217,0,2.2533,0h11.26639  c0.75107,0,1.50217,0.7511,1.50217,1.5022c0,1.50214,0.75107,3.00433,0.75107,4.50653c0,1.50214,0,3.00433,0.7511,4.50653  c0,1.50214,0.75107,3.75543,0.75107,5.25763c0,1.50214,0,3.00433,0,4.50653  C346.91025,585.17346,346.91025,585.17346,346.15918,585.17346z"
       id="path7759" /><path
       d="M313.11111,590.43109c1.50217,0.7511,3.00439,1.5022,4.50656,1.5022c0.75107,0,0.75107-0.7511,1.50214-1.5022  c0.7511-1.50214,0-3.75543-2.2533-4.50653c-1.50214-1.50214-3.00436-3.00439-4.50653-4.50653c0,0,0-0.7511,0-1.50214  c0-0.7511,0-0.7511,0.7511-0.7511c0.75107,0,0.75107-0.7511,1.50214-1.5022c0.7511-0.75104,1.50217-2.2533,1.50217-3.00433  c0-0.7511,0-1.5022,0-1.5022c0-2.2533,0-5.25763-0.75107-7.51093c0-3.00433-3.00439-6.00873-6.00876-6.00873  c-2.2533,0-4.50653,0-6.75986,0l0,0h-6.00873c-0.7511,0-1.50217,0-1.50217,0c-0.7511,0-0.7511,0-0.7511,0.7511  c0,0.75104-0.75107,0.75104-0.75107,0.75104c0,0.7511,0,2.2533,0,3.00439s0,1.5022,0,2.2533  c0,6.75983,0.75107,14.27075,0.75107,21.03058c0,0.7511,0,1.5022,0,2.2533s0,1.5022,0.7511,1.5022  c0.75107,0,0.75107,0.75104,1.50217,0.75104c0.75107,0,1.50214,0,2.2533,0c0.75107,0,1.50214-0.75104,1.50214-1.50214  s0-2.2533,0-3.00439c0-2.2533,0-3.75543,0-6.00873c0-0.7511,0-0.7511,0.7511-1.5022c0,0,0.75107-0.75104,1.50217-0.75104  c1.50214,0,3.75543,0.75104,4.50653,2.2533c1.50217,2.2533,2.2533,3.75543,3.75546,6.00873  C310.85788,588.17786,311.60898,588.92896,313.11111,590.43109z M308.60458,573.15601c-1.50217,0-2.2533,0-3.75546,0h-3.75546  c-0.75107,0-0.75107,0-1.50214-0.75104c0,0-0.7511-0.7511-0.7511-1.5022c0-2.2533,0-3.75543,0-6.00873v-0.7511h0.7511  c3.00436,0,5.2576,0,8.26199,0c0.75107,0,1.50217,0.7511,1.50217,1.5022c0,2.2533,0.75107,3.75543,0.75107,6.00873  c0,0.7511,0,0.7511,0,1.50214C309.35568,573.15601,308.60458,573.15601,308.60458,573.15601z"
       id="path7761" /><path
       d="M485.11115,564.14288h9.76422c0.75107,0,1.50214,0,2.2533,0c1.50217,0,1.50217-0.7511,1.50217-1.50214  c-0.7511-0.7511-0.7511-2.2533-1.50217-3.00439h-0.7511h-18.77734c-0.75107,0-1.50217,0-1.50217,0.7511  c0.7511,1.50214,0.7511,2.2533,1.50217,3.00433c1.50217,4.50659,3.75546,9.01312,5.25763,13.51971  c1.50217,3.00439,2.2533,6.00873,3.75546,9.01306c0.75107,1.50214,1.50214,3.00439,2.2533,4.50653  c0.75107,1.5022,1.50217,1.5022,3.00436,1.5022h18.02621c0.7511,0,0.7511,0,1.50217,0c0,0,0.7511,0,0.7511-0.7511v-0.7511  c0-0.75104-0.7511-1.50214-0.7511-1.50214c-0.75107-1.5022-1.50217-2.2533-3.00439-2.2533c-3.75543,0-6.75983,0-10.51529,0  c-0.75107,0-1.50217,0-2.2533,0c-0.75107,0-2.2533-0.7511-2.2533-1.5022c-0.75107-1.50214-1.50217-3.00433-2.2533-4.50653l0,0  c0-0.75104,0-0.75104,0-1.50214c0,0,0.75107-0.7511,1.50217-0.7511c2.2533,0,5.2576,0,7.51093,0c0.75107,0,1.50214,0,2.2533,0  c0.75107,0,0.75107,0,0.75107-0.7511c0,0,0-0.75104,0-1.50214s0-0.7511-0.75107-1.50214c0-1.5022-1.50217-2.2533-3.00439-2.2533  h-8.26199c-0.75107,0-1.50217,0-2.2533,0c-0.75107,0-1.50217-0.7511-1.50217-1.5022  c-0.75107-1.50214-1.50217-3.00439-2.2533-5.25763v-0.75104C484.36005,564.14288,485.11115,564.14288,485.11115,564.14288z"
       id="path7763" /><path
       d="M431.03256,561.88965c-0.75107-0.7511-0.75107-1.50214-1.50217-1.50214c-0.75107-0.7511-0.75107-0.7511-1.50217-0.7511  c-1.50214,0-3.75546,0-5.2576,0c-0.7511,3.75543-0.7511,6.75983-0.7511,10.51532c0,3.75543-0.75107,8.26196-0.75107,12.01746  c0,1.50214,0,2.2533,0,3.75543s0,3.00439,0,4.50653c0,0.7511,0,0.7511,0.75107,1.5022  c0.7511,0.75104,0.7511,0.75104,1.50217,0.75104s2.2533,0,3.00439,0c0.75107,0,1.50214-0.75104,1.50214-1.50214s0-2.2533,0-3.00439  s0-1.50214,0.7511-1.50214c0.75107,0,0.75107-0.7511,1.50217-0.7511h9.76419c0.7511,0,1.50217,0,2.2533,0.7511  c0.7511,0.75104,1.50217,1.50214,2.2533,3.00433c0.7511,2.2533,3.75546,3.75549,6.00876,2.2533h0.7511v-0.75104  c-0.7511-0.7511-0.7511-1.5022-1.50217-2.2533c-2.2533-3.75549-5.25763-7.51093-7.51093-11.26642  C437.79233,571.65381,434.78802,567.14728,431.03256,561.88965z M434.78802,579.91583c-1.50217,0-3.75546,0-5.25763,0  c-0.75107,0-0.75107,0-1.50217-0.7511c0,0-0.75107-0.7511-0.75107-1.50214c0-2.25336,0-4.50659,0-6.75989  c0-0.75104,0-2.2533,0.75107-3.00433c0.7511,0,1.50217,0.75104,1.50217,1.50214c2.2533,3.00439,4.50653,6.75983,6.00876,9.76422  C435.53909,579.16473,435.53909,579.16473,434.78802,579.91583z"
       id="path7765" /><path
       d="M454.31641,585.17346c1.50214,3.75549,4.50653,6.00879,8.26199,6.00879h13.51965c1.50217,0,3.00439-0.7511,3.75546-2.2533  c0.7511-1.5022,0.7511-3.75549-0.75107-5.25763c-0.7511-0.7511-1.50217-0.7511-2.2533-0.7511c-0.7511,0-1.50217,0-2.2533,0h-0.7511  l-0.75107,0.7511v0.7511c-0.7511,0.75104-2.2533,0.75104-3.00439,0.75104c-2.2533,0-4.50653,0-6.75983,0  c-0.75107,0-1.50217,0-2.2533-0.75104c-0.75107-0.7511-1.50217-1.5022-1.50217-2.2533  c-0.75107-1.5022-0.75107-3.00439-1.50217-5.25763c-1.50214-3.75549-2.2533-7.51093-3.75543-10.51532v-0.75104v-0.7511v-0.7511  l0.75107-0.7511c3.00436,0,6.00876,0,9.01306,0c0.7511,0,2.25333,0,3.00439,1.5022c0,0.7511,0.75107,0.7511,1.50217,0.7511  c0.75107,0,2.2533,0,3.00436,0c0,0,0.7511,0,0.7511-0.7511s0-0.7511,0-0.7511v-0.7511  c-1.50217-3.00433-4.50656-5.25757-8.26202-5.25757c-4.50653,0-8.26199,0-12.76852,0h-0.75107c-0.7511,0-1.50217,0-1.50217,0.75104  c-1.50217,0.7511-2.2533,3.00439-1.50217,4.50653c0,0,0,0.7511,0.75107,1.5022c0.7511,3.00439,2.25333,6.00873,3.00439,8.26196  C452.06308,578.41364,453.56531,582.16913,454.31641,585.17346z"
       id="path7767" /><path
       d="M397.23343,579.16473c0.7511,0,1.50217,0,1.50217,0h6.00876c0.75107,0,1.50217,0,2.2533,0  c1.50217,0,2.2533-0.7511,3.00436-2.2533c0.7511-1.5022,0.7511-2.2533,0.7511-3.75549  c-0.7511-2.2533-0.7511-4.50653-1.50217-6.75983c0-0.75104-0.75107-2.2533-0.75107-3.00433c0,0,0-0.7511-0.7511-0.7511  c-1.50217-2.2533-3.75546-3.00439-6.75983-3.00439c-4.50653,0-9.01309,0-13.51968,0c-0.75107,0-1.50217,0-2.2533,0  c-0.75107,0.7511-0.75107,2.2533,0,3.00439c1.50217,4.50653,1.50217,9.01306,3.00439,13.51965v0.7511  c0.75107,3.00439,1.50214,6.00873,1.50214,8.26196c0,1.5022,0.7511,3.00439,0.7511,4.50659  c0,0.75104,0.75107,1.50214,2.2533,1.50214h1.50217c2.2533,0,3.00436,0,2.2533-3.00439c0,0,0,0,0-0.75104  c-0.7511-2.2533-0.7511-3.75549-1.50217-6.00879c0,0,0-0.7511,0-1.50214v-0.7511  C396.4823,579.16473,397.23343,579.16473,397.23343,579.16473z M395.7312,573.15601c-0.75107,0-1.50214-0.75104-1.50214-0.75104  c-0.7511-2.2533-1.50217-4.50653-1.50217-6.75983v-0.7511h0.75107h7.51093c0.75107,0,2.2533,0.7511,2.2533,1.50214  c0.75107,2.2533,0.75107,3.75549,1.50217,6.00879v0.75104l-0.7511,0.7511  C400.98889,573.15601,397.98453,573.15601,395.7312,573.15601z"
       id="path7769" /><path
       d="M78.77054,589.68005v0.75104c0,0,0,0.7511,0.75108,0.7511c2.25327,0.7511,5.25765,0,6.00873-2.2533  c0.75108-0.7511,1.50219-1.5022,1.50219-3.00439c0.75108-0.7511,2.25327-1.50214,3.00438-1.50214c3.00438,0,6.00873,0,8.262,0  c3.00437,0,3.00437,0,3.00437,3.00433c0,3.75549,0.75108,3.75549,3.75546,3.75549c0.75108,0,0.75108,0,1.50219,0  c0.75108,0,1.50219-0.7511,1.50219-1.50214c0-1.5022,0-3.00439,0-3.75549l0,0c0-2.2533-0.75108-4.50653-0.75108-6.00873  c0-6.00879-0.75108-11.26642-0.75108-16.52405c0-0.75104,0-1.50214,0-2.2533c0-0.75104-0.75108-0.75104-1.50219-0.75104  c-0.75108,0-2.25327,0-3.00438,0c-1.50219,0-2.25327,0.75104-3.00438,1.50214c-1.50219,2.2533-3.00438,3.75549-3.75546,6.00879  c-3.75546,5.25757-7.51091,10.51526-11.26637,15.77289C82.52599,584.42242,81.0238,587.4267,78.77054,589.68005z  M93.04126,578.41364c0,0,0-0.75104,0.75108-0.75104c2.25327-3.00439,3.75546-5.25763,6.00873-8.26202  c0-0.7511,0.75108-0.7511,1.50219-0.7511c0.75108,0.7511,0.75108,1.5022,0.75108,2.2533c0,2.2533,0,4.50653,0,7.51093  c0,0.7511,0,0.7511-0.75108,1.5022c-0.75108,0.75104-0.75108,0.75104-1.50219,0.75104c-2.25327,0-3.75546,0-6.00873,0  c0,0-0.75108,0-0.75108-0.75104C93.04126,578.41364,93.04126,578.41364,93.04126,578.41364z"
       id="path7771" /><path
       d="M108.0631,407.91586c28.54147-51.82535,69.10045-75.10919,69.10045-75.10919l27.03929-61.58951  c0,0-60.08734,30.0437-90.13101,62.34061c-28.54148,30.79474-66.09607,75.10916-66.84718,157.72925  c-0.75108,75.10916,16.52402,99.89523,16.52402,99.89523l27.03929-60.83844  C90.03691,529.59271,81.77489,455.23459,108.0631,407.91586z"
       id="path7773" /><path
       d="M385.21591,270.46603l27.03931,61.58951c0,0,40.55896,23.28384,69.1004,75.10916  c26.28827,48.06989,18.77734,122.42801,18.77734,122.42801l27.03928,60.83838c0,0,17.27515-25.53711,16.52405-99.8952  c-0.7511-82.62009-38.30569-126.93451-66.8472-157.72928C445.30325,299.75864,385.21591,270.46603,385.21591,270.46603z"
       id="path7775" /><path
       d="M129.84477,626.48352l-19.52838,42.06116c45.81659,53.32745,105.90395,68.3493,105.90395,69.1004  s-0.75107-47.31879-0.75107-47.31879C166.64824,675.3045,129.84477,626.48352,129.84477,626.48352z"
       id="path7777" /><path
       d="M371.69629,690.32635c0,0-1.50214,48.82092-0.75107,47.31879c0.75107-1.5022,60.08734-16.52399,105.90393-69.1004  l-19.52838-42.06116C457.32077,626.48352,421.26834,675.3045,371.69629,690.32635z"
       id="path7779" /></g></svg>