<?xml version="1.0" encoding="UTF-8" standalone="no"?>
<!-- Created with Inkscape (http://www.inkscape.org/) -->

<svg
   xmlns:dc="http://purl.org/dc/elements/1.1/"
   xmlns:cc="http://creativecommons.org/ns#"
   xmlns:rdf="http://www.w3.org/1999/02/22-rdf-syntax-ns#"
   xmlns:svg="http://www.w3.org/2000/svg"
   xmlns="http://www.w3.org/2000/svg"
   xmlns:sodipodi="http://sodipodi.sourceforge.net/DTD/sodipodi-0.dtd"
   xmlns:inkscape="http://www.inkscape.org/namespaces/inkscape"
   width="31.082558mm"
   height="33.811123mm"
   viewBox="0 0 110.13505 119.80319"
   id="svg2"
   version="1.1"
   inkscape:version="0.91 r13725"
   sodipodi:docname="aopoa.svg">
  <defs
     id="defs4" />
  <sodipodi:namedview
     id="base"
     pagecolor="#ffffff"
     bordercolor="#666666"
     borderopacity="1.0"
     inkscape:pageopacity="0.0"
     inkscape:pageshadow="2"
     inkscape:zoom="3.0652721"
     inkscape:cx="62.924671"
     inkscape:cy="21.280306"
     inkscape:document-units="px"
     inkscape:current-layer="layer1"
     showgrid="false"
     fit-margin-top="0"
     fit-margin-left="0"
     fit-margin-right="0"
     fit-margin-bottom="0"
     inkscape:window-width="1680"
     inkscape:window-height="1005"
     inkscape:window-x="0"
     inkscape:window-y="100"
     inkscape:window-maximized="1" />
  <metadata
     id="metadata7">
    <rdf:RDF>
      <cc:Work
         rdf:about="">
        <dc:format>image/svg+xml</dc:format>
        <dc:type
           rdf:resource="http://purl.org/dc/dcmitype/StillImage" />
        <dc:title></dc:title>
      </cc:Work>
    </rdf:RDF>
  </metadata>
  <g
     inkscape:label="Layer 1"
     inkscape:groupmode="layer"
     id="layer1"
     transform="translate(146.4961,136.11082)">
    <g
       id="g4207"
       transform="translate(-335.75393,-138.11398)"
       style="fill-rule:evenodd">
      <path
         id="path4209"
         d="m 275.4135,119.46893 c 3.77658,-6.53293 7.50853,-12.98887 11.35235,-19.637861 4.24416,7.348681 8.40324,14.550051 12.62703,21.862741 -1.24091,0.18915 -2.30411,0.096 -3.40916,0.0352 -1.11984,-1.93084 -2.22322,-3.83267 -3.35477,-5.78359 l -11.73205,0 c -1.11593,1.92275 -2.21959,3.82401 -3.35728,5.78442 l -37.19674,0 c 0.69076,-0.92622 1.50986,-1.51571 2.22768,-2.26087 l 32.84294,0 z m -62.202,0.0289 23.18875,0 c 0.1459,0.76943 0.13949,1.47024 -0.01,2.24469 l -25.31292,0 c -1.11565,-1.92135 -2.23409,-3.84856 -3.37011,-5.80506 l -11.72006,0 c -1.10142,1.89261 -2.20591,3.79109 -3.33942,5.73895 -1.06459,0.0522 -2.12752,0.0778 -3.38991,-0.0486 4.20315,-7.28618 8.33376,-14.44571 12.58099,-21.808061 3.84689,6.656801 7.602,13.154301 11.37245,19.678031 z m 25.10053,-21.819027 c 5.06074,2.918997 9.97558,5.754017 15.08347,8.700347 -4.22798,2.44668 -8.28411,4.79376 -12.39631,7.17348 l 0,4.99183 c -0.86234,1.01829 -1.68059,1.98497 -2.68716,3.17399 l 0,-24.039647 z m 2.73096,5.018337 0,7.37993 c 2.16602,-1.25096 4.19813,-2.42464 6.39093,-3.69122 -2.19169,-1.26519 -4.22575,-2.43915 -6.39093,-3.68871 z m -23.42502,8.92097 0,-6.90287 c 2.15151,-1.13322 4.30889,-2.26952 6.49834,-3.42283 2.18415,1.15275 4.34125,2.29128 6.50057,3.4312 l 0,6.88167 c -2.14482,1.12848 -4.30442,2.26422 -6.49611,3.41725 -2.16574,-1.13406 -4.30358,-2.25306 -6.5028,-3.40442 z m 1.87839,-1.01438 c 1.53524,0.81435 3.05374,1.61977 4.6021,2.4411 1.53914,-0.80543 3.06155,-1.60164 4.60628,-2.41013 l 0,-4.93465 c -1.52492,-0.8043 -3.06519,-1.61614 -4.59401,-2.42268 -1.59466,0.84308 -3.11261,1.64544 -4.61437,2.43886 l 0,4.8875 z m 40.25545,1.01438 0,-6.90287 c 2.15151,-1.13322 4.30916,-2.26952 6.49862,-3.42283 2.18387,1.15275 4.34097,2.29128 6.50029,3.4312 l 0,6.88167 c -2.14482,1.12848 -4.30414,2.26422 -6.49611,3.41725 -2.16574,-1.13406 -4.30358,-2.25306 -6.5028,-3.40442 z m 1.87839,-1.01438 c 1.53524,0.81435 3.05374,1.61977 4.60209,2.4411 1.53943,-0.80543 3.06156,-1.60164 4.60628,-2.41013 l 0,-4.93465 c -1.52491,-0.8043 -3.0649,-1.61614 -4.59428,-2.42268 -1.59439,0.84308 -3.11233,1.64544 -4.61409,2.43886 l 0,4.8875 z m 14.99857,-7.77036 0,10.63677 c -2.93908,1.70625 -5.93563,3.44599 -9.07725,5.2697 l 0,-2.37387 c 2.29351,-1.33381 4.64562,-2.70194 7.00469,-4.07398 l 0,-8.25202 c -2.2977,-1.34023 -4.64534,-2.70976 -6.99716,-4.081517 -0.1381,-0.746278 -0.13726,-1.444014 0.0159,-2.345406 3.09141,1.782419 6.06173,3.495093 9.05382,5.220323 z m -60.76845,9.47095 c 2.35378,1.3659 4.68077,2.71646 7.00553,4.06561 0.0801,0.76302 0.13308,1.46717 -0.0547,2.33369 -3.06239,-1.76819 -6.03634,-3.4856 -9.03484,-5.21697 l 0,-10.63983 c 2.91871,-1.68757 5.92112,-3.423679 9.00555,-5.206935 0.19808,0.819372 0.14647,1.521571 0.0893,2.309696 -2.30747,1.340789 -4.63307,2.691899 -7.01084,4.073419 l 0,8.28132 z m 9.49317,6.43267 0,-2.35824 c 2.35377,-1.37259 4.70197,-2.74184 7.04319,-4.1069 l 0,-8.23612 c -2.33564,-1.35418 -4.68719,-2.71729 -7.01892,-4.068963 -0.0725,-0.782546 -0.12778,-1.488651 0.053,-2.343454 3.0557,1.766797 6.02798,3.485607 9.00584,5.207487 l 0,10.66941 c -2.96475,1.70905 -5.93954,3.42423 -9.08311,5.23678 z m 39.68989,-2.36507 0,2.35405 c -3.10089,-1.78605 -6.07512,-3.499 -9.06944,-5.22311 l 0,-10.66801 c 2.9508,-1.70738 5.92503,-3.428141 9.03317,-5.226183 l 0,2.361029 c -2.27817,1.327404 -4.62804,2.696364 -6.98879,4.071754 l 0,8.24114 c 2.29854,1.338 4.64785,2.70557 7.02506,4.08933 z m -1.29244,-33.179145 c -1.50344,2.020391 -2.92988,3.937559 -4.36217,5.861981 l -29.79729,0 c -1.41109,-1.89206 -2.84032,-3.808949 -4.36859,-5.858354 -4.00535,5.504883 -7.95016,10.927466 -11.88912,16.34168 -0.36993,-0.03655 -0.58028,-0.240483 -0.84587,-0.537878 3.93812,-5.42342 7.88098,-10.853815 11.90725,-16.398314 -2.36633,-0.803749 -4.62274,-1.569835 -6.94192,-2.357402 -3.06546,-9.425425 -6.13203,-18.854756 -9.20642,-28.307799 1.40161,-1.977987 2.78396,-3.928632 4.24248,-5.987244 -6.48997,-2.109945 -12.87197,-4.185017 -19.22775,-6.251441 -0.0804,-0.366862 0.0597,-0.60037 0.25611,-0.971696 6.36415,2.063634 12.7428,4.131731 19.26402,6.24614 l 0,-7.243781 c 8.10305,-5.88709 16.12993,-11.71894 24.19169,-17.576179 2.30272,0.717264 4.58368,1.428112 6.99298,2.178854 l 0,-20.1790851 c 0.3649,-0.2153745 0.63022,-0.1618099 0.98341,-0.061097 l 0,20.2471561 c 2.42436,-0.751578 4.71676,-1.462147 7.04961,-2.18527 8.00791,5.818181 16.01415,11.635525 24.13506,17.535447 l 0,7.3046 c 6.54493,-2.125289 12.92665,-4.197293 19.2788,-6.25981 0.243,0.311065 0.32892,0.561312 0.32446,0.952725 -6.35662,2.068934 -12.73695,4.14568 -19.25203,6.266227 1.45071,2.048568 2.82945,3.995866 4.23663,5.983338 -3.06629,9.435468 -6.13119,18.866193 -9.20168,28.313936 -2.30272,0.778362 -4.56443,1.542774 -6.94555,2.347917 4.01149,5.524412 7.95603,10.957039 11.87796,16.358699 -0.14339,0.365188 -0.44162,0.423495 -0.71698,0.719495 -3.99615,-5.495955 -7.95491,-10.94002 -11.98509,-16.482845 z M 244.48803,56.670464 c -5.58718,7.689316 -11.08258,15.251975 -16.67144,22.943244 l 4.21292,0 c 4.1228,-5.67032 8.24951,-11.346219 12.45434,-17.130085 4.22296,5.805905 8.36473,11.500497 12.4535,17.121995 l 4.2065,0 C 255.56531,71.924113 250.08163,64.372893 244.48803,56.670464 Z m 27.53502,-10.33965 C 262.92348,39.720602 254.03342,33.262435 245.02563,26.7189 l 0,7.256057 c 6.70423,4.868803 13.39033,9.724494 20.10013,14.597202 2.23772,-0.727307 4.45424,-1.447361 6.89729,-2.241345 z m -48.1708,2.244414 c 6.75026,-4.90535 13.43636,-9.764388 20.04852,-14.569583 l 0,-7.260521 c -9.00416,6.54521 -17.89561,13.008677 -26.94496,19.586806 2.45309,0.79789 4.65203,1.513201 6.89644,2.243298 z m 22.5019,8.884478 c 6.08349,-1.97157 12.16838,-3.943418 18.44604,-5.977759 -2.39813,7.384668 -4.7268,14.555355 -7.05546,21.727717 1.41192,1.932512 2.78061,3.805601 4.2715,5.845242 3.4644,-10.663828 6.85683,-21.105586 10.31733,-31.756581 -9.09372,2.953588 -17.99047,5.843289 -26.914,8.741639 0.18273,0.585584 0.5588,0.945192 0.93459,1.419742 z M 216.63553,47.293303 c 3.46971,10.678057 6.86967,21.142412 10.32264,31.768299 1.48893,-2.046058 2.86403,-3.935328 4.26648,-5.862539 -2.32979,-7.180173 -4.65539,-14.348072 -7.04794,-21.720743 6.2905,2.041315 12.37734,4.016512 18.48873,5.99952 0.30855,-0.521419 0.73651,-0.846712 0.87656,-1.444014 -8.92046,-2.897792 -17.79936,-5.782192 -26.90647,-8.740523 z m 74.60604,66.229397 c -1.53189,-2.65006 -2.96168,-5.12296 -4.48102,-7.75098 -1.53552,2.67628 -2.95749,5.15393 -4.44809,7.75098 l 8.92911,0 z m -89.40531,-7.74913 c -1.53914,2.67153 -2.95331,5.12658 -4.42968,7.68959 l 8.88224,0 c -1.50483,-2.59872 -2.92596,-5.05321 -4.45256,-7.68959 z"
         inkscape:connector-curvature="0" />
    </g>
  </g>
</svg>
