<?xml version="1.0" encoding="UTF-8" standalone="no"?>
<!-- Created with Inkscape (http://www.inkscape.org/) -->

<svg
   xmlns:dc="http://purl.org/dc/elements/1.1/"
   xmlns:cc="http://creativecommons.org/ns#"
   xmlns:rdf="http://www.w3.org/1999/02/22-rdf-syntax-ns#"
   xmlns:svg="http://www.w3.org/2000/svg"
   xmlns="http://www.w3.org/2000/svg"
   xmlns:sodipodi="http://sodipodi.sourceforge.net/DTD/sodipodi-0.dtd"
   xmlns:inkscape="http://www.inkscape.org/namespaces/inkscape"
   width="42.699547mm"
   height="31.83206mm"
   viewBox="0 0 151.29761 112.79076"
   id="svg6907"
   version="1.1"
   inkscape:version="0.91 r13725"
   sodipodi:docname="argo.svg">
  <defs
     id="defs6909" />
  <sodipodi:namedview
     id="base"
     pagecolor="#ffffff"
     bordercolor="#666666"
     borderopacity="1.0"
     inkscape:pageopacity="0.0"
     inkscape:pageshadow="2"
     inkscape:zoom="0.35"
     inkscape:cx="154.93452"
     inkscape:cy="-195.03319"
     inkscape:document-units="px"
     inkscape:current-layer="layer1"
     showgrid="false"
     fit-margin-top="0"
     fit-margin-left="0"
     fit-margin-right="0"
     fit-margin-bottom="0"
     inkscape:window-width="1680"
     inkscape:window-height="1005"
     inkscape:window-x="0"
     inkscape:window-y="100"
     inkscape:window-maximized="1" />
  <metadata
     id="metadata6912">
    <rdf:RDF>
      <cc:Work
         rdf:about="">
        <dc:format>image/svg+xml</dc:format>
        <dc:type
           rdf:resource="http://purl.org/dc/dcmitype/StillImage" />
        <dc:title></dc:title>
      </cc:Work>
    </rdf:RDF>
  </metadata>
  <g
     inkscape:label="Layer 1"
     inkscape:groupmode="layer"
     id="layer1"
     transform="translate(238.50595,-224.53825)">
    <g
       id="g7495"
       transform="translate(-239.67311,216.33504)"
       style="fill-rule:evenodd">
      <path
         id="path7497"
         d="M 76.814063,19.640625 C 64.870577,19.501849 54.02599,26.590361 49.360248,37.585676 44.694506,48.58099 47.131669,61.305467 55.530091,69.798558 63.928514,78.291649 76.624874,80.871282 87.671795,76.329076 98.718716,71.786869 105.92833,61.022415 105.92344,49.078125 106.00135,32.916032 92.976013,19.743876 76.814063,19.640625 l 0,0 z m 16.708593,44.25 c -2.119937,2.262401 -4.675967,4.072191 -7.514062,5.320312 -2.89322,1.274614 -6.021277,1.929287 -9.182813,1.921875 C 67.593606,71.112898 59.26274,65.589724 55.65,57.09375 51.952348,48.492702 53.700641,38.518229 60.103125,31.6875 c 2.121496,-2.255745 4.678523,-4.057703 7.516406,-5.296875 2.89082,-1.282152 6.018073,-1.944807 9.180469,-1.945313 6.563225,0.01132 12.809091,2.82554 17.165625,7.734375 6.685335,8.499375 7.269965,20.295292 1.457813,29.414063 -0.582166,0.808738 -1.219628,1.576198 -1.907813,2.296875 l 0.007,0 z M 74.479687,73.125 C 60.685833,72.936937 49.602423,61.701386 49.602423,47.90625 c 0,-13.795136 11.08341,-25.030687 24.877264,-25.21875 5.786362,-0.0037 11.389465,2.029073 15.827344,5.742187 C 86.362154,25.620877 81.642657,24.105855 76.8,24.09375 c -3.210024,0.002 -6.384457,0.672438 -9.321094,1.96875 -11.89957,5.313378 -17.315011,19.20716 -12.15,31.171875 2.890999,6.899807 8.923991,11.988151 16.212555,13.673985 C 78.830026,72.594195 86.4846,70.671767 92.111719,65.742187 87.46428,70.471056 81.109985,73.131701 74.479687,73.125 l 0,0 z M 95.423438,41.695312 C 92.228634,34.179963 84.860733,29.293231 76.694531,29.273437 c -5.591972,0.01333 -10.932018,2.327346 -14.765625,6.398438 -1.82827,1.930238 -3.261415,4.199385 -4.21875,6.679687 -1.98994,5.096203 -1.893959,10.770885 0.267188,15.796875 3.254165,7.61352 10.795284,12.497702 19.073841,12.35362 8.278557,-0.144083 15.64515,-5.287723 18.632409,-13.00987 1.995221,-5.094732 1.901746,-10.770605 -0.260156,-15.796875 l 0,0 z M 84.698437,68.53125 c -2.515053,1.112769 -5.234929,1.68756 -7.985156,1.6875 C 68.687394,70.196318 61.446993,65.393353 58.305469,58.007812 53.873612,47.761198 58.514292,35.856391 68.711719,31.3125 c 2.514139,-1.113045 5.23331,-1.687855 7.982812,-1.6875 8.028887,0.01252 15.274251,4.818782 18.407813,12.210937 4.421185,10.246178 -0.215326,22.142968 -10.403907,26.695313 l 0,0 z m 9.375,-46.734375 C 88.881505,18.412886 82.816912,16.613135 76.619531,16.617187 l 0,0 C 67.794417,16.630397 59.36602,20.285331 53.325,26.71875 c -2.869876,3.046934 -5.123014,6.620436 -6.635156,10.523437 -3.140779,8.037097 -2.989213,16.98791 0.421875,24.914063 2.516622,5.886218 6.721963,10.894129 12.084375,14.390625 12.97358,8.464324 30.150506,6.399457 40.748437,-4.898438 2.870679,-3.046314 5.123919,-6.619982 6.635159,-10.523437 3.14535,-8.036274 2.99376,-16.988887 -0.42188,-24.914063 -2.51314,-5.89317 -6.716768,-10.909141 -12.079685,-14.414062 l -0.0047,0 z m -4.750781,56.929687 c -7.763177,3.408775 -16.569653,3.559242 -24.44475,0.417663 -7.875096,-3.141579 -14.159873,-9.312335 -17.445094,-17.1286 -7.031798,-16.263919 0.331466,-35.158018 16.514063,-42.375 3.991026,-1.76662 8.308116,-2.676825 12.672656,-2.671875 12.741355,0.03048 24.236909,7.65607 29.219529,19.382812 7.02524,16.263409 -0.33499,35.152402 -16.511716,42.375 l -0.0047,0 z M 110.90625,30.84375 C 107.0735,21.714395 99.736209,14.505853 90.540441,10.835301 81.344673,7.1647495 71.060298,7.3394868 61.994531,11.320313 43.10112,19.747896 34.503381,41.806508 42.710156,60.796875 c 3.832751,9.129355 11.170041,16.337897 20.365809,20.008449 9.195768,3.670551 19.480143,3.495814 28.54591,-0.485012 C 110.51015,71.88788 119.10753,49.83556 110.91094,30.84375 l -0.005,0 z m -7.42734,40.6875 C 94.976371,80.539041 82.501833,84.647015 70.310717,82.453825 58.1196,80.260634 47.858926,72.062578 43.028906,60.65625 37.13252,46.928647 39.922917,31.012436 50.1375,20.109375 c 3.389606,-3.597315 7.469204,-6.474874 11.995312,-8.460937 4.61563,-2.0455494 9.609222,-3.0995213 14.657813,-3.0937505 7.093572,0.00504 14.032501,2.0734465 19.971094,5.9531255 6.142551,3.997975 10.956261,9.73363 13.828121,16.476562 5.897,13.727149 3.10753,29.643303 -7.10625,40.546875 l -0.005,0 z m -83.99766,27.5625 0,6.32813 c -0.01027,0.61414 -0.513127,1.1055 -1.127344,1.10156 -0.29318,0.001 -0.574812,-0.11419 -0.782782,-0.32084 -0.20797,-0.20665 -0.325192,-0.48754 -0.325812,-0.78072 l 0,-2.95313 -13.8445307,0 0,2.95313 c -6.21e-4,0.29277 -0.117521,0.57331 -0.3249833,0.77989 -0.2074622,0.20658 -0.4884924,0.32229 -0.7812667,0.32167 -0.6142171,0.004 -1.1170765,-0.48742 -1.1273438,-1.10156 l 0,-6.32813 c -0.00655,-1.615426 1.2909259,-2.93383 2.90625,-2.953125 l 12.4992185,0 c 1.618078,0.01546 2.919802,1.334986 2.913281,2.953125 l -0.0047,0 z m -2.235938,1.125 0,-1.125 C 17.24159,98.722647 16.9437,98.421644 16.572656,98.414062 l -12.494531,0 c -0.3705229,0.0088 -0.667718,0.309094 -0.6726563,0.679688 l 0,1.125 13.8445313,0 -0.0047,0 z m 43.849219,2.41406 2.15625,2.17969 c 0.433533,0.4428 0.433533,1.15095 0,1.59375 -0.207811,0.21348 -0.493089,0.3339 -0.791015,0.3339 -0.297927,0 -0.583205,-0.12042 -0.791016,-0.3339 l -2.770313,-2.76562 c -0.619463,-0.56888 -1.415308,-0.90807 -2.254687,-0.96094 l -9.140625,0 0,2.92969 c 1e-6,0.29877 -0.118847,0.58527 -0.330333,0.79632 -0.211486,0.21105 -0.498236,0.3293 -0.797011,0.32868 -0.296882,3e-5 -0.581372,-0.11902 -0.789752,-0.33048 -0.20838,-0.21147 -0.323235,-0.49767 -0.318842,-0.79452 l 0,-8.10938 c -0.01045,-0.623044 0.48557,-1.13689 1.108594,-1.148438 l 14.278125,0 c 1.611391,0.0077 2.912489,1.318283 2.908594,2.929688 l 0,0.46875 c 0.0012,1.43656 -1.044115,2.65994 -2.463281,2.88281 l -0.0047,0 z m 0.234375,-3.35156 c -0.0037,-0.371103 -0.301612,-0.672106 -0.672656,-0.679688 l -13.150781,0 0,1.804688 13.150781,0 c 0.366203,0.003 0.666241,-0.29009 0.672656,-0.65625 l 0,-0.46875 0,0 z m 88.211714,-2.929688 c 1.61102,0.0078 2.91144,1.318663 2.90625,2.929688 l 0,4.52344 c 0.005,1.61102 -1.29523,2.92194 -2.90625,2.92969 l -12.50156,0 c -1.61101,-0.008 -2.91144,-1.31867 -2.90625,-2.92969 l 0,-4.52344 c -0.005,-1.611025 1.29524,-2.921938 2.90625,-2.929688 l 12.50156,0 z m -12.50156,8.132818 12.50156,0 c 0.37066,-0.008 0.66786,-0.30897 0.67032,-0.67969 l 0,-4.52344 c -0.0118,-0.366767 -0.30375,-0.662754 -0.67032,-0.679688 l -12.50156,0 c -0.36657,0.01693 -0.65847,0.312921 -0.67031,0.679688 l 0,4.52344 c 0.003,0.37341 0.30394,0.67586 0.67734,0.67969 l -0.007,0 z m -42.232029,-3.14063 c -0.0063,-0.30363 0.110362,-0.59693 0.323558,-0.81321 0.213197,-0.21629 0.504782,-0.33719 0.808474,-0.33523 l 9.021097,0 c 0.38244,-0.006 0.76136,0.0739 1.10859,0.23438 0.69502,0.28448 1.24078,0.84467 1.50703,1.54687 0.14261,0.35785 0.21502,0.73979 0.21328,1.125 l 0,0.53907 c 0.002,0.38521 -0.0707,0.76715 -0.21328,1.125 -0.14074,0.34668 -0.34413,0.66449 -0.6,0.9375 -0.25912,0.26104 -0.5674,0.46815 -0.90703,0.60937 -0.35078,0.14947 -0.72734,0.22908 -1.10859,0.23438 l -12.264848,0 c -0.609567,0.0102 -1.208401,-0.1611 -1.720312,-0.49219 -0.506059,-0.31532 -0.942975,-0.72991 -1.284375,-1.21875 -0.363509,-0.51309 -0.638414,-1.0835 -0.813281,-1.6875 -0.18302,-0.58422 -0.277814,-1.19248 -0.28125,-1.80469 0.0011,-0.62098 0.09993,-1.23791 0.292968,-1.828125 0.190448,-0.599382 0.481301,-1.162069 0.860157,-1.664063 0.369544,-0.493391 0.834146,-0.907787 1.366406,-1.21875 0.546338,-0.331466 1.175112,-0.502064 1.814062,-0.492187 l 13.734373,0 c 0.30537,-0.0038 0.59754,0.124316 0.80157,0.351562 0.21602,0.20822 0.33573,0.496888 0.33046,0.796875 0.006,0.303632 -0.11036,0.596927 -0.32355,0.813213 -0.2132,0.216287 -0.50479,0.337189 -0.80848,0.335225 l -13.216404,0 c -0.462758,-0.02485 -0.923198,0.08071 -1.328906,0.304687 -0.324769,0.169879 -0.600698,0.41999 -0.801562,0.726563 -0.198313,0.280684 -0.334906,0.6002 -0.400782,0.9375 -0.140647,0.61709 -0.140647,1.25791 0,1.875 0.06588,0.3373 0.202469,0.65682 0.400782,0.9375 0.200864,0.30657 0.476793,0.55668 0.801562,0.72656 0.405708,0.22398 0.866148,0.32954 1.328906,0.30469 l 11.425784,0 c 0.19813,-0.009 0.38282,-0.10258 0.50625,-0.25781 0.15396,-0.17453 0.2375,-0.4001 0.23437,-0.63281 0.002,-0.21981 -0.069,-0.43406 -0.20156,-0.60938 -0.12614,-0.16451 -0.32239,-0.26003 -0.52969,-0.25781 l -8.927341,0 c -0.30531,0.005 -0.599341,-0.11526 -0.814587,-0.33183 -0.215246,-0.21657 -0.333214,-0.51133 -0.326819,-0.81661 l -0.007,0 z m -93.635156,19.64063 3.3703125,-6.25782 1.1015625,0 3.4289063,6.25782 -1.1343751,0 -0.7875,-1.54688 -4.1742187,0 -0.7875,1.54688 -1.0171875,0 z m 2.2359375,-2.34375 3.3234375,0 -1.6640625,-3.1875 -1.659375,3.1875 z m 17.7093745,-3.04688 -4.366406,0 0,1.73438 3.888282,0 c 0.401067,-0.0484 0.805249,0.0609 1.127343,0.30468 0.242414,0.33971 0.350149,0.75729 0.302344,1.17188 l 0,0.70312 c 0.04751,0.40654 -0.05865,0.81616 -0.297656,1.14844 -0.319137,0.25471 -0.72615,0.37269 -1.132031,0.32813 l -3.602344,0 c -0.40951,0.0446 -0.820188,-0.0732 -1.14375,-0.32813 -0.244913,-0.32966 -0.353973,-0.74073 -0.304688,-1.14844 l 0,-0.1875 0.958594,-0.21093 0,0.98437 4.59375,0 0,-1.875 -3.876562,0 c -0.404886,0.0508 -0.81359,-0.0586 -1.139063,-0.30469 -0.238337,-0.34147 -0.34415,-0.75806 -0.297656,-1.17187 l 0,-0.53906 c -0.04751,-0.40655 0.05865,-0.81616 0.297656,-1.14844 0.321534,-0.25536 0.730956,-0.3733 1.139063,-0.32813 l 3.28125,0 c 0.403013,-0.036 0.80576,0.0719 1.136718,0.30469 0.240166,0.30516 0.351981,0.69189 0.311719,1.07813 l 0,0.11718 -0.88125,0.25782 0,-0.89063 0.0047,0 z m 11.25,0 0,5.39063 -1.03125,0 0,-5.39063 -2.8125,0 0,-0.86719 6.677344,0 0,0.86719 -2.83125,0 -0.0023,0 z m 9.349219,5.39063 0,-6.25782 4.973438,0 c 0.3568,-0.0322 0.712985,0.0679 1.000781,0.28125 0.22283,0.2593 0.333302,0.59662 0.307031,0.9375 l 0,1.38282 c 0.02627,0.34088 -0.0842,0.6782 -0.307031,0.9375 -0.287796,0.21334 -0.643981,0.31344 -1.000781,0.28125 l -0.904688,0 2.8125,2.4375 -1.530468,0 -2.510157,-2.4375 -1.816406,0 0,2.4375 -1.021875,0 -0.0023,0 z m 4.570313,-5.4375 -3.539063,0 0,2.17968 3.539063,0 c 0.186497,0.0213 0.374144,-0.0289 0.525,-0.14062 0.108554,-0.13981 0.158933,-0.31613 0.140625,-0.49219 l 0,-0.91406 c 0.01765,-0.17637 -0.03358,-0.35273 -0.142969,-0.49219 -0.151781,-0.11165 -0.340122,-0.16187 -0.527344,-0.14062 l 0.0047,0 z m 9.24375,0.65625 c -0.04413,-0.40665 0.06263,-0.81533 0.3,-1.14844 0.325117,-0.25546 0.737435,-0.37327 1.148437,-0.32813 l 4.265625,0 c 0.407306,-0.0443 0.815667,0.0736 1.136719,0.32813 0.239829,0.33195 0.346839,0.7416 0.3,1.14844 l 0,3.30468 c 0.04684,0.40684 -0.06017,0.81649 -0.3,1.14844 -0.321052,0.25453 -0.729413,0.37241 -1.136719,0.32813 l -4.265625,0 c -0.411002,0.0451 -0.82332,-0.0727 -1.148437,-0.32813 -0.237368,-0.33311 -0.344127,-0.74179 -0.3,-1.14844 l 0,-3.30468 0,0 z m 1.026562,3.89062 5.109375,0 0,-4.5 -5.109375,0 0,4.5 z m 14.036719,0.89063 0,-6.25782 0.646875,0 4.619531,4.17188 c 0.119644,0.10937 0.231626,0.22683 0.335156,0.35156 0.119532,0.14063 0.234375,0.28125 0.365625,0.44531 -0.03281,-0.21093 -0.05625,-0.42187 -0.07031,-0.63281 -0.01641,-0.21094 -0.02344,-0.51562 -0.02344,-0.91406 l 0,-3.42188 0.9375,0 0,6.25782 -0.576562,0 -4.741406,-4.35938 c -0.04163,-0.0231 -0.07764,-0.0551 -0.105469,-0.0937 -0.206294,-0.17195 -0.3815,-0.37807 -0.517969,-0.60937 0.02109,0.1875 0.03984,0.39843 0.05156,0.60937 0.01172,0.21094 0.01641,0.46875 0.01641,0.77344 l 0,3.67969 -0.9375,0 0,0 z m 13.59375,0 3.367969,-6.25782 1.103906,0 3.426562,6.25782 -1.132031,0 -0.789844,-1.54688 -4.174218,0 -0.7875,1.54688 -1.014844,0 z m 2.235938,-2.34375 3.321093,0 -1.664062,-3.1875 -1.657031,3.1875 z m 12.991406,-3.91407 0,5.36719 4.495316,0 0,-5.36719 1.01484,0 0,4.78125 c 0.0492,0.407 -0.058,0.81749 -0.3,1.14844 -0.32105,0.25453 -0.72941,0.37241 -1.13672,0.32813 l -3.658592,0 c -0.410224,0.0445 -0.82158,-0.0733 -1.146094,-0.32813 -0.239414,-0.33221 -0.347139,-0.7414 -0.302344,-1.14844 l 0,-4.78125 1.033594,0 0,0 z m 15.897656,0.86719 0,5.39063 -1.02656,0 0,-5.39063 -2.8125,0 0,-0.86719 6.67969,0 0,0.86719 -2.84063,0 0,0 z m 9.63984,5.39063 -0.95156,0 0,-6.25782 0.95156,0 0,6.25782 z m 12.75703,-5.39063 -4.27734,0 0,4.5 4.27734,0 0,-1.54687 1.0336,0.21093 0,0.75 c 0.0475,0.40654 -0.0587,0.81616 -0.29766,1.14844 -0.32045,0.25568 -0.7293,0.3737 -1.13672,0.32813 l -3.45703,0 c -0.40951,0.0446 -0.82019,-0.0732 -1.14375,-0.32813 -0.24491,-0.32966 -0.35397,-0.74073 -0.30469,-1.14844 l 0,-3.30468 c -0.0493,-0.40771 0.0598,-0.81879 0.30469,-1.14844 0.32356,-0.25495 0.73424,-0.37277 1.14375,-0.32813 l 3.45703,0 c 0.40332,-0.0396 0.8073,0.0686 1.13672,0.30469 0.236,0.34254 0.34158,0.75824 0.29766,1.17188 l 0,0.58593 -1.0336,0.21094 0,-1.40625 0,0 z m 13.79297,0 -4.36875,0 0,1.73438 3.88828,0 c 0.40113,-0.0491 0.80559,0.0602 1.12735,0.30468 0.24344,0.33929 0.35204,0.75698 0.30469,1.17188 l 0,0.70312 c 0.0468,0.40684 -0.0602,0.81649 -0.3,1.14844 -0.31878,0.25541 -0.72609,0.37347 -1.13204,0.32813 l -3.6,0 c -0.40951,0.0446 -0.82018,-0.0732 -1.14375,-0.32813 -0.24299,-0.33051 -0.35109,-0.74112 -0.30234,-1.14844 l 0,-0.1875 0.95625,-0.21093 0,0.98437 4.59375,0 0,-1.875 -3.86953,0 c -0.40492,0.0513 -0.81381,-0.0581 -1.13906,-0.30469 -0.23954,-0.34092 -0.34547,-0.75797 -0.29766,-1.17187 l 0,-0.53906 c -0.0475,-0.40655 0.0587,-0.81616 0.29766,-1.14844 0.32141,-0.25559 0.73093,-0.37356 1.13906,-0.32813 l 3.28125,0 c 0.40229,-0.0361 0.80431,0.0719 1.13437,0.30469 0.241,0.30481 0.35367,0.69157 0.31407,1.07813 l 0,0.11718 -0.88125,0.25782 0,-0.89063 -0.002,0 z m 0.95157,-4.45312 -151.282035,0 0,-1.40625 151.282035,0 0,1.40625 0,0 z"
         inkscape:connector-curvature="0" />
    </g>
  </g>
</svg>
