<?xml version="1.0" encoding="UTF-8" standalone="no"?>
<svg
   xmlns:dc="http://purl.org/dc/elements/1.1/"
   xmlns:cc="http://creativecommons.org/ns#"
   xmlns:rdf="http://www.w3.org/1999/02/22-rdf-syntax-ns#"
   xmlns:svg="http://www.w3.org/2000/svg"
   xmlns="http://www.w3.org/2000/svg"
   xmlns:sodipodi="http://sodipodi.sourceforge.net/DTD/sodipodi-0.dtd"
   xmlns:inkscape="http://www.inkscape.org/namespaces/inkscape"
   version="1.1"
   id="Calque_1"
   x="0px"
   y="0px"
   viewBox="0 0 314.667 171.925"
   style="enable-background:new 0 0 314.667 171.925;"
   xml:space="preserve"
   inkscape:version="0.91 r13725"
   sodipodi:docname="consolidated_outland.svg"><metadata
     id="metadata9798"><rdf:RDF><cc:Work
         rdf:about=""><dc:format>image/svg+xml</dc:format><dc:type
           rdf:resource="http://purl.org/dc/dcmitype/StillImage" /><dc:title></dc:title></cc:Work></rdf:RDF></metadata><defs
     id="defs9796" /><sodipodi:namedview
     pagecolor="#ffffff"
     bordercolor="#666666"
     borderopacity="1"
     objecttolerance="10"
     gridtolerance="10"
     guidetolerance="10"
     inkscape:pageopacity="0"
     inkscape:pageshadow="2"
     inkscape:window-width="731"
     inkscape:window-height="480"
     id="namedview9794"
     showgrid="false"
     inkscape:zoom="0.87076181"
     inkscape:cx="157.3335"
     inkscape:cy="85.962502"
     inkscape:window-x="0"
     inkscape:window-y="99"
     inkscape:window-maximized="0"
     inkscape:current-layer="Calque_1" /><g
     id="g9746"><path
       d="M140.46,119.315L140.46,119.315v13.089c0,4.531,7.3,4.531,7.803,4.531h15.607v-4.279h-13.845 c-0.252,0-0.503,0-0.755-0.252c-0.252-0.252-0.503-0.503-0.503-0.755v-12.586h-8.307V119.315z"
       id="path9748" /><polygon
       points="174.19,136.936 174.19,136.936 174.19,119.315 165.884,119.315 165.884,136.936  "
       id="polygon9750" /><path
       d="M63.434,136.684v-11.327l4.028,7.552c0,0.252,1.007,4.028,7.552,4.028s6.545-3.776,6.545-4.028v-13.845h-7.803 v11.579l-4.028-7.552c0-0.252-1.007-4.028-7.552-4.028s-6.545,3.776-6.545,4.028v13.845h7.803V136.684z"
       id="path9752" /><path
       d="M98.423,132.657H85.333v4.279h15.607c7.048,0,7.048-3.272,7.048-3.272v-4.279c0-3.021-4.531-3.272-4.783-3.272 h-9.314c-0.503,0-1.007-0.252-1.007-1.259c0-0.252,0-0.503,0.252-0.755c0.252-0.252,0.503-0.252,0.755-0.252h14.096v-4.279H91.374 c-6.041,0-6.545,3.524-6.545,3.776v3.776c0,3.776,5.034,3.776,5.286,3.776h8.055c1.007,0,1.762,0,1.762,1.259 C99.933,133.412,98.423,132.657,98.423,132.657z"
       id="path9754" /><polygon
       points="220.759,119.315 220.759,119.315 221.01,119.315  "
       id="polygon9756" /><path
       d="M6.293,136.936H23.41v-4.279H9.314c-1.51,0-1.259-0.755-1.259-1.007v-7.3c0,0-0.252-1.007,1.259-1.007H23.41 v-4.279H6.293c-0.252,0-6.293,0.252-6.293,4.028v9.817C0,136.684,6.041,136.936,6.293,136.936z"
       id="path9758" /><polygon
       points="243.917,136.936 243.917,136.936 251.972,136.936 251.972,123.595 259.524,123.595 259.524,119.315  236.365,119.315 236.365,123.595 243.917,123.595  "
       id="polygon9760" /><path
       d="M314.65,123.595c0-0.252,0.503-4.279-8.055-4.279h-18.124v17.872h18.124c8.81,0,8.055-4.028,8.055-4.279 V123.595z M306.595,131.146c0,1.007-1.007,1.51-1.762,1.51h-8.055v-9.062h8.055c1.007,0,1.762,0.503,1.762,1.51V131.146z"
       id="path9762" /><path
       d="M177.966,136.936h18.124c8.81,0,8.055-4.028,8.055-4.279v-9.062c0-0.252,0.503-4.279-8.055-4.279h-18.124 V136.936z M186.021,123.595h8.055c1.007,0,1.762,0.503,1.762,1.51v6.041l0,0c0,1.007-1.007,1.51-1.762,1.51h-8.055V123.595z"
       id="path9764" /><path
       d="M214.717,122.336l-9.565,14.6h8.307l2.265-3.776h10.572l2.265,3.776h8.307l-9.565-14.6 c0-0.252-1.259-3.021-6.293-3.021C215.976,119.315,214.717,122.084,214.717,122.336z M221.01,124.853l2.517,4.531h-5.034 L221.01,124.853z"
       id="path9766" /><path
       d="M314.65,150.277c0-0.252,1.007-6.796-12.838-6.796h-28.696v28.193h28.696c13.845,0,12.838-6.545,12.838-6.796 V150.277z M301.813,162.36c-0.252,1.51-1.51,2.517-3.021,2.517h-12.838v-14.6h12.838c1.51-0.252,2.769,1.007,3.021,2.517V162.36z"
       id="path9768" /><path
       d="M147.256,164.625c-0.503-0.252-0.503-0.755-0.755-1.259l0,0v-20.138H133.16v20.893 c0,6.796,9.314,7.3,11.831,7.3h25.424v-6.796h-21.9C148.263,164.877,147.76,164.877,147.256,164.625z"
       id="path9770" /><path
       d="M196.845,142.977L196.845,142.977L196.845,142.977z"
       id="path9772" /><path
       d="M136.936,133.16v-9.817c0-0.252-1.259-4.028-7.048-4.028H118.56c-6.041,0-7.048,3.776-7.048,4.028v9.817 c0,0.252,1.259,4.028,7.048,4.028h11.327C135.677,136.936,136.936,133.16,136.936,133.16z M128.881,131.398 c0,0.755-0.755,1.259-1.51,1.259h-6.293c-0.755,0-1.51-0.503-1.51-1.259v-6.796c0-0.755,0.755-1.259,1.51-1.259h6.293 c0.755,0,1.51,0.503,1.51,1.259V131.398z"
       id="path9774" /><path
       d="M285.199,132.657H272.11c-2.266,0-2.266-1.51-2.266-1.51v-1.007h15.355v-4.279h-15.355v-1.007 c0,0,0-1.51,2.266-1.51h13.089v-4.279h-16.865c-0.252,0-6.545,0.252-6.545,4.531v8.558c0,4.279,6.293,4.531,6.545,4.531h16.865 V132.657z"
       id="path9776" /><path
       d="M29.451,143.481H11.579c-9.314,0-11.327,6.041-11.327,6.293v15.607c0,0.252,2.014,6.293,11.327,6.293h17.872 c9.314,0,11.327-6.041,11.327-6.293v-15.607C40.779,149.27,38.765,143.481,29.451,143.481z M27.941,162.863 c-0.252,1.259-1.259,2.014-2.517,2.014h-9.817c-1.259,0.252-2.265-0.755-2.517-2.014v-10.824c0.252-1.259,1.259-2.014,2.517-2.014 h9.817c1.259-0.252,2.265,0.755,2.517,2.014V162.863z"
       id="path9778" /><path
       d="M196.845,142.977c-8.055,0-10.069,4.783-10.069,5.034l-15.607,23.913h13.593l3.524-6.041h17.117l3.524,6.041 h13.593l-15.607-23.913C206.662,147.76,204.9,142.977,196.845,142.977z M192.818,159.339l4.028-7.552l4.028,7.552H192.818z"
       id="path9780" /><path
       d="M52.106,133.16v-9.817c0-0.252-1.259-4.028-7.048-4.028H33.731c-6.041,0-7.048,3.776-7.048,4.028v9.817 c0,0.252,1.259,4.028,7.048,4.028h11.327C50.847,136.936,52.106,133.16,52.106,133.16z M44.051,131.398 c0,0.755-0.755,1.259-1.51,1.259h-6.293c-0.755,0-1.51-0.503-1.51-1.259v-6.796c0-0.755,0.755-1.259,1.51-1.259h6.293 c0.755,0,1.51,0.503,1.51,1.259V131.398z"
       id="path9782" /><path
       d="M253.986,161.856l-6.545-12.334c0-0.252-2.014-6.293-12.083-6.293c-10.572,0-10.572,6.041-10.572,6.293v22.151 h12.586v-18.627l6.545,12.334c0.252,0.252,2.769,6.293,12.083,6.293c10.572,0,10.572-6.041,10.572-6.293v-22.151h-12.586V161.856z"
       id="path9784" /><path
       d="M76.271,163.115L76.271,163.115c-0.252,1.259-1.51,2.014-2.769,1.762H62.678 c-1.259,0.252-2.517-0.503-2.769-1.762v-20.138H47.072v21.648c0,6.796,11.076,7.048,11.831,7.048h18.376 c0.503,0,11.831-0.252,11.831-7.048v-21.648H76.523v20.138H76.271z"
       id="path9786" /><polygon
       points="92.633,150.277 104.716,150.277 104.716,171.673 117.553,171.673 117.553,150.277 129.384,150.277  129.384,143.481 92.633,143.481  "
       id="polygon9788" /><path
       d="M88.606,78.285c3.021,1.762,6.293,3.021,9.565,4.279c13.089,5.538,27.186,9.062,40.779,13.089 c5.286,1.51,10.824,3.272,16.11,4.783c0-1.007,0-1.762,0-2.769c0-1.51,0.252-1.762-1.007-2.517 c0.252,0.252,0.755,0.252,1.007,0.503c-9.062-5.286-17.872-10.824-26.934-16.11c-3.021-1.762-11.831-5.034-11.076-10.069 c0.503-2.769,2.769-5.538,4.279-8.055c2.265-3.524,4.279-7.048,6.545-10.572c5.286-8.307,10.572-16.362,15.858-24.669 c3.021-4.531,5.79-9.062,8.81-13.593c0.755-1.007,1.762-2.265,2.265-3.524c0.252-0.755,0-1.762,0-2.517c0-2.265,0-4.279,0-6.545 c-14.6,11.579-28.696,23.41-42.541,35.996c-8.558,7.803-17.369,15.858-25.172,24.165c-2.265,2.265-6.545,6.041-5.79,9.565 C81.306,74.258,85.585,76.775,88.606,78.285z"
       id="path9790" /><path
       d="M190.552,77.782c-2.517,1.51-5.034,3.021-7.552,4.531c-6.041,3.524-12.083,7.3-18.124,10.824 c-1.259,0.755-3.776,1.762-4.783,2.769c-0.755,1.007-0.252,3.524-0.252,4.783l0,0c7.803-2.265,15.607-4.531,23.41-6.796 c10.321-3.021,20.893-6.041,30.962-10.069c5.79-2.265,13.089-4.531,17.369-9.062c4.279-4.531,0.503-8.81-2.769-12.586 c-6.796-7.552-14.348-14.348-21.648-21.145c-15.355-13.845-30.962-27.186-47.323-40.275c0,1.762,0,3.776,0,5.538 c0,1.259-0.252,2.769,0.252,3.776c0.755,2.265,2.769,4.279,4.028,6.293c5.538,8.558,11.076,16.865,16.614,25.424 c4.531,7.048,9.314,14.096,13.593,21.145c1.51,2.517,4.531,6.041,3.272,8.81C196.594,74.761,193.07,76.271,190.552,77.782z"
       id="path9792" /></g></svg>