<?xml version="1.0" encoding="UTF-8" standalone="no"?>
<!-- Created with Inkscape (http://www.inkscape.org/) -->

<svg
   xmlns:dc="http://purl.org/dc/elements/1.1/"
   xmlns:cc="http://creativecommons.org/ns#"
   xmlns:rdf="http://www.w3.org/1999/02/22-rdf-syntax-ns#"
   xmlns:svg="http://www.w3.org/2000/svg"
   xmlns="http://www.w3.org/2000/svg"
   xmlns:sodipodi="http://sodipodi.sourceforge.net/DTD/sodipodi-0.dtd"
   xmlns:inkscape="http://www.inkscape.org/namespaces/inkscape"
   id="svg2"
   version="1.1"
   inkscape:version="0.91 r13725"
   xml:space="preserve"
   width="341.3125"
   height="435.46204"
   viewBox="0 0 341.3125 435.46203"
   sodipodi:docname="CrusaderIndustries2.svg"><metadata
     id="metadata8"><rdf:RDF><cc:Work
         rdf:about=""><dc:format>image/svg+xml</dc:format><dc:type
           rdf:resource="http://purl.org/dc/dcmitype/StillImage" /><dc:title></dc:title></cc:Work></rdf:RDF></metadata><defs
     id="defs6" /><sodipodi:namedview
     pagecolor="#ffffff"
     bordercolor="#666666"
     borderopacity="1"
     objecttolerance="10"
     gridtolerance="10"
     guidetolerance="10"
     inkscape:pageopacity="0"
     inkscape:pageshadow="2"
     inkscape:window-width="1158"
     inkscape:window-height="695"
     id="namedview4"
     showgrid="false"
     inkscape:zoom="0.42946184"
     inkscape:cx="-203.07292"
     inkscape:cy="217.7358"
     inkscape:window-x="289"
     inkscape:window-y="213"
     inkscape:window-maximized="0"
     inkscape:current-layer="g10"
     fit-margin-top="0"
     fit-margin-left="0"
     fit-margin-right="0"
     fit-margin-bottom="0" /><g
     id="g10"
     inkscape:groupmode="layer"
     inkscape:label="CrusaderIndustries"
     transform="matrix(1.25,0,0,-1.25,-41.89,492.48875)"><g
       id="g12"><path
         d="m 33.512,60.936 2.562,0 0,-15.066 -2.562,0 0,15.066 z"
         style="fill:#000000;fill-opacity:1;fill-rule:nonzero;stroke:none"
         id="path14"
         inkscape:connector-curvature="0" /><path
         d="m 67.629,45.87 -9.488,10.762 0,-10.762 -2.567,0 0,15.066 1.949,0 9.399,-10.695 0,10.695 2.551,0 0,-15.066 -1.844,0 z"
         style="fill:#000000;fill-opacity:1;fill-rule:nonzero;stroke:none"
         id="path16"
         inkscape:connector-curvature="0" /><path
         d="m 88.922,45.87 0,15.066 4.828,0 c 3,0 5.25,-0.621 6.75,-1.867 1.5,-1.246 2.273,-3.07 2.316,-5.472 0.063,-2.145 -0.863,-4.2 -2.504,-5.582 -1.671,-1.43 -3.949,-2.145 -6.832,-2.145 l -4.558,0 z m 2.578,12.996 0,-10.918 1.891,0 c 0.5,0 1.004,0.035 1.5,0.106 0.472,0.062 0.941,0.16 1.402,0.293 0.418,0.117 0.828,0.265 1.223,0.449 0.347,0.16 0.683,0.355 0.996,0.578 0.543,0.492 0.972,1.101 1.261,1.777 0.325,0.766 0.485,1.59 0.473,2.422 0,3.531 -2.23,5.293 -6.684,5.293 l -2.062,0 z"
         style="fill:#000000;fill-opacity:1;fill-rule:nonzero;stroke:none"
         id="path18"
         inkscape:connector-curvature="0" /><path
         d="m 134.879,52.018 c 0,-4.253 -2.191,-6.382 -6.578,-6.382 -4.203,0 -6.305,2.058 -6.305,6.168 l 0,9.132 2.563,0 0,-9 c 0,-2.82 1.32,-4.23 3.953,-4.23 2.547,0 3.816,1.367 3.816,4.098 l 0,9.132 2.551,0 0,-8.918 z"
         style="fill:#000000;fill-opacity:1;fill-rule:nonzero;stroke:none"
         id="path20"
         inkscape:connector-curvature="0" /><path
         d="m 158.527,45.651 c -0.793,0.028 -1.578,0.176 -2.324,0.446 -0.797,0.289 -1.551,0.675 -2.25,1.152 l 1.606,1.68 c 0.523,-0.372 1.089,-0.68 1.687,-0.922 0.477,-0.184 0.984,-0.285 1.5,-0.293 0.836,-0.059 1.672,0.117 2.414,0.504 0.52,0.297 0.836,0.851 0.824,1.449 0.008,0.254 -0.039,0.512 -0.132,0.75 -0.082,0.211 -0.2,0.402 -0.356,0.566 -0.324,0.258 -0.672,0.489 -1.035,0.692 -0.465,0.281 -1.035,0.586 -1.715,0.914 -1.258,0.547 -2.41,1.308 -3.406,2.25 -1.352,1.617 -0.977,4.058 0.801,5.191 0.55,0.399 1.164,0.695 1.816,0.887 0.731,0.207 1.488,0.312 2.25,0.305 0.801,-0.024 1.59,-0.176 2.34,-0.45 0.808,-0.289 1.574,-0.675 2.289,-1.156 L 163.23,57.87 c -0.527,0.375 -1.101,0.684 -1.703,0.914 -0.476,0.195 -0.984,0.301 -1.5,0.309 -0.773,0.043 -1.539,-0.161 -2.191,-0.578 -0.215,-0.168 -0.402,-0.372 -0.547,-0.606 -0.133,-0.227 -0.203,-0.488 -0.203,-0.75 -0.004,-0.258 0.043,-0.512 0.129,-0.75 0.086,-0.207 0.203,-0.394 0.351,-0.555 0.145,-0.117 0.297,-0.226 0.45,-0.324 l 0.66,-0.398 0.789,-0.442 0.863,-0.441 c 0.348,-0.176 0.692,-0.359 1.027,-0.551 0.336,-0.187 0.641,-0.379 0.922,-0.566 0.258,-0.168 0.508,-0.344 0.75,-0.535 0.2,-0.145 0.387,-0.305 0.563,-0.481 0.601,-0.617 0.933,-1.453 0.914,-2.316 0.008,-0.586 -0.137,-1.164 -0.41,-1.68 -0.282,-0.527 -0.672,-0.984 -1.149,-1.344 -0.558,-0.406 -1.195,-0.703 -1.867,-0.867 -0.84,-0.211 -1.703,-0.305 -2.566,-0.285 l 0.015,0.027 z"
         style="fill:#000000;fill-opacity:1;fill-rule:nonzero;stroke:none"
         id="path22"
         inkscape:connector-curvature="0" /><path
         d="m 190.824,58.866 0,-12.996 -2.574,0 0,12.996 -4.777,0 0,2.07 12.082,0 0,-2.07 -4.731,0 z"
         style="fill:#000000;fill-opacity:1;fill-rule:nonzero;stroke:none"
         id="path24"
         inkscape:connector-curvature="0" /><path
         d="m 223.238,45.87 -4.172,6.187 -2.039,0 0,-6.187 -2.527,0 0,15.066 5.25,0 c 1.41,0.079 2.805,-0.332 3.953,-1.152 0.457,-0.359 0.824,-0.82 1.07,-1.344 0.25,-0.535 0.375,-1.121 0.364,-1.711 0.004,-0.543 -0.098,-1.078 -0.301,-1.582 -0.199,-0.492 -0.5,-0.937 -0.887,-1.304 -0.316,-0.293 -0.668,-0.543 -1.051,-0.75 -0.41,-0.219 -0.847,-0.395 -1.296,-0.52 0.035,-0.039 0.066,-0.086 0.089,-0.133 l 0.098,-0.129 0.098,-0.148 0.097,-0.152 0.414,-0.629 0.434,-0.637 0.164,-0.254 c 0.066,-0.086 0.129,-0.172 0.188,-0.262 l 0.75,-1.132 0.804,-1.165 0.321,-0.503 0.355,-0.493 0.164,-0.242 0.203,-0.308 0.188,-0.282 c 0.043,-0.074 0.093,-0.144 0.148,-0.211 l -2.902,0 0.023,-0.023 z m -6.203,12.988 0,-4.738 2.137,0 c 0.48,-0.004 0.957,0.055 1.418,0.18 0.394,0.105 0.769,0.269 1.109,0.496 0.258,0.226 0.469,0.5 0.617,0.808 0.164,0.325 0.25,0.688 0.246,1.051 0.028,0.649 -0.281,1.262 -0.808,1.637 -0.707,0.437 -1.531,0.64 -2.356,0.582 l -2.363,0 0,-0.016 z"
         style="fill:#000000;fill-opacity:1;fill-rule:nonzero;stroke:none"
         id="path26"
         inkscape:connector-curvature="0" /><path
         d="m 245.25,60.936 2.586,0 0,-15.066 -2.586,0 0,15.066 z"
         style="fill:#000000;fill-opacity:1;fill-rule:nonzero;stroke:none"
         id="path28"
         inkscape:connector-curvature="0" /><path
         d="m 267.324,45.87 0,15.066 9.141,0 0,-2.07 -6.578,0 0,-4.371 6.113,0 0,-2.055 -6.121,0 0,-4.5 6.969,0 0,-2.07 -9.524,0 z"
         style="fill:#000000;fill-opacity:1;fill-rule:nonzero;stroke:none"
         id="path30"
         inkscape:connector-curvature="0" /><path
         d="m 300.254,45.651 c -0.793,0.028 -1.578,0.176 -2.324,0.446 -0.793,0.289 -1.551,0.675 -2.25,1.152 l 1.605,1.68 c 0.524,-0.372 1.09,-0.68 1.688,-0.922 0.48,-0.184 0.988,-0.285 1.5,-0.293 0.836,-0.059 1.672,0.117 2.414,0.504 0.519,0.297 0.836,0.851 0.824,1.449 0.008,0.254 -0.035,0.512 -0.133,0.75 -0.078,0.211 -0.199,0.402 -0.351,0.566 -0.329,0.258 -0.676,0.489 -1.036,0.692 -0.464,0.281 -1.039,0.586 -1.718,0.914 -1.258,0.547 -2.411,1.308 -3.407,2.25 -1.351,1.617 -0.976,4.058 0.805,5.191 0.547,0.399 1.164,0.695 1.813,0.887 0.734,0.207 1.492,0.312 2.25,0.305 0.8,-0.024 1.589,-0.176 2.339,-0.45 0.809,-0.289 1.579,-0.675 2.289,-1.156 l -1.605,-1.746 c -0.527,0.375 -1.098,0.684 -1.703,0.914 -0.477,0.195 -0.984,0.301 -1.5,0.309 -0.774,0.043 -1.539,-0.161 -2.188,-0.578 -0.218,-0.168 -0.406,-0.372 -0.55,-0.606 -0.133,-0.227 -0.204,-0.488 -0.2,-0.75 -0.004,-0.258 0.039,-0.512 0.125,-0.75 0.086,-0.207 0.204,-0.394 0.356,-0.555 0.141,-0.117 0.293,-0.226 0.449,-0.324 l 0.66,-0.398 0.785,-0.442 0.864,-0.441 c 0.351,-0.176 0.691,-0.359 1.027,-0.551 0.336,-0.187 0.645,-0.379 0.922,-0.566 0.262,-0.168 0.512,-0.344 0.75,-0.535 0.199,-0.145 0.391,-0.305 0.562,-0.481 0.606,-0.617 0.934,-1.453 0.918,-2.316 0.004,-0.586 -0.136,-1.164 -0.414,-1.68 -0.281,-0.527 -0.672,-0.984 -1.148,-1.344 -0.559,-0.406 -1.195,-0.703 -1.867,-0.867 -0.84,-0.211 -1.7,-0.305 -2.567,-0.285 l 0.016,0.027 z"
         style="fill:#000000;fill-opacity:1;fill-rule:nonzero;stroke:none"
         id="path32"
         inkscape:connector-curvature="0" /><path
         d="m 61.996,130.761 0,10.359 c 0,8.797 -4.195,19.453 -13.449,19.453 -10.141,0 -13.965,-10.656 -13.965,-19.453 l 0,-50.199 c 0,-8.676 3.824,-19.332 13.965,-19.332 9.262,0 13.449,10.656 13.449,19.453 l 0,10.41 -9.262,0 0,-10.402 c 0,-2.602 -1.546,-7.067 -4.195,-7.067 -3.23,0 -4.625,4.465 -4.625,7.067 l 0,50.07 c 0,2.602 1.395,7.066 4.625,7.066 2.649,0 4.195,-4.464 4.195,-7.066 l 0,-10.359 9.262,0 z"
         style="fill:#000000;fill-opacity:1;fill-rule:nonzero;stroke:none"
         id="path34"
         inkscape:connector-curvature="0" /><path
         d="m 99.898,72.706 -9.695,37.055 c 4.41,3.75 7.719,12 7.719,24.918 0,13.882 -4.195,24.785 -13.008,24.785 l -15.367,0 0,-86.758 9.113,0 0,34.949 2.942,0 8.742,-34.949 9.554,0 z m -21.238,74.363 5.953,0 c 3.602,0 4.563,-5.453 4.563,-12.398 0,-12.645 -1.621,-13.883 -7.567,-13.883 l -2.941,0 -0.008,26.281 z"
         style="fill:#000000;fill-opacity:1;fill-rule:nonzero;stroke:none"
         id="path36"
         inkscape:connector-curvature="0" /><path
         d="m 123.66,159.464 0,-68.414 c 0,-2.602 -1.5,-7.067 -4.117,-7.067 -3.234,0 -4.629,4.465 -4.629,7.067 l 0,68.414 -9.164,0 0,-68.535 c 0,-8.797 3.75,-19.332 13.816,-19.332 9.188,0 13.305,10.5 13.305,19.332 l 0,68.535 -9.211,0 z"
         style="fill:#000000;fill-opacity:1;fill-rule:nonzero;stroke:none"
         id="path38"
         inkscape:connector-curvature="0" /><path
         d="m 167.129,135.171 0,6.078 c 0,11.527 -5.512,19.332 -13.305,19.332 -7.793,0 -13.445,-7.559 -13.445,-19.332 0,-11.895 2.055,-14.625 6.906,-24.293 l 7.641,-13.262 c 1.988,-3.605 3.019,-7.656 3,-11.773 0,-5.086 -1.836,-7.938 -4.117,-7.938 -2.278,0 -4.118,2.606 -4.118,7.938 l 0,8.054 -9.238,0 0,-9.046 c 0,-12.395 5.953,-19.454 13.371,-19.454 7.418,0 13.598,6.938 13.598,19.454 0,10.293 -2.25,15 -5.953,22.058 l -9.219,17.723 c -1.809,3.254 -2.699,6.937 -2.574,10.656 0,3.969 1.765,6.82 4.121,6.82 2.203,0 4.117,-3.347 4.117,-9.421 l 0,-3.594 9.215,0 z"
         style="fill:#000000;fill-opacity:1;fill-rule:nonzero;stroke:none"
         id="path40"
         inkscape:connector-curvature="0" /><path
         d="m 192.977,72.706 9.187,0 -10.586,86.758 -9.187,0 -10.582,-86.758 8.671,0 1.77,20.203 8.895,0 1.839,-20.203 -0.007,0 z m -9.227,32.723 2.863,31.109 0.219,0 2.789,-31.109 -5.871,0 z"
         style="fill:#000000;fill-opacity:1;fill-rule:nonzero;stroke:none"
         id="path42"
         inkscape:connector-curvature="0" /><path
         d="m 236.301,145.089 c -1.176,8.301 -5.512,14.375 -10.731,14.375 l -16.613,0 0,-86.758 16.613,0 c 7.934,0 11.469,11.527 11.469,24.785 l 0,37.188 c -0.023,3.48 -0.273,6.961 -0.75,10.41 l 0.012,0 z m -18.149,-60 0,61.98 5.512,0 c 3.676,0 4.629,-5.453 4.629,-12.398 l 0,-37.188 c 0,-6.937 -0.953,-12.394 -4.629,-12.394 l -5.512,0 z"
         style="fill:#000000;fill-opacity:1;fill-rule:nonzero;stroke:none"
         id="path44"
         inkscape:connector-curvature="0" /><path
         d="m 267.336,147.069 0,12.395 -22.199,0 0,-86.758 23.25,0 0,12.398 -14.063,0 0,28.266 9.332,0 0,12.383 -9.332,0 0,21.316 13.012,0 z"
         style="fill:#000000;fill-opacity:1;fill-rule:nonzero;stroke:none"
         id="path46"
         inkscape:connector-curvature="0" /><path
         d="m 305.496,72.706 -9.695,37.055 c 4.41,3.75 7.715,12 7.715,24.918 0,13.882 -4.192,24.785 -13.004,24.785 l -15.367,0 0,-86.758 9.105,0 0,34.949 2.941,0 8.743,-34.949 9.562,0 z m -21.246,74.363 6,0 c 3.602,0 4.559,-5.453 4.559,-12.398 0,-12.645 -1.618,-13.883 -7.567,-13.883 l -2.992,0 0,26.281 z"
         style="fill:#000000;fill-opacity:1;fill-rule:nonzero;stroke:none"
         id="path48"
         inkscape:connector-curvature="0" /><path
         d="m 170.031,393.991 c -42.433,0 -80.691,-25.562 -96.929,-64.769 -16.239,-39.204 -7.262,-84.332 22.742,-114.336 30.008,-30.008 75.133,-38.985 114.34,-22.746 39.203,16.242 64.765,54.496 64.765,96.933 0,57.945 -46.972,104.918 -104.918,104.918 z m 76.36,-44.777 c 1.187,0.918 2.562,-0.867 1.371,-1.785 L 185.137,299.37 c -1.188,-0.914 -2.563,0.871 -1.371,1.785 l 62.625,48.059 z m -6,-42 c 0.941,0.218 1.312,-1.164 0.39,-1.446 l -40.23,-10.734 c -0.942,-0.219 -1.317,1.164 -0.391,1.449 l 40.231,10.731 z m -35.641,-0.832 24.059,11.25 c 0.898,0.402 1.519,-0.922 0.64,-1.356 l -24.062,-11.25 c -0.895,-0.402 -1.516,0.922 -0.637,1.356 z m 13.5,38.16 c 0.305,-0.281 0.324,-0.754 0.047,-1.059 l -28.113,-30.672 c -0.676,-0.648 -1.688,0.282 -1.102,1.012 l 28.109,30.676 c 0.282,0.301 0.754,0.324 1.059,0.043 z m -16.266,3.812 c 0.364,-0.195 0.504,-0.648 0.313,-1.015 l -12.254,-23.543 c -0.172,-0.399 -0.648,-0.567 -1.035,-0.367 -0.387,0.203 -0.52,0.687 -0.293,1.058 l 12.254,23.543 c 0.191,0.363 0.64,0.508 1.008,0.324 l 0.007,0 z M 183,335.526 l 14.25,45.25 c 0.172,0.614 0.816,0.961 1.422,0.77 0.605,-0.192 0.933,-0.844 0.723,-1.446 l -14.25,-45.246 c -0.168,-0.613 -0.813,-0.964 -1.422,-0.773 -0.606,0.191 -0.934,0.848 -0.723,1.445 z m -41.609,45.985 c 0.597,0.183 1.23,-0.153 1.41,-0.75 l 14.25,-45.25 c 0.211,-0.598 -0.117,-1.254 -0.723,-1.446 -0.609,-0.191 -1.254,0.16 -1.422,0.774 l -14.25,45.246 c -0.195,0.597 0.133,1.238 0.735,1.426 z m -6.75,-26.485 c 0.367,0.192 0.82,0.047 1.011,-0.32 l 19.215,-36.91 c 0.367,-0.852 -0.84,-1.481 -1.328,-0.688 l -19.215,36.907 c -0.199,0.363 -0.07,0.82 0.293,1.019 l 0.024,-0.008 z m -6.946,-16.797 c 0.305,0.278 0.778,0.258 1.059,-0.047 l 17.93,-19.566 c 0.589,-0.73 -0.422,-1.66 -1.102,-1.012 l -17.934,19.567 c -0.289,0.297 -0.285,0.773 0.016,1.062 l 0.031,-0.004 z m -35.593,10.778 c 0.375,0.492 1.082,0.586 1.574,0.207 l 62.625,-48.051 c 1.187,-0.914 -0.184,-2.699 -1.375,-1.785 l -62.625,48.051 c -0.489,0.382 -0.578,1.086 -0.199,1.578 z m 11.675,-29.582 c -0.382,0.172 -0.55,0.625 -0.371,1.004 0.176,0.378 0.633,0.539 1.008,0.355 l 37.711,-17.59 c 0.879,-0.433 0.258,-1.758 -0.637,-1.355 l -37.711,17.586 z m 30.137,-22.664 c -0.109,-0.399 -0.516,-0.637 -0.918,-0.532 l -25.648,6.891 c -0.414,0.098 -0.664,0.516 -0.555,0.926 0.109,0.41 0.539,0.644 0.945,0.523 l 25.641,-6.871 c 0.41,-0.109 0.644,-0.535 0.527,-0.937 l 0.008,0 z M 76.68,288.698 c -1.5,0 -1.5,2.25 0,2.25 l 78.937,0 c 1.5,0 1.5,-2.25 0,-2.25 l -78.937,0 z m 23.781,-16.762 c -0.941,-0.218 -1.313,1.164 -0.387,1.446 l 40.176,10.777 c 0.941,0.219 1.312,-1.164 0.391,-1.445 l -40.18,-10.778 z m 20.25,-6.75 -14.805,-6.902 c -0.375,-0.184 -0.832,-0.023 -1.008,0.356 -0.179,0.378 -0.011,0.832 0.372,1.003 l 14.804,6.899 c 0.379,0.187 0.832,0.027 1.012,-0.352 0.18,-0.383 0.008,-0.836 -0.375,-1.004 z m -22.5,-32.054 c -1.07,0 -1.531,1.363 -0.68,2.015 l 26.93,20.664 c 1.191,0.914 2.562,-0.871 1.375,-1.785 L 98.871,233.37 c -0.191,-0.152 -0.433,-0.238 -0.68,-0.238 l 0.02,0 z m 22.84,-0.61 c -0.656,-0.004 -1.004,0.778 -0.555,1.262 l 21.066,22.984 c 0.274,0.34 0.774,0.375 1.09,0.082 0.321,-0.293 0.325,-0.793 0.012,-1.093 l -21.082,-22.989 c -0.141,-0.156 -0.344,-0.246 -0.555,-0.246 l 0.024,0 z m 16.109,-4.125 c -0.562,0 -0.926,0.594 -0.668,1.094 l 12.254,23.543 c 0.488,0.793 1.699,0.164 1.328,-0.687 L 137.82,228.804 c -0.132,-0.254 -0.398,-0.414 -0.683,-0.407 l 0.023,0 z m 19.094,19.973 c 0.172,0.613 0.816,0.965 1.422,0.773 0.609,-0.191 0.937,-0.847 0.722,-1.449 l -7.882,-25.004 c -0.168,-0.613 -0.813,-0.965 -1.418,-0.773 -0.61,0.191 -0.938,0.848 -0.727,1.449 l 7.883,25.004 z m -10.41,-40.5 -3.5,-11.113 c -0.172,-0.614 -0.817,-0.965 -1.422,-0.774 -0.61,0.192 -0.938,0.848 -0.723,1.446 l 3.5,11.117 c 0.172,0.613 0.817,0.961 1.422,0.769 0.609,-0.187 0.934,-0.843 0.723,-1.445 z m 33.668,-4.988 -9.114,-8.985 -9.148,8.957 0,8.399 -16.312,2.844 16.312,8.316 0,34.906 -21,4.094 c -1.988,-3.18 -5.734,-4.801 -9.418,-4.078 -3.68,0.726 -6.527,3.648 -7.164,7.344 -0.633,3.699 1.078,7.402 4.305,9.316 3.226,1.91 7.3,1.633 10.238,-0.703 l 23.062,6.226 0,91.801 9.125,12.938 9.114,-12.938 0,-91.801 23.062,-6.226 c 2.938,2.336 7.008,2.613 10.238,0.703 3.227,-1.914 4.938,-5.617 4.305,-9.316 -0.637,-3.696 -3.484,-6.618 -7.168,-7.344 -3.679,-0.723 -7.426,0.898 -9.414,4.078 l -21,-4.094 0,-34.906 16.313,-8.316 -16.313,-2.844 -0.023,-8.371 z m 53.656,71.574 c -0.106,-0.399 -0.516,-0.637 -0.914,-0.535 l -25.645,6.871 c -0.921,0.285 -0.55,1.668 0.391,1.449 l 25.637,-6.871 c 0.418,-0.105 0.66,-0.539 0.531,-0.953 l 0,0.039 z m 2.371,-14.836 c 0.879,-0.434 0.258,-1.758 -0.641,-1.359 l -14.804,6.902 c -0.383,0.172 -0.551,0.625 -0.371,1.004 0.179,0.379 0.632,0.539 1.011,0.351 l 14.805,-6.898 z M 184.117,247.913 192,222.921 c 0.387,-1.395 -1.664,-2.039 -2.145,-0.672 l -7.882,25.004 c -0.211,0.601 0.117,1.254 0.722,1.445 0.61,0.192 1.25,-0.156 1.422,-0.769 l 0,-0.016 z m 15.332,-52.359 c -0.597,-0.184 -1.23,0.152 -1.41,0.75 l -3.504,11.117 c -0.387,1.394 1.664,2.043 2.145,0.676 l 3.504,-11.118 c 0.179,-0.589 -0.149,-1.214 -0.735,-1.402 l 0,-0.023 z m 6,28.726 c -0.371,-0.191 -0.824,-0.047 -1.015,0.324 l -14.399,27.657 c -0.226,0.371 -0.094,0.859 0.293,1.058 0.387,0.203 0.863,0.031 1.035,-0.367 l 14.399,-27.66 c 0.172,-0.367 0.019,-0.809 -0.344,-0.988 l 0.031,-0.024 z m 10.633,12.504 c -0.305,-0.281 -0.777,-0.262 -1.059,0.043 l -17.929,19.566 c -0.59,0.731 0.426,1.664 1.101,1.016 l 17.903,-19.539 c 0.285,-0.309 0.261,-0.793 -0.051,-1.074 l 0.035,-0.012 z m 27.805,-3.488 c -0.379,-0.492 -1.082,-0.586 -1.578,-0.211 l -26.961,20.683 c -1.192,0.918 0.183,2.704 1.371,1.786 l 26.926,-20.684 c 0.484,-0.375 0.578,-1.07 0.21,-1.559 l 0.032,-0.015 z m 19.5,55.386 -78.938,0 c -1.5,0 -1.5,2.25 0,2.25 l 78.938,0 c 1.5,0 1.5,-2.25 0,-2.25 z"
         style="fill:#000000;fill-opacity:1;fill-rule:nonzero;stroke:none"
         id="path50"
         inkscape:connector-curvature="0" /></g></g></svg>