<?xml version="1.0" encoding="UTF-8" standalone="no"?>
<svg
   xmlns:dc="http://purl.org/dc/elements/1.1/"
   xmlns:cc="http://creativecommons.org/ns#"
   xmlns:rdf="http://www.w3.org/1999/02/22-rdf-syntax-ns#"
   xmlns:svg="http://www.w3.org/2000/svg"
   xmlns="http://www.w3.org/2000/svg"
   xmlns:sodipodi="http://sodipodi.sourceforge.net/DTD/sodipodi-0.dtd"
   xmlns:inkscape="http://www.inkscape.org/namespaces/inkscape"
   viewBox="0 0 301 106"
   id="svg11822"
   version="1.1"
   inkscape:version="0.91 r13725"
   sodipodi:docname="drake.svg">
  <metadata
     id="metadata11830">
    <rdf:RDF>
      <cc:Work
         rdf:about="">
        <dc:format>image/svg+xml</dc:format>
        <dc:type
           rdf:resource="http://purl.org/dc/dcmitype/StillImage" />
        <dc:title></dc:title>
      </cc:Work>
    </rdf:RDF>
  </metadata>
  <defs
     id="defs11828" />
  <sodipodi:namedview
     pagecolor="#ffffff"
     bordercolor="#666666"
     borderopacity="1"
     objecttolerance="10"
     gridtolerance="10"
     guidetolerance="10"
     inkscape:pageopacity="0"
     inkscape:pageshadow="2"
     inkscape:window-width="731"
     inkscape:window-height="480"
     id="namedview11826"
     showgrid="false"
     inkscape:zoom="0.910299"
     inkscape:cx="150.5"
     inkscape:cy="53"
     inkscape:window-x="0"
     inkscape:window-y="99"
     inkscape:window-maximized="0"
     inkscape:current-layer="svg11822" />
  <path
     fill-rule="evenodd"
     d="M321.0881,130.053265 L321.0881,175.763178 L22.5421047,175.763178 L22.5421047,130.053265 L321.0881,130.053265 Z M55.1048258,171.684286 L55.1048258,133.500587 L51.0364593,133.500587 C51.0364593,137.474218 50.9759338,141.421534 51.0522486,145.342534 C51.1285634,149.263534 51.3364553,153.184534 51.4811902,156.947641 C49.902264,149.210903 48.3022855,141.368903 46.7023069,133.500587 L42.8286747,133.500587 L42.8286747,171.710601 L47.0391445,171.710601 C46.8838835,163.552816 46.7312539,155.526608 46.6023083,148.684594 C48.0022895,155.579239 49.6364781,163.631762 51.2732983,171.684286 L55.1127204,171.684286 L55.1048258,171.684286 Z M202.208116,133.500587 C202.360745,141.553111 202.510743,149.526688 202.642321,156.447648 C201.231813,149.500373 199.608151,141.50048 197.98712,133.526903 L194.102961,133.526903 L194.102961,171.65797 L198.313431,171.65797 C198.15817,163.684393 198.005541,155.789762 197.871332,148.763541 C199.302892,155.816078 200.916028,163.737024 202.529164,171.65797 L206.408059,171.65797 L206.408059,133.500587 L202.19759,133.500587 L202.208116,133.500587 Z M119.593434,171.710601 C118.674904,170.303334 118.291181,168.613459 118.51187,166.947507 C118.530291,163.342292 118.51187,159.710762 118.51187,156.105547 C118.72342,154.668049 118.017927,153.250762 116.743473,152.552963 C117.991697,151.935606 118.707347,150.591116 118.522396,149.210903 C118.488186,145.342534 118.522396,141.50048 118.506607,137.632111 C118.553722,136.503989 118.124356,135.408039 117.323459,134.612148 C116.522562,133.816257 115.423941,133.393769 114.296137,133.447957 L106.183088,133.447957 L106.183088,171.65797 L110.267244,171.65797 L110.267244,154.658198 L114.382978,154.658198 L114.382978,155.710816 C114.382978,159.973917 114.346136,164.237017 114.414557,168.526433 C114.505963,169.465321 114.729208,170.386646 115.077706,171.263239 C115.212299,171.508892 115.463852,171.667977 115.743486,171.684286 C116.94347,171.736917 118.15398,171.710601 119.582908,171.710601 L119.593434,171.710601 Z M279.95181,133.474272 L279.95181,171.65797 L284.075439,171.65797 L284.075439,154.658198 L288.1517,154.658198 L288.1517,155.605554 C288.1517,159.921286 288.114858,164.237017 288.180647,168.552749 C288.276269,169.470157 288.486684,170.371933 288.806954,171.236923 C288.883801,171.455417 289.062675,171.622497 289.285895,171.684286 C290.567457,171.736917 291.85165,171.710601 293.338472,171.710601 C292.35327,170.125491 291.979079,168.23583 292.285855,166.394883 C292.285855,162.947561 292.285855,159.500239 292.285855,156.052917 C292.499346,154.631246 291.779756,153.232337 290.499037,152.579279 C291.65019,152.035667 292.359094,150.850695 292.29375,149.579319 C292.29375,145.526742 292.31217,141.50048 292.29375,137.447903 C292.320876,135.329985 290.652597,133.577591 288.535905,133.500587 C285.675417,133.395326 282.838613,133.474272 279.941284,133.474272 L279.95181,133.474272 Z M269.801946,171.684286 L269.801946,170.973769 C269.801946,160.368648 269.801946,149.754755 269.801946,139.132091 C269.806579,138.88585 269.793386,138.639596 269.762473,138.395259 C269.28364,135.172358 266.379827,132.878357 263.133614,133.158487 C259.910837,133.335249 257.393761,136.009787 257.412638,139.237353 C257.412638,149.789843 257.412638,160.351105 257.412638,170.921138 L257.412638,171.65797 L261.567846,171.65797 L261.567846,154.631883 L265.688843,154.631883 L265.688843,171.684286 L269.804578,171.684286 L269.801946,171.684286 Z M183.955729,171.684286 C183.955729,171.447447 183.979413,171.289554 183.979413,171.131662 C183.979413,160.47391 183.979413,149.807386 183.979413,139.132091 C183.970001,137.368883 183.192169,135.697437 181.849291,134.554777 C180.506413,133.412118 178.732013,132.911859 176.990033,133.184802 C173.934071,133.513023 171.61258,136.084904 171.598,139.158406 C171.587474,149.816158 171.587474,160.465138 171.598,171.105346 C171.598,171.289554 171.619052,171.473762 171.63221,171.65797 L175.761102,171.65797 L175.761102,154.631883 L179.853153,154.631883 L179.853153,171.684286 L183.968887,171.684286 L183.955729,171.684286 Z M128.669629,133.474272 L128.669629,171.65797 L132.756416,171.65797 L132.756416,154.579252 C133.193252,154.579252 133.545879,154.605568 133.898506,154.579252 C135.109016,154.552937 136.330052,154.631883 137.527404,154.500306 C139.510215,154.303921 141.013865,152.624312 140.990516,150.631937 C141.0142,146.237259 141.0142,141.842581 140.990516,137.421588 C141.017138,135.33635 139.389208,133.603768 137.306355,133.500587 C134.445867,133.395326 131.580116,133.474272 128.659102,133.474272 L128.669629,133.474272 Z M302.40414,133.500587 C302.40414,133.737426 302.375193,133.921634 302.375193,134.105843 C302.375193,139.053145 302.375193,143.974131 302.375193,148.895118 C302.302379,151.240765 303.673353,153.391723 305.83041,154.316098 C306.290825,154.4771 306.576768,154.937239 306.517243,155.421346 C306.496191,160.552856 306.517243,165.658051 306.517243,170.763246 L306.517243,171.65797 L310.65403,171.65797 L310.65403,170.605353 C310.65403,165.526474 310.65403,160.421279 310.65403,155.3424 C310.595541,154.908218 310.847492,154.491951 311.259285,154.342413 C313.493764,153.383543 314.899724,151.139879 314.788185,148.71091 C314.788185,143.895185 314.788185,139.07946 314.788185,134.263735 C314.788185,134.026896 314.764501,133.790057 314.748712,133.526903 L310.622451,133.526903 L310.622451,150.631937 L306.533032,150.631937 L306.533032,133.500587 L302.425193,133.500587 L302.40414,133.500587 Z M94.9621859,150.579306 L88.84911,150.579306 L88.84911,137.395272 L96.9647906,137.395272 L96.9647906,133.526903 C96.8933267,133.504195 96.8203359,133.486607 96.7463725,133.474272 C94.1148289,133.474272 91.5122322,133.447957 88.8964778,133.474272 C87.7661164,133.402103 86.6584139,133.814142 85.8500039,134.607488 C85.0415939,135.400835 84.6087949,136.500592 84.6596925,137.632111 C84.6421489,147.605661 84.6421489,157.587984 84.6596925,167.579078 C84.6169065,168.70881 85.0554562,169.803647 85.8663277,170.591437 C86.6771991,171.379227 87.7842412,171.785985 88.9122671,171.710601 L96.2805893,171.710601 C96.5121397,171.707062 96.7432624,171.689486 96.9726853,171.65797 L96.9726853,167.73697 L88.8570047,167.73697 L88.8570047,154.579252 L94.9753436,154.579252 L94.9753436,150.579306 L94.9621859,150.579306 Z M220.749972,167.73697 L220.749972,154.579252 L226.802523,154.579252 L226.802523,150.579306 L220.749972,150.579306 L220.749972,137.395272 L228.8946,137.395272 L228.8946,133.474272 C225.952534,133.474272 223.057836,133.395326 220.173664,133.526903 C218.090181,133.649952 216.4866,135.414826 216.563186,137.500534 C216.563186,147.553031 216.563186,157.579212 216.563186,167.631709 C216.538695,168.716695 216.957284,169.764833 217.722443,170.534461 C218.487602,171.304088 219.533285,171.728774 220.618395,171.710601 C221.968377,171.736917 223.320991,171.710601 224.670972,171.710601 L228.897232,171.710601 L228.897232,167.73697 L220.739446,167.73697 L220.749972,167.73697 Z M150.16934,133.474272 L150.16934,171.65797 L162.42707,171.65797 L162.42707,159.89497 L158.340283,159.89497 L158.340283,167.710655 L154.216654,167.710655 L154.216654,133.474272 L150.16934,133.474272 Z M67.9072857,137.421588 L67.9072857,171.65797 L72.0256515,171.65797 L72.0256515,137.395272 L76.0782287,137.395272 L76.0782287,133.500587 L63.7941829,133.500587 L63.7941829,137.421588 L67.9072857,137.421588 Z M240.612864,137.421588 L240.612864,171.65797 L244.754914,171.65797 L244.754914,137.395272 L248.799596,137.395272 L248.799596,133.500587 L236.523445,133.500587 L236.523445,137.421588 L240.612864,137.421588 Z M28.5841289,133.500587 L28.5841289,171.65797 L32.6235484,171.65797 L32.6235484,133.500587 L28.5525504,133.500587 L28.5841289,133.500587 Z M138.532654,126.39542 C135.416906,126.39542 132.419578,126.421735 129.419618,126.369104 C129.104225,126.312794 128.811809,126.166586 128.577525,125.948057 C119.698696,119.000782 110.827763,112.053507 101.964724,105.106232 C101.527097,104.729224 100.963011,104.531794 100.385797,104.553607 C99.4016001,104.606238 98.4147712,104.579923 97.3647853,104.579923 L97.3647853,126.027004 L84.3096972,126.027004 C84.3096972,124.369131 84.3096972,122.737574 84.3096972,121.106017 C84.2254878,106.948312 84.1456643,92.7730636 84.0702268,78.5802715 C84.0916824,78.1104377 84.2780335,77.6631951 84.5965355,77.3171306 C86.5675617,75.290842 88.5859557,73.3171842 90.6069812,71.3435265 C90.839066,71.0838262 91.1564576,70.9157954 91.501706,70.8698486 C93.5674678,70.8172177 95.6332296,70.8435332 97.8042531,70.8435332 L97.8042531,92.2906139 L124.68284,92.2906139 L124.68284,83.4223118 L102.622609,83.4223118 L102.622609,70.8961641 L138.216869,70.8961641 L138.216869,105.027285 L124.269688,105.027285 C124.651261,105.369386 124.845996,105.553594 125.059151,105.737802 C129.322251,109.290386 133.589738,112.84297 137.861611,116.395554 C138.304828,116.705267 138.553456,117.22449 138.516865,117.763956 C138.490549,120.606024 138.511602,123.448091 138.511602,126.39542 L138.532654,126.39542 Z M22.5,125.895426 L22.5,87.8433052 L37.060331,87.8433052 L37.060331,112.711393 L38.0261075,112.711393 C45.8260029,112.711393 53.6250211,112.720164 61.4231621,112.737708 C62.1705205,112.737708 62.3968333,112.5535 62.3942017,111.790352 C62.3678863,102.948366 62.3784125,94.106379 62.3784125,85.2907078 L62.3784125,84.395983 L22.5131577,84.395983 L22.5131577,70.5540634 C22.8236799,70.5540634 23.1131497,70.5277479 23.405251,70.5277479 C38.4234706,70.5014325 53.4443218,70.5277479 68.4625414,70.5014325 C68.984095,70.4742785 69.4893325,70.6876226 69.8335756,71.0803721 C71.607236,72.8698218 73.4230012,74.632956 75.1887669,76.4224057 C75.4540292,76.7114502 75.6111549,77.0833453 75.6334978,77.4750232 C75.6580589,91.1327347 75.6580589,104.790446 75.6334978,118.448158 C75.6166868,118.837618 75.4661248,119.209376 75.2071878,119.500775 C73.2256354,121.527064 71.2177676,123.500722 69.1862159,125.474379 C68.8939179,125.741246 68.5135837,125.891131 68.1178092,125.895426 C53.154852,125.921742 38.1910176,125.930514 23.226306,125.921742 C23.0078879,125.921742 22.7894698,125.895426 22.5,125.895426 Z M322.169665,118.921836 C319.956536,121.342856 317.930248,123.579668 315.875012,125.790165 C315.655629,125.979132 315.375086,126.081998 315.085549,126.079634 C302.685715,126.079634 290.285005,126.070863 277.883417,126.053319 C277.539489,126.041102 277.212675,125.900234 276.967639,125.658587 C274.92293,123.68493 272.896641,121.658641 270.888774,119.632352 C270.654909,119.379801 270.514662,119.054728 270.49141,118.711312 C270.315974,108.92197 270.150187,99.1326274 269.994049,89.343285 C269.994049,89.1327615 269.994049,88.9222381 269.994049,88.6590837 L283.443868,88.6590837 L283.443868,91.7116743 L284.496486,91.7116743 C292.185856,91.7116743 299.87435,91.7029025 307.561966,91.6853589 C308.106328,91.6592396 308.635273,91.8704335 309.011946,92.2642985 C310.975078,94.2642717 312.975051,96.211614 314.988182,98.2115871 C312.967156,100.21156 311.01192,102.185218 309.017209,104.106245 C308.707871,104.316199 308.337789,104.417972 307.964592,104.395715 L284.017545,104.395715 L284.017545,112.5535 L285.093846,112.5535 C294.848978,112.5535 304.604111,112.579815 314.359243,112.527185 C315.091909,112.504992 315.797955,112.80278 316.293428,113.342963 C317.953932,115.053466 319.667067,116.737654 321.372307,118.395527 C321.62076,118.595909 321.887754,118.772143 322.169665,118.921836 L322.169665,118.921836 Z M147.372009,70.8961641 L202.308114,70.8961641 L202.308114,126.184896 L188.624087,126.184896 L188.624087,83.8959897 C174.874272,83.7644125 161.19814,83.6591508 147.379904,83.553889 L147.379904,70.8961641 L147.372009,70.8961641 Z M227.634091,112.185084 L227.634091,111.264044 C227.634091,105.369386 227.634091,99.5010435 227.618301,93.6063858 C227.595853,93.0952679 227.837301,92.6083982 228.257766,92.3169294 C236.826073,85.3959696 245.389116,78.4574661 253.946896,71.5014191 C254.32828,71.215557 254.786589,71.0505655 255.262667,71.0277412 C257.933684,70.9751104 260.604701,71.0014258 263.375716,71.0014258 C263.394137,71.3435265 263.425716,71.6329963 263.425716,71.9224661 C263.425716,74.9487413 263.4494,78.0013319 263.402032,81.0276071 C263.372511,81.4985956 263.180983,81.9448741 262.859934,82.2907481 C258.902092,86.2906944 254.923198,90.2730971 250.923252,94.2379562 C250.482363,94.6683433 250.226548,95.2536025 250.210104,95.8695133 C250.098176,97.2054183 250.595191,98.5204774 251.562717,99.4484127 C256.325811,104.7115 261.007327,110.079849 265.699369,115.395567 C265.973174,115.693404 266.143065,116.071965 266.183573,116.4745 C266.220415,119.553406 266.204626,122.658628 266.201994,125.737534 C266.201994,125.869111 266.17831,126.000688 266.15989,126.211212 C265.873051,126.211212 265.604634,126.237527 265.338848,126.237527 C262.636253,126.237527 259.936289,126.237527 257.236325,126.263842 C256.771058,126.292442 256.320167,126.096828 256.023183,125.737534 C250.058351,119.290252 244.093519,112.84297 238.128687,106.395688 C237.280356,105.500772 235.882269,105.420091 234.936624,106.21148 C232.752443,108.027245 230.573525,109.816695 228.389344,111.63246 C228.186715,111.790352 227.970928,111.948245 227.636722,112.185084 L227.634091,112.185084 Z M147.335168,88.0011978 L161.784974,88.0011978 L161.784974,97.1852851 C162.179705,97.1852851 162.495491,97.2116006 162.811276,97.2116006 C168.132257,97.2116006 173.452361,97.2203724 178.771588,97.237916 C179.141415,97.2126272 179.509788,97.3047205 179.824206,97.5010704 C182.055755,99.4747281 184.24783,101.474701 186.500432,103.50099 C186.297803,103.711513 186.126753,103.922037 185.939913,104.106245 C184.192568,105.895695 182.455749,107.685144 180.676826,109.448279 C180.349027,109.75399 179.922127,109.931476 179.47421,109.948272 C173.742708,109.974587 168.010329,109.983359 162.277072,109.974587 L161.19814,109.974587 L161.19814,126.342789 L147.332536,126.342789 L147.332536,88.0011978 L147.335168,88.0011978 Z M224.144664,126.211212 L209.602753,126.211212 L209.602753,125.290171 C209.602753,109.869326 209.602753,94.4397079 209.602753,79.0013185 C209.573216,78.4643131 209.786772,77.9424997 210.184325,77.5802849 C212.500083,75.3171574 214.786894,73.0277144 217.115811,70.711956 C217.305282,70.8698486 217.473701,71.0014258 217.621067,71.133003 C219.647356,73.185607 221.681539,75.2382111 223.673617,77.3171306 C223.976817,77.6399105 224.156634,78.0591735 224.181505,78.5013252 C224.207821,94.1590099 224.214838,109.807923 224.202558,125.448064 C224.184137,125.684903 224.163084,125.921742 224.147295,126.211212 L224.144664,126.211212 Z M269.933523,84.3433521 L269.933523,71.0540567 C270.336149,71.0277412 270.628251,71.0014258 270.920352,71.0014258 C285.656996,71.0014258 300.400658,71.0101976 315.151338,71.0277412 C315.681049,71.0552413 316.190894,71.2383097 316.617108,71.55405 C318.332874,72.8961372 319.982852,74.3171708 321.688092,75.6592581 C322.123978,76.0090592 322.396268,76.5231721 322.440714,77.0802916 C322.67046,78.131171 322.219583,79.2136962 321.311781,79.7907816 C319.69075,81.1065534 318.188139,82.5539024 316.606581,83.9223051 C316.301559,84.1750046 315.923208,84.3226542 315.527648,84.3433521 C300.506797,84.3696675 285.486823,84.3784394 270.467727,84.3696675 C270.280887,84.3696675 270.094047,84.3433521 269.933523,84.3433521 Z M114.325084,150.55299 L110.301454,150.55299 L110.301454,137.500534 L114.325084,137.500534 L114.325084,150.55299 Z M288.099069,137.474218 L288.099069,150.526675 L284.075439,150.526675 L284.075439,137.474218 L288.096437,137.474218 L288.099069,137.474218 Z M261.602056,137.447903 L265.596739,137.447903 L265.596739,150.526675 L261.602056,150.526675 L261.602056,137.447903 Z M179.795259,137.474218 L179.795259,150.526675 L175.755839,150.526675 L175.755839,137.474218 L179.795259,137.474218 Z M136.785309,150.55299 L132.790626,150.55299 L132.790626,137.474218 L136.785309,137.474218 L136.785309,150.55299 Z"
     transform="translate(-22 -70)"
     id="path11824" />
</svg>
