<?xml version="1.0" encoding="UTF-8" standalone="no"?>
<!-- Created with Inkscape (http://www.inkscape.org/) -->

<svg
   xmlns:dc="http://purl.org/dc/elements/1.1/"
   xmlns:cc="http://creativecommons.org/ns#"
   xmlns:rdf="http://www.w3.org/1999/02/22-rdf-syntax-ns#"
   xmlns:svg="http://www.w3.org/2000/svg"
   xmlns="http://www.w3.org/2000/svg"
   xmlns:sodipodi="http://sodipodi.sourceforge.net/DTD/sodipodi-0.dtd"
   xmlns:inkscape="http://www.inkscape.org/namespaces/inkscape"
   width="37.041664mm"
   height="16.536482mm"
   viewBox="0 0 131.24999 58.593833"
   id="svg4938"
   version="1.1"
   inkscape:version="0.91 r13725"
   sodipodi:docname="esperia.svg">
  <defs
     id="defs4940" />
  <sodipodi:namedview
     id="base"
     pagecolor="#ffffff"
     bordercolor="#666666"
     borderopacity="1.0"
     inkscape:pageopacity="0.0"
     inkscape:pageshadow="2"
     inkscape:zoom="0.35"
     inkscape:cx="64.910716"
     inkscape:cy="-450.70308"
     inkscape:document-units="px"
     inkscape:current-layer="layer1"
     showgrid="false"
     fit-margin-top="0"
     fit-margin-left="0"
     fit-margin-right="0"
     fit-margin-bottom="0"
     inkscape:window-width="1680"
     inkscape:window-height="1005"
     inkscape:window-x="0"
     inkscape:window-y="100"
     inkscape:window-maximized="1" />
  <metadata
     id="metadata4943">
    <rdf:RDF>
      <cc:Work
         rdf:about="">
        <dc:format>image/svg+xml</dc:format>
        <dc:type
           rdf:resource="http://purl.org/dc/dcmitype/StillImage" />
        <dc:title></dc:title>
      </cc:Work>
    </rdf:RDF>
  </metadata>
  <g
     inkscape:label="Layer 1"
     inkscape:groupmode="layer"
     id="layer1"
     transform="translate(148.48214,-23.06529)">
    <g
       id="g5526"
       transform="translate(-154.34152,-271.07533)"
       style="fill-rule:evenodd">
      <path
         id="path5528"
         d="m 137.10937,337.75781 c -8.67187,0 -17.32734,-0.0234 -25.99218,-0.0234 l -103.9804713,0 c -0.4242187,0 -0.8507812,0.0234 -1.2773437,0.0234 l 0,-43.61719 131.249995,0 0,43.61719 z M 6.6023437,294.91406 c -0.030469,0.39844 -0.067969,0.65625 -0.067969,0.91406 0,13.35938 0.014063,26.74219 -0.030469,40.125 0,1.26563 0.6,1.24219 1.4953125,1.24219 42.2921878,-0.0234 84.5851558,-0.0312 126.8789018,-0.0234 l 1.45547,0 0,-42.25781 -129.7312468,0 0,0 z m 83.5945313,57.82031 0,-13.10156 c 0.54375,-0.0469 0.953906,-0.0937 1.366406,-0.0937 l 10.891409,0 c 2.7375,0 3.46172,0.65625 3.77109,3.39844 0.0773,0.68578 0.0703,1.37845 -0.0211,2.0625 0.0279,0.97854 -0.36849,1.92139 -1.08713,2.58613 -0.71864,0.66474 -1.68946,0.98652 -2.66287,0.88262 1.36172,1.47656 2.63203,2.88281 3.90234,4.26562 l -3.58828,0 c -1.40625,-1.52343 -2.817188,-3.04687 -4.232812,-4.57031 -0.115113,-0.12323 -0.272446,-0.19855 -0.440625,-0.21094 -1.671094,-0.0234 -3.344532,-0.0234 -5.067188,-0.0234 l 0,4.80468 -2.8125,0 -0.01875,0 z m 3.084375,-7.125 9.67031,0 0,-3.5625 -9.67031,0 0,3.5625 0,0 z m 26.90859,7.125 c 0,-3.25781 0,-6.53906 0,-9.79687 -0.1286,-0.93085 0.17951,-1.86896 0.83498,-2.5423 0.65547,-0.67333 1.58496,-1.00655 2.51893,-0.90301 2.98594,0 5.97187,0 8.95781,0.0234 0.71925,-0.061 1.44265,0.0515 2.10938,0.32813 0.6083,0.31482 1.04844,0.87999 1.20468,1.54687 0.0844,3.79688 0.0164,7.57032 0,11.34375 l -2.56406,0 0,-4.28906 -10.2539,0 0,4.28906 -2.8125,0 0.005,0 z m 2.8711,-10.6875 0,3.77344 10.10859,0 0,-3.77344 -10.10859,0 z m -11.07422,10.6875 0,-13.125 2.8125,0 0,13.125 -2.8125,0 z m -84.510939,-3.63281 c 1.024219,0.23438 2.238281,-0.58594 2.8125,0.86719 0.131319,0.10737 0.300014,0.15798 0.46875,0.14062 3.023438,0.0234 6.046875,0.0234 9.157031,0.0234 l 0,-2.92969 c -0.454687,0 -0.904687,-0.0469 -1.357031,-0.0469 -2.775,-0.0234 -5.552343,0.0234 -8.329687,-0.0469 -0.826067,0.18012 -1.686644,-0.0781 -2.277053,-0.68332 -0.590408,-0.60518 -0.827318,-1.47187 -0.626854,-2.29324 0,-0.39844 0,-0.77344 0.01875,-1.17187 -0.159185,-0.95935 0.16686,-1.93528 0.870722,-2.6063 0.703861,-0.67101 1.694254,-0.95008 2.644903,-0.74527 3.032812,-0.0234 6.065624,-0.0469 9.098437,0 0.884069,-0.18565 1.79946,0.12084 2.393496,0.80141 0.594036,0.68056 0.774004,1.62898 0.470566,2.47984 -0.951562,-0.11718 -2.04375,0.60938 -2.8125,-0.60937 -0.170269,-0.12306 -0.3789,-0.18125 -0.588281,-0.16406 l -8.203125,0 c -0.3375,0 -0.672656,0.0469 -1.136719,0.0703 -0.02344,0.44531 -0.01641,0.86719 -0.06797,1.26562 -0.142969,1.14844 0.379687,1.5 1.467187,1.52344 3.072657,0.0234 6.147656,0.11719 9.220313,0.23438 0.590441,-0.13631 1.210007,0.03 1.652818,0.44366 0.442811,0.41367 0.650853,1.0205 0.554994,1.61884 0.382031,4.45312 -0.234375,5.27343 -4.48125,5.15625 -2.432812,-0.0703 -4.867969,0 -7.303125,-0.0234 -0.511894,0.008 -1.023433,-0.0312 -1.528125,-0.11719 -0.775312,0.0152 -1.504697,-0.36659 -1.933968,-1.0124 -0.429272,-0.64581 -0.498961,-1.46613 -0.184782,-2.1751 l 0,0 z m 42.534375,-9.42187 14.2125,0 0,2.27343 -5.578125,0 c -1.5375,0 -3.077343,0.0703 -4.6125,-0.0234 -0.354749,-0.115 -0.744014,-0.0165 -1.00139,0.25336 -0.257375,0.26987 -0.337313,0.66336 -0.205641,1.01226 0.05625,0.5625 0,1.10156 0,1.78125 l 9.121875,0 0,2.27344 -9.046875,0 0,3.07031 11.332031,0 0,2.10938 -14.23125,0 0,-12.75 0.0094,0 z m -62.8710935,12.72656 0,-12.72656 14.2968755,0 0,2.25 -11.38125,0 0,2.97656 9.044531,0 0,2.25 -9.032813,0 0,3.16406 11.348438,0 0,2.08594 -14.271094,0 -0.00469,0 z m 44.5687505,-4.52344 0,4.40625 -2.671875,0 0,-12.75 12.522656,0 c 0.84457,-0.19616 1.730779,0.0536 2.348611,0.66193 0.617833,0.60833 0.881311,1.49056 0.698264,2.33807 0.03281,0.96094 0,1.89844 -0.03281,2.83594 0.07952,0.69922 -0.169247,1.39585 -0.673688,1.88653 -0.504442,0.49069 -1.207683,0.7201 -1.904437,0.62128 -2.899219,0.0234 -5.800781,0 -8.702344,0 l -1.579687,0 -0.0047,0 z m 5.233593,-5.92969 -2.55,0 c -2.519531,0 -2.460937,0 -2.510156,2.50782 -0.01875,1.07812 0.386719,1.28906 1.335938,1.26562 2.039062,-0.0703 4.082812,0 6.124218,-0.0234 3.046875,-0.0703 2.545313,0.63282 2.625,-2.76562 0.06707,-0.2927 -0.02786,-0.59889 -0.248726,-0.80232 -0.220871,-0.20343 -0.533817,-0.27291 -0.820024,-0.18206 -1.317187,0.0234 -2.636719,0 -3.944531,0 l -0.01172,0 z M 9.1078125,335.48437 c 1.2539065,-0.49218 2.5078125,-0.96093 3.7617185,-1.42968 L 69.525,312.67969 c 0.210396,-0.0443 0.409194,-0.13208 0.583594,-0.25782 0.224433,-0.24293 0.420969,-0.51022 0.585937,-0.79687 -0.236295,-0.18893 -0.510465,-0.32481 -0.803906,-0.39844 -1.321875,-0.0469 -2.657813,0.0937 -3.967969,-0.0469 -2.753906,-0.28125 -5.491406,-0.70313 -8.235937,-1.07813 -0.192781,-0.0553 -0.374972,-0.14248 -0.539063,-0.25781 l 0.01406,-0.35156 c 4.441406,-0.39844 8.875781,-0.91407 13.326562,-1.19532 4.441727,-0.19038 8.863795,0.69403 12.890625,2.57813 -3.011719,-2.95313 -6.885937,-3.28125 -10.753125,-3.77344 1.422657,-0.1875 2.847657,-0.39844 4.270313,-0.58594 l 0.02109,-0.35156 c -3.316406,-0.32812 -6.632812,-0.67969 -10.214062,-1.03125 10.699219,-2.95312 20.545312,0.375 30.46875,2.88281 -7.317188,-3.98437 -15.46875,-4.40625 -23.4375,-5.60156 0,-0.11719 0,-0.23437 0.01641,-0.375 4.474219,-0.0469 8.946094,-0.11719 13.420313,-0.14062 4.516406,-0.0234 9.032812,0 13.560938,-0.21094 -6.600001,-0.49219 -13.198438,-0.96875 -19.795313,-1.42969 0,-0.0469 0,-0.0937 -0.01641,-0.14062 1.722657,-0.1875 3.442969,-0.39844 5.167969,-0.53907 4.896094,-0.35156 9.794531,-0.67968 14.688284,-1.03125 1.40625,-0.11718 2.79375,-0.35156 4.1836,-0.5625 4.17671,-0.46131 8.40281,0.11011 12.30703,1.66407 0.44297,0.16406 0.87656,0.35156 1.32422,0.49218 2.48672,0.75 4.74609,1.6875 5.39062,4.6875 0.35501,0.92654 0.88227,1.77747 1.55391,2.50782 0.91405,0.65794 1.43206,1.73455 1.37578,2.85937 0.14008,0.43654 0.40887,0.82053 0.77109,1.10156 1.11158,1.03077 1.83416,2.413 2.0461,3.91407 0.22785,0.44235 0.53442,0.83946 0.90468,1.17187 0.76368,1.05021 1.43642,2.16362 2.01094,3.32813 0.0847,0.69429 0.0142,1.39872 -0.20625,2.0625 -0.15152,-0.0195 -0.30431,-0.0273 -0.45703,-0.0234 -0.11016,-0.49219 -0.22031,-0.98438 -0.33984,-1.5 -1.20704,-0.30469 -1.09219,0.65625 -0.87891,1.19531 0.53672,1.3125 -0.3,1.66406 -1.19531,2.01563 -1.44272,0.65522 -3.06033,0.81986 -4.60547,0.46875 -0.25547,-2.4375 -1.79531,-3.60938 -3.63516,-2.64844 -0.63922,0.33037 -1.11767,0.90519 -1.32656,1.59375 0.39572,0.7232 1.0303,1.28654 1.79531,1.59375 1.05894,0.29841 2.14755,0.47919 3.2461,0.53906 -1.24722,1.88145 -2.98256,3.38833 -5.02032,4.35938 0.11016,-3.1875 -2.70234,-4.07813 -4.21875,-6.25782 -1.51171,3.63282 -2.89218,7.03125 -4.33828,10.40625 -1.19062,2.78907 -0.32109,2.25 -3.3375,2.25 -32.46094,0.0234 -64.922659,0.0312 -97.385159,0.0234 l -1.5890622,0 c -0.011719,-0.11719 -0.028125,-0.21094 -0.044531,-0.30469 l 0,0 z M 113.67188,314.25 c 0,-0.0937 0.0211,-0.1875 0.0328,-0.28125 1.71328,0.16406 3.4289,0.30469 5.14218,0.44531 -4.14609,-2.48437 -2.78906,-6.30469 -2.44921,-10.28906 2.20312,1.24219 4.20468,2.36719 6.17812,3.49219 -0.95825,-1.88351 -2.58078,-3.34486 -4.55391,-4.10157 -2.26171,-0.9375 -2.92734,-0.49218 -3.04687,2.01563 -0.0445,0.9375 0,1.89844 0,3.14062 -2.51161,-2.95963 -6.21809,-4.63696 -10.09922,-4.57031 1.9875,1.19531 3.98438,2.36719 5.99297,3.5625 2.19452,1.26584 3.80136,3.34598 4.47188,5.78906 -3.93642,-2.88491 -8.45471,-4.87651 -13.23985,-5.83593 4.72969,3.375 9.17813,6.53906 13.89141,9.91406 -2.10833,0.11479 -4.22173,0.0991 -6.32813,-0.0469 -2.47968,-0.35156 -4.87734,-1.33593 -7.35703,-1.61718 -4.621867,-0.33477 -9.246947,0.60565 -13.371093,2.71875 -2.080411,0.87192 -4.203412,1.63851 -6.360937,2.29687 -0.536804,0.14982 -1.085825,0.25178 -1.640625,0.30469 -0.496875,0.0703 -1.000781,0.11719 -1.502344,0.16406 2.109958,0.58972 4.352999,0.49119 6.403125,-0.28125 1.319531,-0.49219 2.636719,-1.00781 3.942188,-1.52344 6.984588,-3.10304 15.007336,-2.82654 21.761716,0.75 1.29675,0.55748 2.80575,0.19502 3.70782,-0.89062 l -2.24297,0 c 0,-0.16406 0,-0.30469 -0.0164,-0.46875 2.22187,-0.1875 4.45312,-0.375 6.97734,-0.60938 -2.28046,-1.47656 -4.28437,-2.76562 -6.29296,-4.07812 z m -38.967192,-0.39844 c 0.835277,0.64444 1.63563,1.33291 2.397656,2.0625 1.869846,2.22812 5.186594,2.53155 7.429687,0.67969 -3.438281,-0.32813 -6.140625,-3.11719 -9.822656,-2.74219 l -0.0047,0 z m 18.649218,-1.94531 c -3.424219,-1.42969 -6.623437,-3.49219 -10.528125,-3.86719 1.91275,0.84293 3.750583,1.84652 5.49375,3 1.483807,0.9828 3.312083,1.29743 5.039063,0.86719 l -0.0047,0 z m 15.534374,-13.10156 c 3.08672,1.10156 6.2625,2.22656 9.24844,3.30468 -2.50091,-2.31727 -5.84056,-3.51121 -9.24375,-3.30468 l -0.005,0 z m 4.88203,24 c -2.025,0.35156 -4.07343,0.72656 -6.0375,1.05468 0.91966,0.72365 2.10364,1.02211 3.25643,0.82088 1.1528,-0.20122 2.16565,-0.88314 2.78576,-1.87556 l -0.005,0 z m 3.47813,-11.67188 c 0.13973,0.0195 0.28084,0.0273 0.42187,0.0234 0.23438,-0.84375 0.46875,-1.6875 0.72891,-2.625 0.68672,0.30469 1.28203,0.58594 1.875,0.86719 0.0656,-0.11719 0.13125,-0.25782 0.19687,-0.375 -0.87656,-0.63282 -1.75078,-1.28907 -2.62734,-1.94532 l -0.39844,0.21094 c -0.0586,1.28906 -0.12422,2.57813 -0.19219,3.84375 l -0.005,0 z m 9.46875,5.41406 0.16406,-0.21093 c -0.16875,-0.5625 -0.33516,-1.125 -0.54609,-1.80469 -0.4875,-0.0937 -1.18594,-0.23438 -1.875,-0.375 l -0.0914,0.28125 2.34844,2.10937 z m -64.357034,-2.46093 -54.4171872,20.22656 0,-38.03906 54.4617192,17.53125 c -0.0094,0.0937 -0.02578,0.1875 -0.03984,0.28125 l -0.0047,0 z m 72.534374,21.60937 -21.79687,0 c 0.5414,-1.61719 1.04765,-3.14062 1.59609,-4.78125 1.67813,0.51563 3.3,0.89063 4.83281,1.47656 3.50371,1.36345 7.26443,1.93956 11.01563,1.6875 1.62258,-0.15063 3.22567,0.44439 4.35703,1.61719 l -0.005,0 z"
         inkscape:connector-curvature="0" />
    </g>
  </g>
</svg>
