<?xml version="1.0" encoding="UTF-8" standalone="no"?>
<!-- Created with Inkscape (http://www.inkscape.org/) -->

<svg
   xmlns:dc="http://purl.org/dc/elements/1.1/"
   xmlns:cc="http://creativecommons.org/ns#"
   xmlns:rdf="http://www.w3.org/1999/02/22-rdf-syntax-ns#"
   xmlns:svg="http://www.w3.org/2000/svg"
   xmlns="http://www.w3.org/2000/svg"
   xmlns:sodipodi="http://sodipodi.sourceforge.net/DTD/sodipodi-0.dtd"
   xmlns:inkscape="http://www.inkscape.org/namespaces/inkscape"
   width="40.349758mm"
   height="30.42765mm"
   viewBox="0 0 142.97158 107.81451"
   id="svg4269"
   version="1.1"
   inkscape:version="0.91 r13725"
   sodipodi:docname="kruger.svg">
  <defs
     id="defs4271" />
  <sodipodi:namedview
     id="base"
     pagecolor="#ffffff"
     bordercolor="#666666"
     borderopacity="1.0"
     inkscape:pageopacity="0.0"
     inkscape:pageshadow="2"
     inkscape:zoom="0.35"
     inkscape:cx="205.05722"
     inkscape:cy="-494.66417"
     inkscape:document-units="px"
     inkscape:current-layer="layer1"
     showgrid="false"
     fit-margin-top="0"
     fit-margin-left="0"
     fit-margin-right="0"
     fit-margin-bottom="0"
     inkscape:window-width="1680"
     inkscape:window-height="1005"
     inkscape:window-x="0"
     inkscape:window-y="100"
     inkscape:window-maximized="1" />
  <metadata
     id="metadata4274">
    <rdf:RDF>
      <cc:Work
         rdf:about="">
        <dc:format>image/svg+xml</dc:format>
        <dc:type
           rdf:resource="http://purl.org/dc/dcmitype/StillImage" />
        <dc:title></dc:title>
      </cc:Work>
    </rdf:RDF>
  </metadata>
  <g
     inkscape:label="Layer 1"
     inkscape:groupmode="layer"
     id="layer1"
     transform="translate(288.62865,70.116478)">
    <g
       id="g4888"
       transform="translate(-442.14193,-308.00509)"
       style="fill-rule:evenodd">
      <path
         id="path4890"
         d="m 296.48437,238.125 c -0.48046,0.70312 -0.97265,1.38281 -1.43906,2.10937 -1.38047,2.08594 -2.74922,4.17188 -4.12734,6.28125 -3.55625,5.39063 -7.11328,10.78125 -10.6711,16.17188 -1.8914,2.88281 -3.78046,5.74219 -5.67187,8.625 -3.04688,4.64062 -6.10781,9.25781 -9.15703,13.89844 -1.89375,2.88281 -3.78047,5.74218 -5.67188,8.625 -3.00937,4.57031 -6.01875,9.11718 -9.02812,13.6875 -1.9125,2.90625 -3.82578,5.8125 -5.73985,8.71875 -3.02812,4.61718 -6.05781,9.21875 -9.08906,13.80468 -1.93594,2.95313 -3.87109,5.89063 -5.80547,8.8125 -1.49531,2.29688 -2.98593,4.57032 -4.48125,6.84375 l -0.13359,0 c -0.0978,-0.21004 -0.20893,-0.41359 -0.33281,-0.60937 -13.08907,-19.61719 -26.18125,-39.23438 -39.27657,-58.85156 -10.56562,-15.84375 -21.13281,-31.67188 -31.70156,-47.48438 -0.10884,-0.32447 -0.34012,-0.59359 -0.64453,-0.75 0.008,-0.0444 0.0291,-0.0853 0.0609,-0.11719 l 142.77656,0 c 0.23906,-0.0234 0.0727,0.16407 0.13359,0.23438 z m -71.01562,103.5 c 0.19922,-0.28125 0.32578,-0.44531 0.44531,-0.63281 6.12031,-9.16407 12.2375,-18.33594 18.35156,-27.51563 9.11875,-13.66406 18.2375,-27.33594 27.35625,-41.01562 4.67032,-7.00782 9.34375,-14.00782 14.02032,-21 2.40781,-3.60938 4.81484,-7.21875 7.22109,-10.82813 0.1125,-0.1875 0.19922,-0.375 0.32109,-0.58594 -0.10882,-0.0588 -0.22695,-0.0984 -0.34921,-0.11718 l -135.07735,0 c -0.0982,0.0323 -0.19072,0.0797 -0.27422,0.14062 0.10313,0.1875 0.18047,0.35156 0.28594,0.51563 0.60703,0.91406 1.22578,1.80468 1.83516,2.71875 l 8.79375,13.14843 c 2.84297,4.24219 5.68828,8.50782 8.53359,12.75 2.96875,4.45313 5.94531,8.89844 8.92969,13.33594 3.09531,4.64063 6.19219,9.27344 9.29062,13.89844 l 17.49141,26.15625 c 4.10156,6.14062 8.20391,12.27344 12.30703,18.39844 0.15226,0.22172 0.31903,0.43312 0.49922,0.63281 l 0.0188,0 z M 283.125,245.53125 c -0.13359,0.21094 -0.23438,0.39844 -0.33516,0.5625 -3.90937,5.85937 -7.82578,11.69531 -11.71875,17.57812 -0.22792,0.39284 -0.66668,0.6136 -1.11797,0.5625 l -88.61718,0 c -0.4319,0.0462 -0.85086,-0.16467 -1.0711,-0.53906 -3.90625,-5.88281 -7.82812,-11.75781 -11.76562,-17.625 -0.10781,-0.16406 -0.20156,-0.32812 -0.30703,-0.51562 0.44297,-0.11719 114.1125,-0.16407 114.90703,-0.0234 l 0.0258,0 z m -72.42188,15.77344 c -0.11015,-0.28125 -0.17109,-0.46875 -0.24609,-0.65625 -0.51094,-1.24219 -1.00781,-2.46094 -1.54687,-3.67969 -0.24169,-0.37766 -0.17205,-0.87511 0.16406,-1.17188 0.39375,-0.39843 0.72422,-0.84375 1.09453,-1.26562 0.19447,-0.20015 0.29863,-0.47112 0.28828,-0.75 0,-0.9375 0,-1.875 -0.0141,-2.8125 -0.012,-0.22986 -0.0937,-0.45061 -0.23438,-0.63281 -0.44062,-0.5625 -0.92343,-1.10157 -1.3875,-1.64063 -0.16707,-0.22882 -0.43634,-0.36039 -0.71953,-0.35156 -1.99219,0.0234 -3.98437,0 -5.97656,0.0234 -0.46875,0 -0.51328,0.0469 -0.52266,0.51562 0,0.70313 0,1.42969 0,2.15625 0,0.58594 0.0516,0.63281 0.66094,0.63281 l 2.98828,0 c 0.20068,0.005 0.40096,0.0208 0.6,0.0469 0.0365,0.7031 0.0248,1.40788 -0.0352,2.10937 -0.23438,0 -0.43829,0.0234 -0.63282,0.0234 l -3.04687,0 c -0.46875,0 -0.52031,0.0469 -0.52735,0.51563 0,0.79687 -0.0141,1.59375 0,2.39062 0,0.42188 0.0867,0.51563 0.53907,0.51563 l 1.52343,0 c 0.66797,0 0.675,0 0.90704,0.60937 0.38671,0.98438 0.77343,1.99219 1.13671,3 0.0803,0.34076 0.399,0.57056 0.74766,0.53906 1.21406,-0.0234 2.42813,0 3.64453,0 0.18884,-0.0237 0.3754,-0.0629 0.55781,-0.11718 l 0.0375,0 z m 57.22501,-4.99219 c 0.5039,-0.58594 0.96093,-1.14844 1.42968,-1.6875 0.19728,-0.19952 0.30693,-0.46942 0.30469,-0.75 0,-0.98438 0,-1.99219 -0.0141,-2.97656 -0.0109,-0.23008 -0.0928,-0.45113 -0.23438,-0.63282 -0.42656,-0.5625 -0.89531,-1.07812 -1.34297,-1.61718 -0.16253,-0.20337 -0.41259,-0.31664 -0.67265,-0.30469 -2.0086,0.0234 -4.01953,0 -6.02813,0.0234 -0.46875,0 -0.51328,0.0469 -0.52031,0.51562 0,0.72656 0,1.45313 0,2.20313 0,0.51562 0.0492,0.5625 0.58359,0.58593 l 2.925,0 c 0.21328,0 0.42657,0.0234 0.6586,0.0234 l 0,2.15625 -3.67735,0 c -0.44062,0 -0.48281,0.0469 -0.48984,0.49219 0,0.79687 0,1.61719 0,2.4375 0,0.42187 0.068,0.49219 0.4875,0.49219 l 1.79062,0 c 0.50391,0 0.51329,0 0.69141,0.46875 0.40781,1.05468 0.82266,2.10937 1.2,3.16406 0.0744,0.32224 0.37342,0.54151 0.70313,0.51562 1.21171,0 2.42578,0 3.63984,-0.0234 0.53438,0 0.61172,-0.11719 0.41719,-0.60938 -0.19453,-0.49219 -0.42891,-1.00781 -0.64219,-1.52344 -0.43125,-0.98437 -0.83203,-1.94531 -1.24688,-2.95312 l 0.0375,0 z m -36.11719,-4.45313 1.64062,0 c 0.59766,0 0.66328,-0.0703 0.67031,-0.63281 0,-0.77344 0,-1.52344 0,-2.27344 0,-0.53906 -0.0586,-0.58593 -0.57656,-0.58593 -1.29609,-0.0234 -2.58984,0 -3.88594,-0.0234 -0.26384,-0.0139 -0.51594,0.1104 -0.66562,0.32812 -0.52266,0.60938 -1.06875,1.21875 -1.575,1.875 -0.14412,0.18026 -0.22631,0.40217 -0.23438,0.63282 -0.0164,2.46093 0,4.89843 0,7.33593 -0.009,0.30397 0.1031,0.59906 0.31172,0.82032 0.48985,0.53906 0.98203,1.10156 1.44141,1.66406 0.20119,0.27957 0.53018,0.43833 0.87422,0.42187 l 3.70547,0 c 0.53203,-0.0234 0.60234,-0.0937 0.60937,-0.65625 0.007,-0.5625 0,-1.19531 0,-1.78125 0,-1.05468 -0.0188,-0.9375 -0.9375,-0.96093 -0.45716,0.0465 -0.91875,0.0228 -1.36875,-0.0703 l 0,-6.09375 -0.009,0 z m -10.96875,5.8125 -1.49063,0 c -0.46875,0 -0.52969,0.0703 -0.53437,0.51563 -0.0109,0.89062 -0.0109,1.78125 0,2.67187 0,0.44532 0.0844,0.53907 0.51562,0.5625 l 3.57891,0 c 0.28093,-0.005 0.5424,-0.14453 0.70312,-0.375 0.43594,-0.53906 0.86953,-1.07812 1.35469,-1.57031 0.33274,-0.3433 0.50326,-0.81222 0.46875,-1.28906 -0.0141,-2.97656 0,-5.97656 0,-8.95313 0,-0.16406 0,-0.30468 0,-0.46875 0.0201,-0.11019 -0.015,-0.22326 -0.0939,-0.3027 -0.079,-0.0794 -0.19183,-0.1152 -0.30214,-0.0957 l -0.89532,0 c -0.9375,0 -1.875,-0.0234 -2.8125,0 -0.4289,0 -0.46875,0.0469 -0.48984,0.46875 0,0.16406 0,0.32812 0,0.49218 l 0,8.34375 -0.002,0 z m -4.37344,0 0,-0.79687 c 0,-2.625 0,-5.25 0,-7.875 0,-0.60938 -0.0258,-0.63281 -0.64219,-0.63281 -1.09375,-0.0234 -2.1875,-0.0234 -3.28125,0 -0.17736,0.005 -0.35426,0.0204 -0.52969,0.0469 -0.0232,0.12394 -0.0388,0.24917 -0.0469,0.375 0,3.28125 0,6.53906 0,9.79688 -0.002,0.25918 0.0921,0.50991 0.26484,0.70312 0.50157,0.58594 1.00313,1.17188 1.5,1.78125 0.17521,0.21889 0.43919,0.34787 0.71953,0.35156 l 3.58594,0 c 0.46875,-0.0234 0.54844,-0.11718 0.55313,-0.58593 0,-0.86719 0,-1.75782 0,-2.625 0,-0.46875 -0.0703,-0.53907 -0.56953,-0.53907 l -1.53985,0 -0.0141,0 z m -35.13516,-9.23437 c -0.0187,0.23437 -0.0516,0.49219 -0.0516,0.75 0,3.79687 0,7.59375 0,11.39062 0,0.11719 0,0.23438 0,0.35157 0.0258,0.375 0.0914,0.44531 0.46875,0.46875 0.23438,0.0234 0.46875,0.0234 0.71719,0.0234 l 2.68594,0 c 0.68906,0 0.70312,-0.0469 0.72187,-0.70312 0,-0.0703 0,-0.11719 0,-0.1875 l 0,-11.32031 c 0,-0.14063 0,-0.28125 0,-0.42188 0.0284,-0.11971 -0.008,-0.24557 -0.0955,-0.33185 -0.0877,-0.0863 -0.21416,-0.12042 -0.33339,-0.09 l -3.92343,0 c -0.0563,0 -0.11719,0.0469 -0.22735,0.0703 l 0.0375,0 z m 15.44532,6.46875 c 0,1.94531 0,3.89062 0,5.83594 0,0.60937 0.0422,0.65625 0.63515,0.67968 l 3.34219,0 c 0.52969,0 0.60937,-0.0937 0.60937,-0.65625 0,-3.9375 0,-7.85156 0,-11.78906 0,-0.5625 -0.0539,-0.60937 -0.61875,-0.60937 -1.11328,-0.0234 -2.22656,-0.0234 -3.33984,-0.0234 -0.0611,-0.004 -0.12242,0.004 -0.18047,0.0234 -0.38203,0.0234 -0.42656,0.0703 -0.44765,0.46875 0,0.14062 0,0.28125 0,0.42187 l 0,5.64844 0,0 z m 59.29687,-0.0703 c 0,1.96875 0,3.9375 0,5.90625 0,0.63281 0.0399,0.67968 0.68203,0.67968 l 3.225,0 c 0.61641,0 0.67969,-0.0703 0.68203,-0.70312 0,-1.47656 0,-2.97656 0,-4.45313 0,-2.4375 0,-4.85156 0,-7.28906 0,-0.5625 -0.0492,-0.60937 -0.60468,-0.60937 -0.83672,-0.0234 -1.67344,0 -2.50782,0 l -1.07578,0 c -0.11122,-0.0245 -0.22722,0.01 -0.3075,0.0904 -0.0803,0.0807 -0.1137,0.19695 -0.0886,0.30802 0,0.14063 0,0.25782 0,0.39844 l 0,5.67188 -0.005,0 z m -12.90937,0.0703 c 0,1.96875 0,3.9375 0,5.90625 0,0.51562 0.0609,0.58594 0.57187,0.60937 1.13438,0 2.26641,0 3.40078,-0.0234 0.53438,0 0.61172,-0.0703 0.61172,-0.63282 0,-3.9375 0,-7.85156 0,-11.78906 0,-0.5625 -0.0516,-0.60937 -0.61641,-0.60937 -0.99375,-0.0234 -1.98984,0 -2.98359,0 -0.17871,-0.0117 -0.358,-0.0117 -0.53672,0 -0.38203,0.0234 -0.42656,0.0703 -0.44765,0.46875 0,0.14062 0,0.28125 0,0.42187 l 0,5.64844 0,0 z m -6.49922,3.11719 -1.81172,0 c -0.46875,0.0234 -0.525,0.0703 -0.53203,0.51562 -0.009,0.77344 -0.009,1.54688 0,2.32031 0,0.46875 0.075,0.53907 0.56953,0.5625 l 4.05937,0 c 0.28227,0.0142 0.55422,-0.10782 0.73125,-0.32812 0.44766,-0.53906 0.92344,-1.05469 1.34766,-1.59375 0.15556,-0.20264 0.24551,-0.44796 0.25781,-0.70313 0.0234,-1.54687 0.0164,-3.09375 0,-4.64062 0,-0.46875 -0.0703,-0.53906 -0.51328,-0.53906 l -7.28437,0 c -0.43125,0 -0.48516,0.0469 -0.48985,0.49218 0,0.70313 0,1.42969 0,2.13282 0,0.5625 0.0539,0.63281 0.60938,0.63281 l 2.38828,0 c 0.21328,0 0.42422,0.0234 0.66094,0.0469 l 0,1.10157 0.007,0 z m -41.48438,-9.58594 c -0.0926,-0.0385 -0.19067,-0.0622 -0.29062,-0.0703 -1.53282,0 -3.06328,0 -4.5961,-0.0234 -0.26308,0.0105 -0.50374,0.15105 -0.64218,0.375 -1.08516,1.35937 -2.17032,2.74219 -3.26016,4.10156 -0.16521,0.19672 -0.25421,0.44626 -0.25078,0.70313 0,1.6875 0,3.39843 0,5.08593 0.0142,0.16539 0.0385,0.32975 0.0727,0.49219 0.0879,-0.0389 0.17182,-0.0859 0.25079,-0.14062 2.87812,-3.42188 5.75234,-6.84375 8.62265,-10.26563 0.0298,-0.0829 0.0472,-0.1698 0.0516,-0.25781 l 0.0422,0 z m -4.01484,5.4375 c -0.0542,0.0452 -0.11318,0.0845 -0.17578,0.11719 -0.96563,1.19531 -1.92422,2.39062 -2.89453,3.5625 -0.18064,0.22297 -0.16448,0.54616 0.0375,0.75 0.55078,0.89062 1.11093,1.75781 1.64062,2.625 0.16446,0.32633 0.50991,0.52082 0.87422,0.49218 1.42969,-0.0234 2.85937,0 4.29141,0 0.1701,-0.0124 0.33921,-0.0359 0.50625,-0.0703 -1.29127,-2.57559 -2.73444,-5.07218 -4.32188,-7.47656 l 0.0422,0 z M 236.7,251.85937 c 0.0234,0.21094 0.0375,0.30469 0.0422,0.39844 0.0375,0.65625 0.0539,0.67969 0.68906,0.67969 l 3.45703,0 c 0.0893,0.0224 0.18387,0.008 0.26206,-0.041 0.0782,-0.0486 0.13333,-0.12684 0.15278,-0.21682 0.0187,-0.67969 0,-1.33594 -0.0188,-2.01563 -0.0368,-0.11584 -0.10207,-0.2206 -0.18984,-0.30469 -0.46875,-0.53906 -0.9375,-1.07812 -1.38281,-1.61718 -0.20346,-0.27568 -0.53509,-0.42642 -0.87656,-0.39844 -1.07344,0.0234 -2.14688,0 -3.22032,0.0234 l -1.00547,0 c -0.0906,-0.0101 -0.18091,0.0208 -0.24625,0.0843 -0.0653,0.0635 -0.0988,0.15296 -0.0913,0.24378 0,0.9375 0,1.85156 0,2.78906 -0.006,0.1019 0.0328,0.20131 0.10538,0.27303 0.0726,0.0717 0.17249,0.10884 0.27431,0.10197 l 1.99922,0 0.0492,0 z m 11.29922,6.07032 c -0.0234,0.1875 -0.0516,0.30468 -0.0539,0.42187 0,0.84375 0,1.66406 0,2.50781 0,0.46875 0.075,0.5625 0.56485,0.5625 1.81171,0 3.62578,-0.0234 5.4375,-0.0234 0.46875,0 0.52968,-0.0703 0.53437,-0.58594 0,-0.75 0,-1.5 0,-2.27344 0,-0.60937 -0.0258,-0.63281 -0.64219,-0.63281 -1.53281,0 -3.06562,-0.0234 -4.59843,-0.0234 -0.43829,0 -0.83204,0.0234 -1.27266,0.0469 l 0.0305,0 z m 3.20156,-9.5625 c -0.91406,0 -1.82812,-0.0234 -2.74219,0 -0.46875,0 -0.50859,0.0469 -0.51328,0.51562 0,0.79688 0,1.59375 0,2.36719 0,0.53906 0.0539,0.60937 0.58125,0.60937 l 5.3625,0 c 0.46875,0 0.5461,-0.0937 0.55313,-0.5625 0.009,-0.79687 0.009,-1.59375 0,-2.39062 0,-0.49219 -0.068,-0.53906 -0.56016,-0.53906 -0.93516,-0.0234 -1.83047,0 -2.72344,0 l 0.0422,0 z m -0.45703,8.15625 2.38594,0 c 0.50156,0 0.58828,-0.0937 0.59531,-0.58594 0.009,-0.79688 0.009,-1.59375 0,-2.39063 0,-0.51562 -0.0984,-0.60937 -0.58594,-0.60937 l -4.70156,0 c -0.48984,0 -0.53672,0.0469 -0.54141,0.5625 0,0.79687 0,1.61719 0,2.4375 0,0.51562 0.0727,0.5625 0.59297,0.58594 l 2.20547,0 0.0492,0 z m -19.6875,27.46875 c 0.37969,-1.47657 0.75469,-2.95313 1.13203,-4.40625 l 28.17891,0 c -0.06,0.15348 -0.13134,0.30232 -0.21328,0.44531 -0.81563,1.21875 -1.64063,2.4375 -2.44688,3.67969 -0.15279,0.25511 -0.43168,0.40755 -0.72891,0.39843 -0.6375,-0.0234 -1.275,-0.0234 -1.9125,-0.0234 -0.52265,0.0234 -0.58593,0.0703 -0.58828,0.58593 0,1.14844 0,2.27344 -0.0141,3.42188 -0.002,0.27303 -0.0781,0.54039 -0.22031,0.77344 -1.35469,2.0625 -2.72813,4.10156 -4.09922,6.16406 -0.0422,0.0469 -0.0984,0.11719 -0.17578,0.21094 -0.11261,-0.19051 -0.14943,-0.41641 -0.10313,-0.63282 0,-3.09375 0,-6.21093 0,-9.30468 l 0,-0.375 c 0,-0.82032 -0.1664,-0.96094 -0.99375,-0.84375 -0.1027,3e-4 -0.2006,0.0435 -0.27003,0.11917 -0.0694,0.0757 -0.1041,0.17692 -0.0956,0.27926 0,0.16407 0,0.35157 0,0.53907 0,3.96093 0,7.89843 0,11.85937 0.0119,0.41862 -0.11229,0.82981 -0.35391,1.17188 -1.31719,1.94531 -2.61562,3.89062 -3.92344,5.85937 -0.0878,0.1286 -0.20617,0.23331 -0.34453,0.30469 l 0,-18.9375 c 0,-0.11719 0,-0.23438 0,-0.375 0,-0.77344 -0.3164,-1.00781 -1.07343,-0.79688 -0.12952,0.0703 -0.22691,0.18781 -0.27188,0.32813 -0.0292,0.20179 -0.0347,0.4063 -0.0164,0.60937 0,6.91407 0,13.85157 0,20.76563 0.0144,0.4165 -0.1038,0.82682 -0.3375,1.17187 -1.31953,1.94532 -2.61328,3.89063 -3.9164,5.85938 -0.0946,0.12963 -0.21219,0.24084 -0.34688,0.32812 0,-0.21093 -0.0164,-0.44531 -0.0164,-0.65625 0,-8.03906 0,-16.07812 0,-24.11718 0,-1.21875 0,-2.41407 0,-3.63282 0,-0.63281 -0.0586,-0.67968 -0.70313,-0.67968 -0.12001,-0.004 -0.24011,0.004 -0.35859,0.0234 -0.0994,-0.0134 -0.19967,0.0182 -0.2735,0.0861 -0.0738,0.0679 -0.11361,0.16521 -0.10853,0.26542 0,0.21093 0,0.39843 0,0.60937 l 0,29.10938 c -0.036,-0.003 -0.0721,0.005 -0.10313,0.0234 -0.0797,-0.0937 -0.17109,-0.1875 -0.23437,-0.28125 -1.32422,-2.03906 -2.63907,-4.07812 -3.98438,-6.11718 -0.20768,-0.31161 -0.31259,-0.68043 -0.3,-1.05469 0,-7.19531 0,-14.41406 0,-21.60938 l 0,-0.30468 c 0,-0.67969 0,-0.67969 -0.65859,-0.77344 -0.0573,-0.0148 -0.11183,-0.0385 -0.16172,-0.0703 l 0.0375,0 z m -17.8875,28.96875 -0.76641,-1.125 c -1.10859,-1.66407 -2.2125,-3.30469 -3.33515,-4.94532 -0.24958,-0.35693 -0.38076,-0.78324 -0.375,-1.21875 0.0125,-6.77343 0.0125,-13.53906 0,-20.29687 l 0,-0.49219 c 0,-0.75 -0.375,-1.00781 -1.08516,-0.75 -0.12637,0.0711 -0.21979,0.18888 -0.26016,0.32813 -0.028,0.20189 -0.0335,0.40627 -0.0164,0.60937 l 0,19.03125 c -0.1205,-0.0977 -0.23047,-0.20763 -0.32813,-0.32812 -1.35,-2.01563 -2.69297,-4.03125 -4.05,-6.04688 -0.17047,-0.26456 -0.25254,-0.57642 -0.23437,-0.89062 0,-3.79688 0,-7.59375 0,-11.41407 l 0,-0.53906 c 0.0765,-0.28747 -0.0363,-0.59195 -0.28148,-0.76034 -0.24522,-0.16839 -0.56987,-0.16425 -0.81071,0.0103 -0.12246,0.0488 -0.21402,0.15341 -0.24609,0.28125 -0.0305,0.17798 -0.0384,0.35911 -0.0234,0.53906 0,3.14063 0,6.28125 0,9.42188 l 0,0.77344 c -0.15703,-0.16407 -0.2625,-0.23438 -0.32813,-0.32813 -1.34531,-1.99219 -2.68125,-4.00781 -4.03125,-6 -0.18235,-0.26016 -0.27379,-0.57321 -0.26015,-0.89062 0.0141,-1.05469 0,-2.10938 0,-3.16407 0,-0.60937 -0.0562,-0.65625 -0.68672,-0.67968 l -1.85156,0 c -0.22355,0.0296 -0.44204,-0.0824 -0.54844,-0.28125 -0.89219,-1.33594 -1.78906,-2.67188 -2.69063,-4.00782 -0.0209,-0.0363 -0.0352,-0.0759 -0.0422,-0.11718 0.006,-0.0165 0.0138,-0.0322 0.0234,-0.0469 0.005,-0.0206 0.0184,-0.0379 0.0375,-0.0469 0.15938,0 0.31641,-0.0234 0.46875,-0.0234 l 27.58829,0 c 0.38437,1.5 0.75937,2.97656 1.14609,4.5 -0.18516,0 -0.28125,0.0234 -0.375,0.0234 -0.13281,-0.0213 -0.26742,0.0255 -0.35843,0.12454 -0.091,0.099 -0.12628,0.2371 -0.0939,0.36764 0,0.16407 0,0.35157 0,0.53907 0,7.17187 0,14.36718 0,21.53906 0.0119,0.41585 -0.10518,0.8252 -0.33516,1.17187 -1.31484,1.99219 -2.60625,4.00782 -3.90703,6 -0.0938,0.14153 -0.22418,0.25494 -0.37735,0.32813 l 0,-29.15625 c 0,-0.89063 -0.19921,-1.05469 -1.07578,-0.91406 -0.21015,0.0101 -0.37256,0.18825 -0.36328,0.39843 0,0.21094 0,0.39844 0,0.60938 0,9.04687 0,18.09375 0,27.14062 l 0,0.70313 c -0.068,0 -0.11719,0.0234 -0.16406,0.0234 l 0.0375,0 z m 12.525,18.75 c -0.25313,-0.375 -0.45469,-0.67969 -0.65156,-0.96094 -0.92578,-1.40625 -1.84453,-2.78906 -2.78672,-4.17188 -0.19996,-0.29735 -0.30236,-0.6496 -0.29297,-1.00781 0,-13.61719 0.005,-27.24219 0.0164,-40.875 0.0305,-0.55432 0.11765,-1.10406 0.26015,-1.64062 0.38672,-1.80469 0.7875,-3.60938 1.17188,-5.41407 0.0234,-0.14745 0.0383,-0.29613 0.0445,-0.44531 -0.95156,0.30469 -1.65703,0.9375 -2.61563,1.3125 0.11016,-0.28125 0.17578,-0.46875 0.25782,-0.65625 0.23437,-0.53906 0.46875,-1.05469 0.70312,-1.59375 0.0641,-0.23834 0.29761,-0.38998 0.54141,-0.35156 l 1.01484,0 c 0.12853,0.0207 0.25987,-0.013 0.36256,-0.0931 0.10269,-0.08 0.16748,-0.19914 0.17885,-0.32883 0.0891,-0.44531 0.20859,-0.89062 0.32343,-1.38281 l 4.99688,0 c 0.0141,0.23438 0.0422,0.46875 0.0422,0.70313 0,3.11718 0,6.23437 0,9.35156 0,13.78125 0,27.57031 0,41.36719 0.0119,0.55231 -0.15223,1.0941 -0.46875,1.54687 -0.9375,1.33594 -1.81875,2.69531 -2.72578,4.05469 -0.10782,0.16406 -0.225,0.32812 -0.41016,0.58594 l 0.0375,0 z m -1.44844,-55.92188 c 0.11953,0.14063 0.23438,0.25781 0.33985,0.39844 0.0892,0.14648 0.23327,0.25119 0.40012,0.29082 0.16686,0.0396 0.34263,0.0109 0.48816,-0.0799 0.31875,-0.16407 0.66562,-0.25782 0.99375,-0.39844 0.11886,-0.0681 0.22575,-0.15514 0.3164,-0.25781 -0.84992,-0.19121 -1.73337,-0.17513 -2.57578,0.0469 l 0.0375,0 z m -39.17344,-8.625 0.42188,0 0,3.49219 -0.42188,0 0,-3.49219 z m 5.89454,2.85938 0.0164,-0.0234 c -0.0249,-0.0756 -0.0368,-0.15482 -0.0351,-0.23438 l 0,-2.60156 0.41953,0 0,3.49219 -0.41953,0 -1.8375,-2.8125 -0.0164,0 c 0.0232,0.084 0.035,0.17069 0.0352,0.25781 l 0,2.55469 -0.45704,0 0,-3.49219 0.42188,0 1.87266,2.85938 z m 3.08203,-2.85938 2.65078,0 0,0.35156 -1.11328,0 0,3.14063 -0.42188,0 0,-3.14063 -1.11562,0 0,-0.35156 z m 7.58672,3.14063 0,0.35156 -2.25,0 0,-3.49219 2.25,0 0,0.35156 -1.82813,0 0,1.19532 1.54688,0 0,0.35156 -1.54688,0 0,1.24219 1.82813,0 0,0 z m 3.08671,-3.14063 1.8586,0 c 0.0871,7.1e-4 0.1708,0.0342 0.23437,0.0937 l 0.12188,0.0937 c 0.0753,0.0645 0.11894,0.15861 0.11953,0.25781 l 0,1.17188 c -0.001,0.10003 -0.0469,0.19435 -0.12422,0.25781 l -0.12656,0.11719 c -0.0694,0.0462 -0.151,0.0707 -0.23438,0.0703 l -0.28125,0 0.51563,0.82031 c 0.0206,0.0352 0.0467,0.0669 0.0773,0.0937 0.0281,0.0315 0.0635,0.0557 0.10313,0.0703 l 0.0563,0.0234 c 0.0409,0.0242 0.0767,0.056 0.10547,0.0937 0.0121,0.0458 0.0168,0.0933 0.0141,0.14063 l 0,0.1875 -0.24844,0 c -0.0435,-0.0121 -0.0825,-0.0365 -0.1125,-0.0703 l -0.0961,-0.0703 c -0.0721,-0.0498 -0.13349,-0.11354 -0.18047,-0.1875 l -0.66797,-1.07812 -0.72188,0 0,1.40625 -0.42187,0 0,-3.49219 0.009,0 z m 0.42188,0.35156 0,1.38282 1.34062,0 c 0.0266,-0.0104 0.0505,-0.0263 0.0703,-0.0469 0.0221,-0.009 0.0403,-0.0257 0.0516,-0.0469 0.003,-0.0312 0.003,-0.0626 0,-0.0937 l 0,-1.00782 c 0.003,-0.0312 0.003,-0.0626 0,-0.0937 0,0 -0.0234,-0.0234 -0.0516,-0.0469 -0.0198,-0.0205 -0.0438,-0.0365 -0.0703,-0.0469 l -1.3664,0 0.0258,0 z m 7.73437,0.28125 -0.42187,0 0,-0.0937 c 0.003,-0.0312 0.003,-0.0626 0,-0.0937 -0.0188,-0.0146 -0.0368,-0.0303 -0.0539,-0.0469 -0.0198,-0.0205 -0.0438,-0.0365 -0.0703,-0.0469 l -1.46484,0 c -0.0269,0.01 -0.051,0.0258 -0.0703,0.0469 -0.0305,0.0234 -0.0492,0.0469 -0.0539,0.0469 -0.003,0.0312 -0.003,0.0626 0,0.0937 l 0,2.41407 c -0.003,0.0312 -0.003,0.0626 0,0.0937 0,0 0.0234,0.0234 0.0539,0.0469 0.0193,0.021 0.0435,0.0371 0.0703,0.0469 l 1.46484,0 c 0.0265,-0.0104 0.0505,-0.0263 0.0703,-0.0469 0.0171,-0.0166 0.0351,-0.0323 0.0539,-0.0469 0.003,-0.0312 0.003,-0.0626 0,-0.0937 l 0,-0.91407 -0.76406,0 0,-0.35156 1.18593,0 0,1.35938 c -5.4e-4,0.0997 -0.0452,0.1941 -0.12187,0.25781 l -0.11953,0.0937 c -0.0638,0.0592 -0.14734,0.0926 -0.23438,0.0937 l -1.60547,0 c -0.0871,-7e-4 -0.17079,-0.0342 -0.23437,-0.0937 l -0.12188,-0.0937 c -0.0753,-0.0645 -0.11894,-0.15861 -0.11953,-0.25781 l 0,-2.60157 c 5.9e-4,-0.0992 0.0442,-0.19326 0.11953,-0.25781 l 0.12188,-0.0937 c 0.0636,-0.0596 0.14725,-0.093 0.23437,-0.0937 l 1.60547,0 c 0.087,10e-4 0.17055,0.0346 0.23438,0.0937 l 0.11953,0.0937 c 0.0767,0.0637 0.12133,0.15809 0.12187,0.25781 l 0,0.1875 0,0 z m 2.83594,2.85938 1.20469,-3.49219 0.59297,0 1.23047,3.49219 -0.42188,0 -0.2625,-0.72656 -1.70625,0 -0.25078,0.72656 -0.42187,0 0.0351,0 z m 1.51172,-3.21094 -0.0211,0 c -0.003,0.0562 -0.0146,0.11166 -0.0352,0.16406 l -0.67734,1.99219 1.46015,0 -0.6914,-1.99219 c -0.0328,-0.0502 -0.0566,-0.1057 -0.0703,-0.16406 l 0.0352,0 z m 6.64688,2.85938 0,0.35156 -2.17032,0 0,-3.49219 0.42188,0 0,3.14063 1.7039,0 0.0445,0 z m 2.42812,0.35156 1.20469,-3.49219 0.59297,0 1.23047,3.49219 -0.42188,0 -0.26016,-0.72656 -1.67343,0 -0.25078,0.72656 -0.42188,0 0,0 z m 1.51172,-3.21094 -0.0211,0 c -0.003,0.0562 -0.0146,0.11166 -0.0352,0.16406 l -0.67734,1.99219 1.43671,0 -0.70312,-1.99219 c -0.0206,-0.0524 -0.0325,-0.10782 -0.0352,-0.16406 l 0.0352,0 z m 4.47891,-0.28125 0.42187,0 0,1.54688 0.54141,0 0.75703,-1.21875 c 0.047,-0.074 0.10836,-0.13773 0.18047,-0.1875 l 0.0961,-0.0703 c 0.03,-0.0338 0.069,-0.0582 0.1125,-0.0703 l 0.23438,0 0,0.1875 c 0.004,0.0475 -0.002,0.0952 -0.0164,0.14063 -0.0288,0.0378 -0.0646,0.0696 -0.10547,0.0937 l -0.0539,0.0234 c -0.0405,0.0141 -0.0768,0.0383 -0.10546,0.0703 -0.0313,0.0356 -0.0581,0.075 -0.0797,0.11718 l -0.60235,0.96094 c -0.0175,0.0593 -0.0661,0.10427 -0.12656,0.11719 l 0,0.0234 c 0.0556,0.0215 0.10081,0.0635 0.12656,0.11718 l 0.6375,1.00782 c 0.0194,0.0429 0.0455,0.0825 0.0773,0.11718 0.0301,0.0314 0.067,0.0555 0.10781,0.0703 l 0.0563,0.0234 c 0.0398,0.0247 0.0748,0.0564 0.10313,0.0937 0.0144,0.0454 0.02,0.0931 0.0164,0.14063 l 0,0.1875 -0.29531,0 c -0.0435,-0.0121 -0.0825,-0.0365 -0.1125,-0.0703 l -0.0937,-0.0703 c -0.039,-0.0145 -0.0737,-0.0387 -0.10078,-0.0703 -0.0164,-0.0234 -0.0445,-0.0703 -0.082,-0.11719 l -0.78282,-1.26562 -0.52031,0 0,1.59375 -0.41719,0 0,-3.49219 0.0258,0 z m 4.78359,0 2.65078,0 0,0.35156 -1.11562,0 0,3.14063 -0.42188,0 0,-3.14063 -1.11328,0 0,-0.35156 z m 5.33672,0 0.42187,0 0,3.49219 -0.42187,0 0,-3.49219 z m 5.24062,1.89844 -1.2,0 c -0.0846,-0.0118 -0.16499,-0.044 -0.23437,-0.0937 l -0.13594,-0.11719 c -0.062,-0.0533 -0.10005,-0.12932 -0.10547,-0.21094 l 0,-1.03125 c 0.001,-0.0995 0.0459,-0.19351 0.12188,-0.25781 l 0.11953,-0.0937 c 0.0641,-0.0588 0.14742,-0.0922 0.23437,-0.0937 l 1.33594,0 c 0.087,0.002 0.17031,0.0349 0.23438,0.0937 l 0.11953,0.0937 c 0.0753,0.0645 0.11894,0.15861 0.11953,0.25781 l 0,0.1875 -0.41953,0 0,-0.0937 c 0.004,-0.0311 0.004,-0.0626 0,-0.0937 0,0 -0.0211,-0.0234 -0.0516,-0.0469 -0.0198,-0.0205 -0.0437,-0.0365 -0.0703,-0.0469 l -1.19531,0 c -0.0266,0.0104 -0.0505,0.0263 -0.0703,0.0469 -0.0305,0.0234 -0.0469,0.0469 -0.0516,0.0469 -0.005,0.0311 -0.005,0.0627 0,0.0937 l 0,0.79688 c -0.006,0.0309 -0.006,0.0628 0,0.0937 0.008,0.0289 0.0265,0.0539 0.0516,0.0703 0.0255,0.0123 0.0492,0.028 0.0703,0.0469 l 1.31484,0 c 0.0871,7e-4 0.1708,0.0342 0.23438,0.0937 l 0.11953,0.0937 c 0.0767,0.0637 0.12133,0.15809 0.12187,0.25781 l 0,1.05469 c -5.4e-4,0.0997 -0.0452,0.1941 -0.12187,0.25781 l -0.11953,0.0937 c -0.0636,0.0596 -0.14725,0.0931 -0.23438,0.0937 l -1.43437,0 c -0.0871,-7e-4 -0.1708,-0.0342 -0.23438,-0.0937 l -0.12187,-0.0937 c -0.0753,-0.0645 -0.11894,-0.15861 -0.11953,-0.25781 l 0,-0.1875 0.42187,0 0,0.0937 c -0.003,0.0312 -0.003,0.0626 0,0.0937 0,0 0.0234,0.0234 0.0539,0.0469 0.0189,0.0215 0.0432,0.0377 0.0703,0.0469 l 1.25859,0 c 0.0266,-0.0104 0.0505,-0.0263 0.0703,-0.0469 0.0305,-0.0234 0.0492,-0.0469 0.0539,-0.0469 0.003,-0.0312 0.003,-0.0626 0,-0.0937 l 0,-0.84375 c 0.005,-0.0311 0.005,-0.0627 0,-0.0937 -0.009,-0.0291 -0.0282,-0.054 -0.0539,-0.0703 -0.0198,-0.0205 -0.0438,-0.0365 -0.0703,-0.0469 l -0.11718,0 0.0352,0 z m 6.32813,-1.26563 -0.42188,0 0,-0.0937 c 0.003,-0.0312 0.003,-0.0626 0,-0.0937 0,0 -0.0234,-0.0234 -0.0516,-0.0469 -0.0201,-0.0212 -0.045,-0.0373 -0.0727,-0.0469 l -1.47421,0 c -0.0266,0.0104 -0.0506,0.0263 -0.0703,0.0469 -0.0305,0.0234 -0.0492,0.0469 -0.0539,0.0469 -0.003,0.0312 -0.003,0.0626 0,0.0937 l 0,2.41407 c -0.003,0.0312 -0.003,0.0626 0,0.0937 0,0 0.0234,0.0234 0.0539,0.0469 0.0198,0.0205 0.0438,0.0365 0.0703,0.0469 l 1.47421,0 c 0.0276,-0.01 0.0525,-0.0257 0.0727,-0.0469 0.0281,-0.0234 0.0469,-0.0469 0.0516,-0.0469 0.003,-0.0312 0.003,-0.0626 0,-0.0937 l 0,-0.0937 0.42188,0 0,0.1875 c -5.9e-4,0.0992 -0.0442,0.19326 -0.11953,0.25781 l -0.12188,0.0937 c -0.0636,0.0596 -0.14725,0.0931 -0.23437,0.0937 l -1.61719,0 c -0.087,-10e-4 -0.17055,-0.0346 -0.23438,-0.0937 l -0.11953,-0.0937 c -0.0767,-0.0637 -0.12133,-0.15809 -0.12187,-0.25781 l 0,-2.60157 c 5.4e-4,-0.0997 0.0452,-0.1941 0.12187,-0.25781 l 0.11953,-0.0937 c 0.0638,-0.0592 0.14734,-0.0926 0.23438,-0.0937 l 1.61719,0 c 0.0871,7.1e-4 0.17079,0.0342 0.23437,0.0937 l 0.12188,0.0937 c 0.0753,0.0645 0.11894,0.15861 0.11953,0.25781 l 0,0.1875 0,0 z m 5.20547,-0.63281 0.42187,0 0,3.49219 -0.42187,0 0,-1.61719 -1.84219,0 0,1.61719 -0.42188,0 0,-3.49219 0.42188,0 0,1.54688 1.82578,0 0,-1.54688 0.0164,0 z m 5.88515,3.14063 0,0.35156 -2.25,0 0,-3.49219 2.25,0 0,0.35156 -1.82812,0 0,1.19532 1.54687,0 0,0.35156 -1.54687,0 0,1.24219 1.82812,0 0,0 z"
         inkscape:connector-curvature="0" />
    </g>
  </g>
</svg>
