<?xml version="1.0" encoding="UTF-8" standalone="no"?>
<svg
   xmlns:dc="http://purl.org/dc/elements/1.1/"
   xmlns:cc="http://creativecommons.org/ns#"
   xmlns:rdf="http://www.w3.org/1999/02/22-rdf-syntax-ns#"
   xmlns:svg="http://www.w3.org/2000/svg"
   xmlns="http://www.w3.org/2000/svg"
   xmlns:sodipodi="http://sodipodi.sourceforge.net/DTD/sodipodi-0.dtd"
   xmlns:inkscape="http://www.inkscape.org/namespaces/inkscape"
   version="1.1"
   id="Calque_1"
   x="0px"
   y="0px"
   viewBox="0 0 296 111.6066"
   style="enable-background:new 0 0 296 111.6066;"
   xml:space="preserve"
   inkscape:version="0.91 r13725"
   sodipodi:docname="misc.svg"><metadata
     id="metadata12441"><rdf:RDF><cc:Work
         rdf:about=""><dc:format>image/svg+xml</dc:format><dc:type
           rdf:resource="http://purl.org/dc/dcmitype/StillImage" /><dc:title></dc:title></cc:Work></rdf:RDF></metadata><defs
     id="defs12439" /><sodipodi:namedview
     pagecolor="#ffffff"
     bordercolor="#666666"
     borderopacity="1"
     objecttolerance="10"
     gridtolerance="10"
     guidetolerance="10"
     inkscape:pageopacity="0"
     inkscape:pageshadow="2"
     inkscape:window-width="731"
     inkscape:window-height="480"
     id="namedview12437"
     showgrid="false"
     inkscape:zoom="0.92567568"
     inkscape:cx="148"
     inkscape:cy="55.803299"
     inkscape:window-x="0"
     inkscape:window-y="99"
     inkscape:window-maximized="0"
     inkscape:current-layer="Calque_1" /><path
     d="M76.6688,91.2262l1.4557-7.0361h1.4557l-0.2426,1.2131c0.2426-0.7279,1.2131-1.4557,1.941-1.4557 c0.2426,0,0.7279,0,0.9705,0.4852c0.2426,0.2426,0.2426,0.7279,0.2426,0.9705c0.4853-0.7279,1.2131-1.4557,1.941-1.4557 c0.9705,0,1.2131,0.7279,0.9705,2.1836l-0.9705,5.0951H82.977l0.9705-4.3672c0.2426-0.7279,0-1.2131-0.4853-1.2131 c-0.7279,0.2426-1.2131,0.7279-1.4557,1.2131l-0.9705,4.3672h-1.4557l0.9705-4.3672c0.2426-0.7279,0-1.2131-0.4852-1.2131 c-0.7279,0.2426-1.2131,0.7279-1.4557,1.2131l-0.9705,4.3672H76.6688L76.6688,91.2262z M89.2852,91.2262l0.2426-1.4557 c-0.4852,0.7279-1.2131,1.4557-1.941,1.4557c-0.4853,0-0.7279-0.2426-0.9705-0.4852c-0.2426-0.4852-0.2426-0.9705,0-1.6984 l0.9705-5.0951h1.4557l-0.9705,4.6098c-0.2426,0.7279,0,1.2131,0.2426,1.2131c0.7279-0.2426,1.2131-0.7279,1.4557-1.2131 l0.9705-4.3672h1.4557l-1.4557,7.0361L89.2852,91.2262L89.2852,91.2262z M92.1967,90.9836l0.2426-1.4557 c0.4853,0.2426,0.9705,0.4852,1.6984,0.4852c0.4852,0,0.9705-0.2426,0.9705-0.7279c0-0.4852-0.2426-0.7279-0.4853-0.9705 l-0.4852-0.2426c-0.4852-0.2426-0.7279-0.4852-0.9705-0.9705c-0.2426-0.4852-0.2426-0.7279,0-1.2131 c0-0.4852,0.4853-1.2131,0.9705-1.4557c0.4852-0.4852,0.9705-0.4852,1.6984-0.4852c0.4852,0,0.9705,0,1.4557,0.2426l-0.2426,1.2131 c-0.4852-0.2426-0.9705-0.4852-1.2131-0.4852c-0.4853,0-0.9705,0.2426-0.9705,0.7279c0,0.2426,0.2426,0.7279,0.4852,0.7279 l0.4853,0.2426c0.4852,0.2426,0.7279,0.4852,0.9705,0.9705c0.2426,0.4852,0.2426,0.7279,0,1.2131 c0,0.7279-0.4853,1.2131-0.9705,1.6983c-0.4853,0.4852-0.9705,0.7279-1.6984,0.7279 C93.4098,91.4688,92.9246,91.2262,92.1967,90.9836L92.1967,90.9836z M100.4459,90.4984c-0.4853,0.4852-0.9705,0.9705-1.6984,0.9705 c-0.4852,0-0.7279-0.2426-0.9705-0.4852c-0.2426-0.4852-0.2426-0.9705-0.2426-1.4557c0-0.7279,0.4852-1.4557,0.9705-1.941 c0.7279-0.4852,1.4557-0.7279,2.1836-0.7279h0.4852l0.2426-0.7279c0.2426-0.7279,0-0.9705-0.7279-0.9705 c-0.7279,0-1.2131,0.2426-1.6984,0.7279l0.2426-1.2131c0.7279-0.2426,1.2131-0.4852,1.941-0.4852 c1.4557,0,1.941,0.7279,1.6984,2.1836l-0.7279,3.1541c0,0.4852,0,0.7279,0.2426,0.7279h0.2426l-0.2426,0.9705 c-0.2426,0-0.4852,0.2426-0.7279,0.2426s-0.4852,0-0.7279-0.2426C100.6885,90.9836,100.6885,90.741,100.4459,90.4984 L100.4459,90.4984L100.4459,90.4984z M100.6885,89.5279l0.2426-1.4557h-0.2426c-0.7279,0-1.4557,0.4852-1.6984,1.2131 c0,0.2426,0,0.4852,0,0.7279c0,0.2426,0.2426,0.2426,0.4852,0.2426C99.9607,90.0131,100.4459,89.7705,100.6885,89.5279z M103.3574,90.9836l0.2426-1.4557c0.4853,0.2426,0.9705,0.4852,1.6984,0.4852c0.4852,0,0.9705-0.2426,0.9705-0.7279 c0-0.4852-0.2426-0.7279-0.4853-0.9705l-0.4852-0.2426c-0.4852-0.2426-0.7279-0.4852-0.9705-0.9705 c-0.2426-0.4852-0.2426-0.7279,0-1.2131c0-0.4852,0.4853-1.2131,0.9705-1.4557c0.4852-0.4852,0.9705-0.4852,1.6984-0.4852 c0.4852,0,0.9705,0,1.4557,0.2426l-0.2426,1.2131c-0.4852-0.2426-0.9705-0.4852-1.2131-0.4852 c-0.4853,0-0.9705,0.2426-0.9705,0.7279c0,0.2426,0.2426,0.7279,0.4852,0.7279l0.4853,0.2426 c0.4852,0.2426,0.7279,0.4852,0.9705,0.9705c0.2426,0.4852,0.2426,0.7279,0,1.2131c0,0.7279-0.4853,1.2131-0.9705,1.6983 c-0.4853,0.4852-0.9705,0.7279-1.6984,0.7279C104.5705,91.4688,104.0853,91.2262,103.3574,90.9836L103.3574,90.9836z M108.9377,91.2262l1.941-10.1902h1.4557l-0.9705,4.3672c0.4852-0.7279,1.2131-1.4557,1.941-1.4557 c0.4852,0,0.7279,0.2426,0.9705,0.4852c0.2426,0.4852,0.2426,1.2131,0,1.6984l-0.9705,5.0951h-1.4557l0.9705-4.6098 c0.2426-0.7279,0-1.2131-0.2426-1.2131c-0.7279,0.2426-1.2131,0.7279-1.4557,1.2131l-0.9705,4.3672h-1.2131V91.2262z M116.9443,82.977l0.2426-1.6984h1.4557L118.4,82.977H116.9443L116.9443,82.977z M115.4885,91.2262l1.4557-7.0361H118.4 l-1.4557,7.0361H115.4885L115.4885,91.2262z M123.2525,82.977l0.2426-1.6984h1.4557l-0.2426,1.6984H123.2525z M121.7967,91.2262 l1.4557-7.0361h1.4557l-1.4557,7.0361H121.7967L121.7967,91.2262z M124.9508,91.2262l1.4557-7.0361h1.4557l-0.2426,1.2131 c0.4852-0.7279,1.2131-1.4557,1.941-1.4557c0.4852,0,0.7279,0.2426,0.9705,0.4852c0.2426,0.4852,0.2426,1.2131,0,1.6983 l-0.9705,5.0951h-1.4557l0.9705-4.6098c0.2426-0.7279,0-1.2131-0.2426-1.2131c-0.7279,0.2426-1.2131,0.7279-1.4557,1.2131 l-0.9705,4.3672h-1.4557V91.2262z M134.4131,91.2262l0.2426-1.4557c-0.2426,0.7279-1.2131,1.4557-1.941,1.4557 c-0.4852,0-1.2131-0.4852-1.2131-0.9705c-0.2426-0.7279-0.2426-1.6983,0-2.6688s0.4852-1.941,1.2131-2.9115 c0.4852-0.7279,0.9705-0.9705,1.941-0.9705c0.4852,0,0.9705,0.2426,1.2131,0.9705l0.7279-3.882h1.4557l-1.941,10.1902h-1.6983 V91.2262z M135.6262,86.1311c0-0.4852-0.4852-0.7279-0.9705-0.7279c-0.4852,0-0.7279,0.2426-0.9705,0.7279 c-0.2426,0.4852-0.4852,1.2131-0.7279,1.941c-0.2426,1.4557,0,2.1836,0.4852,2.1836c0.7279-0.2426,1.2131-0.4852,1.4557-0.9705 L135.6262,86.1311z M140.9639,91.2262l0.2426-1.4557c-0.4852,0.7279-1.2131,1.4557-1.941,1.4557 c-0.4852,0-0.7279-0.2426-0.9705-0.4852c-0.2426-0.4852-0.2426-0.9705,0-1.6984l0.9705-5.0951h1.4557l-0.9705,4.6098 c-0.2426,0.7279,0,1.2131,0.2426,1.2131c0.7279-0.2426,1.2131-0.7279,1.4557-1.2131l0.9705-4.3672h1.4557l-1.4557,7.0361 L140.9639,91.2262L140.9639,91.2262z M143.8754,90.9836l0.2426-1.4557c0.4852,0.2426,0.9705,0.4852,1.6983,0.4852 c0.4852,0,0.9705-0.2426,0.9705-0.7279c0-0.4852-0.2426-0.7279-0.4852-0.9705l-0.4852-0.2426 c-0.4852-0.2426-0.7279-0.4852-0.9705-0.9705c-0.2426-0.4852-0.2426-0.7279,0-1.2131c0-0.4852,0.4852-1.2131,0.9705-1.4557 c0.4852-0.4852,0.9705-0.4852,1.6983-0.4852c0.4852,0,0.9705,0,1.4557,0.2426l-0.2426,1.2131 c-0.4852-0.2426-0.9705-0.4852-1.2131-0.4852c-0.4852,0-0.9705,0.2426-0.9705,0.7279c0,0.2426,0.2426,0.7279,0.4852,0.7279 l0.4852,0.2426c0.4852,0.2426,0.7279,0.4852,0.9705,0.9705c0.2426,0.4852,0.2426,0.7279,0,1.2131 c0,0.7279-0.4852,1.2131-0.9705,1.6983c-0.4852,0.4852-0.9705,0.7279-1.6983,0.7279 C145.0885,91.4688,144.6033,91.2262,143.8754,90.9836L143.8754,90.9836z M152.1246,91.2262c-0.2426,0-0.4852,0.2426-0.7279,0.2426 c-1.2131,0-1.6984-0.7279-1.4557-2.4262l0.7279-3.6393h-0.4852l0.2426-1.2131h0.4852l0.2426-1.2131l1.4557-0.2426l-0.2426,1.4557 h1.2131l-0.2426,1.2131h-1.2131L151.3967,88.8c-0.2426,0.9705,0,1.2131,0.4852,1.2131c0.2426,0,0.2426,0,0.4852,0L152.1246,91.2262z M153.3377,91.2262l1.4557-7.0361h1.4557l-0.2426,1.2131c0.2426-0.7279,0.9705-1.4557,1.941-1.4557h0.2426l-0.2426,1.6983 c-0.2426,0-0.2426-0.2426-0.4852-0.2426c-0.7279,0-1.2131,0.4852-1.6983,1.2131l-0.9705,4.3672h-1.4558V91.2262z M159.4033,82.977 l0.2426-1.6984h1.4557l-0.2426,1.6984H159.4033L159.4033,82.977z M157.7049,91.2262l1.4557-7.0361h1.4557l-1.4557,7.0361H157.7049z M163.7705,90.4984c-0.4852,0.4852-0.9705,0.9705-1.6983,0.9705c-0.4852,0-0.7279-0.2426-0.9705-0.4852 c-0.2426-0.4852-0.2426-0.9705-0.2426-1.4557c0-0.7279,0.4852-1.4557,0.9705-1.941c0.7279-0.4852,1.4557-0.7279,2.1836-0.7279 h0.4852l0.2426-0.7279c0.2426-0.7279,0-0.9705-0.7279-0.9705s-1.2131,0.2426-1.6983,0.7279l0.2426-1.2131 c0.7279-0.2426,1.2131-0.4852,1.941-0.4852c1.4557,0,1.941,0.7279,1.6983,2.1836l-0.7279,3.1541c0,0.4852,0,0.7279,0.2426,0.7279 h0.2426l-0.2426,0.9705c-0.2426,0-0.4852,0.2426-0.7279,0.2426c-0.2426,0-0.4852,0-0.7279-0.2426 C163.7705,90.9836,163.7705,90.741,163.7705,90.4984L163.7705,90.4984z M163.7705,89.5279l0.2426-1.4557h-0.2426 c-0.7279,0-1.4557,0.4852-1.6983,1.2131c0,0.2426,0,0.4852,0,0.7279c0,0.2426,0.2426,0.2426,0.4852,0.2426 C163.2852,90.0131,163.5279,89.7705,163.7705,89.5279L163.7705,89.5279z M166.682,91.2262l1.941-10.1902h1.4557l-1.941,10.1902 H166.682z M175.659,90.4984c-0.4852,0.4852-0.9705,0.9705-1.6984,0.9705c-0.4852,0-0.7279-0.2426-0.9705-0.4852 c-0.2426-0.4852-0.2426-0.9705-0.2426-1.4557c0-0.7279,0.4852-1.4557,0.9705-1.941c0.7279-0.4852,1.4557-0.7279,2.1836-0.7279 h0.4852l0.2426-0.7279c0.2426-0.7279,0-0.9705-0.7279-0.9705s-1.2131,0.2426-1.6983,0.7279l0.2426-1.2131 c0.7279-0.2426,1.2131-0.4852,1.941-0.4852c1.4557,0,1.941,0.7279,1.6983,2.1836l-0.7279,3.1541c0,0.4852,0,0.7279,0.2426,0.7279 h0.2426L177.6,91.2263c-0.2426,0-0.4852,0.2426-0.7279,0.2426c-0.2426,0-0.4852,0-0.7279-0.2426 C175.9016,90.9836,175.659,90.741,175.659,90.4984L175.659,90.4984L175.659,90.4984z M175.9016,89.5279l0.2426-1.4557h-0.2426 c-0.7279,0-1.4557,0.4852-1.6983,1.2131c0,0.2426,0,0.4852,0,0.7279c0,0.2426,0.2426,0.2426,0.4852,0.2426 C175.1738,90.0131,175.659,89.7705,175.9016,89.5279L175.9016,89.5279z M178.8131,91.2262l1.4557-7.0361h1.4557l-0.2426,1.2131 c0.4852-0.7279,1.2131-1.4557,1.941-1.4557c0.4852,0,0.7279,0.2426,0.9705,0.4852c0.2426,0.4852,0.2426,1.2131,0,1.6983 l-0.9705,5.0951h-1.4557l0.9705-4.6098c0.2426-0.7279,0-1.2131-0.2426-1.2131c-0.7279,0.2426-1.2131,0.7279-1.4557,1.2131 l-0.9705,4.3672h-1.4557V91.2262z M188.2754,91.2262l0.2426-1.4557c-0.2426,0.7279-1.2131,1.4557-1.941,1.4557 c-0.4852,0-1.2131-0.4852-1.2131-0.9705c-0.2426-0.7279-0.2426-1.6983,0-2.6688s0.4852-1.941,1.2131-2.9115 c0.4852-0.7279,0.9705-0.9705,1.941-0.9705c0.4852,0,0.9705,0.2426,1.2131,0.9705l0.7279-3.882h1.2131l-1.941,10.1902h-1.4557 V91.2262z M189.2459,86.1311c0-0.4852-0.4852-0.7279-0.9705-0.7279c-0.4852,0-0.7279,0.2426-0.9705,0.7279 c-0.2426,0.4852-0.4852,1.2131-0.7279,1.941c-0.2426,1.4557,0,2.1836,0.4852,2.1836c0.7279-0.2426,1.2131-0.4852,1.4557-0.9705 L189.2459,86.1311z M194.5836,90.9836l0.2426-1.4557c0.4852,0.2426,0.9705,0.4852,1.6983,0.4852 c0.4852,0,0.9705-0.2426,0.9705-0.7279c0-0.4852-0.2426-0.7279-0.4852-0.9705l-0.4852-0.2426 c-0.4852-0.2426-0.7279-0.4852-0.9705-0.9705c-0.2426-0.4852-0.2426-0.7279,0-1.2131c0-0.4852,0.4852-1.2131,0.9705-1.4557 c0.4852-0.4852,0.9705-0.4852,1.6983-0.4852c0.4852,0,0.9705,0,1.4557,0.2426l-0.2426,1.2131 c-0.4852-0.2426-0.9705-0.4852-1.2131-0.4852c-0.4852,0-0.9705,0.2426-0.9705,0.7279c0,0.2426,0.2426,0.7279,0.4852,0.7279 l0.2426,0.2426c0.4852,0.2426,0.7279,0.4852,0.9705,0.9705c0.2426,0.4852,0.2426,0.7279,0,1.2131 c0,0.7279-0.4852,1.2131-0.9705,1.6983c-0.4852,0.4852-0.9705,0.7279-1.6983,0.7279 C195.7967,91.4688,195.0689,91.2262,194.5836,90.9836L194.5836,90.9836z M202.8328,91.2262c-0.2426,0-0.4852,0.2426-0.7279,0.2426 c-1.2131,0-1.6983-0.7279-1.4557-2.4262l0.7279-3.6393h-0.4852l0.2426-1.2131h0.4852l0.2426-1.2131l1.4557-0.2426l-0.2426,1.4557 h1.2131l-0.2426,1.2131h-1.2131L202.1049,88.8c-0.2426,0.9705,0,1.2131,0.4852,1.2131c0.2426,0,0.2426,0,0.4852,0L202.8328,91.2262z M206.7148,90.4984c-0.4852,0.4852-0.9705,0.9705-1.6984,0.9705c-0.4852,0-0.7279-0.2426-0.9705-0.4852 c-0.2426-0.4852-0.2426-0.9705-0.2426-1.4557c0-0.7279,0.4852-1.4557,0.9705-1.941c0.7279-0.4852,1.4557-0.7279,2.1836-0.7279 h0.4852l0.2426-0.7279c0.2426-0.7279,0-0.9705-0.7279-0.9705s-1.2131,0.2426-1.6983,0.7279l0.2426-1.2131 c0.7279-0.2426,1.2131-0.4852,1.941-0.4852c1.4557,0,1.941,0.7279,1.6983,2.1836l-0.7279,3.1541c0,0.4852,0,0.7279,0.2426,0.7279 h0.2426l-0.2426,0.9705c-0.2426,0-0.4852,0.2426-0.7279,0.2426c-0.2426,0-0.4852,0-0.7279-0.2426 C206.9574,90.9836,206.7148,90.741,206.7148,90.4984L206.7148,90.4984L206.7148,90.4984z M206.9574,89.5279l0.2426-1.4557h-0.2426 c-0.7279,0-1.4557,0.4852-1.6983,1.2131c0,0.2426,0,0.4852,0,0.7279c0,0.2426,0.2426,0.2426,0.4852,0.2426 C206.2295,90.0131,206.7148,89.7705,206.9574,89.5279L206.9574,89.5279z M209.8689,91.2262l1.4557-7.0361h1.4557l-0.2426,1.2131 c0.2426-0.7279,0.9705-1.4557,1.941-1.4557h0.2426l-0.2426,1.6983c-0.2426,0-0.2426-0.2426-0.4852-0.2426 c-0.7279,0-1.2131,0.4852-1.6983,1.2131l-0.9705,4.3672h-1.4557V91.2262z M214.2361,91.2262l1.2131-5.823h-0.7279l0.2426-1.2131 h0.7279v-0.4852c0-1.4557,0.9705-2.6688,2.4262-2.6688c0.4852,0,0.7279,0,1.2131,0.2426l-0.2426,1.2131 c-0.2426-0.2426-0.7279-0.2426-0.9705-0.2426c-0.4852,0-0.7279,0.4852-0.9705,1.4557v0.4852h1.2131l-0.2426,1.2131h-1.2131 l-1.2131,5.823H214.2361L214.2361,91.2262z M218.118,91.2262l1.941-10.1902h1.4557l-1.941,10.1902H218.118z M222.9705,82.977 l0.2426-1.6984h1.4557l-0.2426,1.6984H222.9705L222.9705,82.977z M221.2721,91.2262l1.4557-7.0361h1.4557l-1.4557,7.0361H221.2721z M224.1836,93.4098l0.4852-1.4557c0.4852,0.2426,0.9705,0.4852,1.4557,0.4852c0.4852,0,0.9705-0.2426,1.2131-0.4852 c0.2426-0.4852,0.4852-0.9705,0.7279-1.4557l0.2426-0.9705c-0.2426,0.9705-0.9705,1.4557-1.941,1.4557 c-0.4852,0-1.2131-0.4852-1.2131-0.9705c-0.2426-0.7279-0.2426-1.6983,0-2.6688c0.2426-0.9705,0.4852-1.941,1.2131-2.6688 c0.4852-0.7279,0.9705-0.9705,1.941-0.9705c0.4852,0,0.9705,0.2426,1.2131,0.9705l0.2426-0.7279h1.2131l-0.9705,5.3377 c-0.2426,0.7279-0.2426,1.4557-0.4852,2.4262c-0.2426,0.4852-0.4852,0.9705-0.7279,1.2131 c-0.4852,0.4852-1.4557,0.7279-2.1836,0.7279C225.3967,93.8951,224.6689,93.8951,224.1836,93.4098L224.1836,93.4098z M228.3082,88.5574l0.4852-2.6689c0-0.4852-0.4852-0.7279-0.9705-0.7279c-0.4852,0-0.7279,0.2426-0.9705,0.7279 c-0.2426,0.4852-0.4852,1.2131-0.7279,1.6984c-0.2426,1.4557,0,2.1836,0.4852,2.1836 C227.3377,89.5279,228.0656,89.2853,228.3082,88.5574L228.3082,88.5574z M230.977,91.2262l1.941-10.1902h1.4557l-0.9705,4.3672 c0.4852-0.7279,1.2131-1.4557,1.941-1.4557c0.4852,0,0.7279,0.2426,0.9705,0.4852c0.2426,0.4852,0.2426,1.2131,0,1.6984 l-0.9705,5.0951h-1.4557l0.9705-4.6098c0.2426-0.7279,0-1.2131-0.2426-1.2131c-0.7279,0.2426-1.2131,0.7279-1.4557,1.2131 l-0.9705,4.3672h-1.2131V91.2262z M239.9541,91.2262c-0.2426,0-0.4852,0.2426-0.7279,0.2426c-1.2131,0-1.6983-0.7279-1.4557-2.4262 l0.7279-3.6393h-0.7279l0.2426-1.2131h0.4852l0.2426-1.2131l1.4557-0.2426l-0.2426,1.4557h1.2131l-0.2426,1.2131h-1.2131 L238.9836,88.8c-0.2426,0.9705,0,1.2131,0.4852,1.2131c0.2426,0,0.2426,0,0.4852,0L239.9541,91.2262z M248.2033,91.2262 c-0.4852,0.2426-1.2131,0.2426-1.6984,0.2426c-0.7279,0-1.4557-0.2426-1.6983-0.9705c-0.4852-0.9705-0.4852-1.6984-0.2426-2.6689 c0.2426-0.9705,0.4852-1.941,1.2131-2.6688c0.4852-0.7279,1.4557-0.9705,2.1836-0.9705c0.4852,0,0.9705,0,1.4557,0.2426 l-0.2426,1.4557c-0.4852-0.2426-0.7279-0.2426-1.2131-0.4852c-0.4852,0-0.9705,0.2426-1.2131,0.7279 c-0.4852,0.4852-0.7279,1.2131-0.7279,1.6983c-0.2426,0.4852-0.2426,1.2131,0,1.6984c0.2426,0.4852,0.4852,0.7279,0.9705,0.7279 c0.4852,0,0.9705-0.2426,1.4557-0.4852L248.2033,91.2262z M251.6,91.4688c-0.7279,0-1.4557-0.2426-1.6983-0.9705 c-0.4852-0.9705-0.4852-1.6984-0.2426-2.6689c0.2426-0.9705,0.4852-1.941,1.2131-2.6688c0.4852-0.7279,1.2131-0.9705,2.1836-0.9705 c0.7279,0,1.4557,0.2426,1.6984,0.9705c0.4852,0.9705,0.4852,1.6984,0.2426,2.6688c-0.2426,0.9705-0.4852,1.941-1.2131,2.6689 C253.2984,90.9836,252.5705,91.4688,251.6,91.4688L251.6,91.4688z M251.8426,90.2557c0.7279,0,1.4557-0.9705,1.6983-2.4262 c0.2426-0.4852,0.2426-1.2131,0-1.941c0-0.4852-0.4852-0.7279-0.7279-0.7279c-0.4852,0-0.7279,0.2426-0.9705,0.7279 c-0.2426,0.4852-0.4852,1.2131-0.7279,1.941c-0.2426,0.4852-0.2426,1.2131,0,1.941C251.1148,90.0131,251.6,90.2557,251.8426,90.2557 L251.8426,90.2557z M255.7246,91.2262l1.4557-7.0361h1.4557l-0.2426,1.2131c0.4853-0.7279,1.2131-1.4557,1.941-1.4557 c0.4852,0,0.7279,0.2426,0.9705,0.4852c0.2426,0.4852,0.2426,1.2131,0,1.6983l-0.9705,5.0951h-1.4557l0.9705-4.6098 c0.2426-0.7279,0-1.2131-0.2426-1.2131c-0.7279,0.2426-1.2131,0.7279-1.4557,1.2131l-0.9705,4.3672h-1.4558V91.2262z M265.9148,91.2262c-0.4852,0.2426-1.2131,0.2426-1.6983,0.2426c-0.7279,0-1.4557-0.2426-1.6984-0.9705 c-0.4852-0.9705-0.4852-1.6984-0.2426-2.6689c0.2426-0.9705,0.4852-1.941,1.2131-2.6688c0.4852-0.7279,1.4557-0.9705,2.1836-0.9705 c0.4852,0,0.9705,0,1.4557,0.2426l-0.2426,1.4557c-0.4852-0.2426-0.7279-0.2426-1.2131-0.4852 c-0.4853,0-0.9705,0.2426-1.2131,0.7279c-0.4852,0.4852-0.7279,1.2131-0.7279,1.6983c-0.2426,0.4852-0.2426,1.2131,0,1.6984 s0.4853,0.7279,0.9705,0.7279s0.9705-0.2426,1.4557-0.4852L265.9148,91.2262z M271.4951,90.9836 c-0.7279,0.2426-1.2131,0.4852-1.941,0.4852s-1.4557-0.2426-1.941-0.9705c-0.4853-0.9705-0.4853-1.941-0.2426-2.6689 c0.2426-0.9705,0.4852-1.941,1.2131-2.6688c0.4852-0.7279,1.2131-0.9705,1.941-0.9705s1.2131,0.2426,1.4557,0.9705 c0.2426,0.9705,0.2426,2.1836,0,3.1541h-3.1541c-0.2426,1.4557,0.2426,1.941,1.2131,1.941c0.4853,0,1.2131-0.2426,1.6984-0.4852 L271.4951,90.9836z M269.0688,87.1016h1.941c0.2426-1.2131,0-1.6984-0.4852-1.6984 C269.5541,85.4033,269.0688,86.1311,269.0688,87.1016L269.0688,87.1016z M272.9508,91.2262l1.4558-7.0361h1.4557l-0.2426,1.2131 c0.2426-0.7279,0.9705-1.4557,1.941-1.4557h0.2426l-0.2426,1.6983c-0.2426,0-0.2426-0.2426-0.4852-0.2426 c-0.7279,0-1.2131,0.4852-1.6984,1.2131l-0.9705,4.3672h-1.4558V91.2262z M277.3181,91.2262l1.4557-7.0361h1.4557l-0.2426,1.2131 c0.4852-0.7279,1.2131-1.4557,1.941-1.4557c0.4853,0,0.7279,0.2426,0.9705,0.4852c0.2426,0.4852,0.2426,1.2131,0,1.6983 l-0.9705,5.0951h-1.4557l0.9705-4.6098c0.2426-0.7279,0-1.2131-0.2426-1.2131c-0.7279,0.2426-1.2131,0.7279-1.4557,1.2131 l-0.9705,4.3672h-1.4557V91.2262z M0,56.2885v-0.7279L47.5541,0h18.1967l0,0l-16.741,20.1377h11.6459c3.6393,0,7.0361,0,10.6754,0 c0.7279,0,1.2131,0.4852,1.4557,0.9705c2.6688,8.7344,5.3377,17.4688,8.0066,26.2033c0.7279,2.4262,1.4557,4.6098,2.1836,7.0361 c0.2426,0.7279,0.2426,1.4557-0.2426,1.941l-46.8262,55.318H17.7115c5.5803-6.5508,11.1607-13.3443,16.9836-20.1377H11.1607 L0,56.2885z M36.3934,75.941c3.6393,0,7.0361,0,10.6754,0c0.7279,0,1.2131-0.2426,1.6984-0.7279 c3.1541-3.6393,6.0656-7.0361,9.2197-10.6754c2.1836-2.4262,4.3672-4.8525,6.3082-7.5213c0.7279-0.7279,0.9705-1.6984,0.4852-2.6688 c-1.941-5.5803-3.6393-11.4033-5.3377-16.9836c0-0.4852-0.2426-0.9705-0.7279-1.2131c-0.4852-0.2426-0.9705-0.4852-1.4557-0.2426 c-6.5508,0-13.1016,0-19.6525,0c-1.4557,0-2.6688,0.4852-3.6393,1.6984c-4.6098,5.3377-9.2197,10.6754-13.5869,16.0131 c-0.7279,0.9705-2.1836,1.6984-1.6984,3.3967c1.941,5.823,3.6393,11.6459,5.5803,17.4688c0.2426,0.9705,0.9705,1.4557,1.941,1.4557 C29.6,75.6984,32.9967,75.941,36.3934,75.941z M296,38.3344c-0.7279,2.1836-1.4557,4.6098-2.1836,6.7934 c0,0.4852-0.2426,0.9705-0.7279,1.2131s-0.9705,0.4852-1.4557,0.2426c-7.5213,0-15.0426,0-22.5639,0 c-4.3672-0.4852-8.4918,2.1836-9.9475,6.3082c-0.7279,2.4262-1.4557,4.8525-1.6984,7.2787c-0.4852,4.3672,2.1836,5.823,5.823,5.823 c7.5213,0,15.0426,0,22.5639,0h2.1836c-0.9705,3.3967-1.6984,6.5508-2.6689,9.7049c-0.2426,0.4852-0.7279,0.7279-1.4557,0.7279 c-9.7049,0-19.4098,0.2426-29.1147,0c-4.8525,0.2426-9.4623-2.6688-11.6459-7.0361c-0.9705-2.6689-1.2131-5.823-0.7279-8.7344 c0.4852-4.8525,2.1836-9.4623,4.6098-13.5869c3.3967-5.823,9.2197-9.7049,16.0131-10.6754 c3.1541-0.2426,6.0656-0.4852,9.2197-0.4852c7.7639,0,15.5279,0,23.2918,0v2.4262H296z M90.4984,36.1508h1.6984 c20.3803,0,40.7607,0,61.141,0c6.3082,0,11.4033,2.9115,12.859,8.7344c0.7279,3.6393,0.4852,7.2787-0.7279,10.918 c-1.6983,6.3082-3.6393,12.859-5.3377,19.1672c0,0.4852-0.2426,0.9705-0.7279,1.2131c-0.4852,0.2426-0.9705,0.4852-1.4557,0.2426 c-4.3672,0-8.4918,0-13.1016,0c0.9705-3.1541,1.941-6.0656,2.6688-8.7344c0.9705-3.882,2.1836-7.7639,2.9115-11.8885 c0.4852-1.6984,0.7279-3.3967,0.7279-5.3377c0.2426-1.6984-0.9705-3.3967-2.9115-3.882c-1.2131-0.4852-2.6688-0.7279-4.1246-0.7279 c-3.1541,0-6.5508,0-9.7049,0c-2.6689,10.1902-5.5803,20.1377-8.2492,30.3279h-13.8295c2.6688-9.9475,5.3377-19.8951,8.0066-30.0852 c-0.7279,0-1.2131-0.2426-1.4557-0.2426c-5.0951,0-10.4328,0-15.5279,0c-0.4852,0-0.9705,0-1.4557,0.2426 c-0.4852,0.2426-0.7279,0.7279-0.7279,1.2131c-1.941,7.5213-4.1246,15.0426-6.0656,22.3213 c-0.4852,1.941-0.9705,3.882-1.4557,5.5803c-0.2426,0.4852-0.7279,0.7279-1.4557,0.9705c-4.3672,0-8.7344,0-13.3443,0 C83.2197,63.082,86.6164,49.4951,90.4984,36.1508L90.4984,36.1508z M244.3213,36.1508c-0.7279,2.9115-1.4557,5.5803-2.1836,8.2492 c0,0.4852-0.2426,0.9705-0.7279,1.2131c-0.4852,0.2426-0.9705,0.2426-1.4557,0.2426c-9.9475,0-19.6525,0-29.6,0 c-1.6984-0.2426-3.3967,0.9705-3.882,2.9115c-0.2426,0.7279-0.2426,1.6984,0.2426,2.4262c0.4852,0.7279,1.4557,0.9705,2.4262,0.9705 c6.7935,0,13.8295,0,20.623,0c6.0656,0,9.7049,2.6688,8.977,9.2197c-0.2426,3.882-1.6983,7.5213-4.1246,10.6754 c-2.6688,2.9115-6.3082,4.6098-10.4328,4.6098c-12.6164,0.2426-25.4754,0-38.3344,0c0.7279-2.9115,1.4557-5.823,2.1836-8.4918 c0.2426-0.9705,1.2131-1.4557,2.1836-1.2131c9.7049,0,19.6525,0,29.3574,0c1.6984,0.2426,3.3967-0.7279,4.1246-2.4262 c1.2131-2.4262,0.2426-3.882-2.4262-3.882c-6.3082,0-12.859,0-19.1672,0c-2.6689,0-5.0951-0.7279-7.2787-2.1836 c-1.6983-1.2131-2.9115-3.1541-2.9115-5.3377c-0.2426-4.1246,0.9705-8.0066,3.3967-11.1607 c2.1836-2.9115,5.3377-4.8525,8.977-5.3377c1.6983-0.2426,3.3967-0.4852,5.0951-0.4852c10.6754,0,21.5934,0,32.2689,0 L244.3213,36.1508L244.3213,36.1508z M191.1869,36.8787c-3.6393,13.3443-7.2787,26.4459-10.6754,39.5476h-14.5574 c0.7279-3.1541,1.6983-6.5508,2.4262-9.7049c2.1836-8.0066,4.6098-16.0131,6.7935-24.0197 c0.4852-1.6984,0.7279-3.1541,1.2131-4.8525c0.2426-0.4852,0.7279-0.9705,1.2131-0.9705 C181.9672,36.8787,186.3344,36.8787,191.1869,36.8787L191.1869,36.8787z M35.9082,37.3639c1.941,6.3082,3.882,12.1311,5.823,18.4393 c-7.0361,0.2426-14.0721,0-21.5934,0C25.4754,49.7377,30.5705,43.6721,35.9082,37.3639L35.9082,37.3639z M41.7311,55.8033 c5.3377-6.3082,10.4328-12.1311,15.5279-18.1967c1.941,6.3082,3.882,12.1311,5.5803,18.1967H41.7311z M26.2033,74 c5.3377-6.0656,10.1902-12.1311,15.5279-18.1967c1.941,6.3082,3.6393,12.1311,5.5803,18.1967H26.2033L26.2033,74z"
     id="path12435" /></svg>