<?xml version="1.0" encoding="UTF-8" standalone="no"?>
<svg
   xmlns:dc="http://purl.org/dc/elements/1.1/"
   xmlns:cc="http://creativecommons.org/ns#"
   xmlns:rdf="http://www.w3.org/1999/02/22-rdf-syntax-ns#"
   xmlns:svg="http://www.w3.org/2000/svg"
   xmlns="http://www.w3.org/2000/svg"
   xmlns:sodipodi="http://sodipodi.sourceforge.net/DTD/sodipodi-0.dtd"
   xmlns:inkscape="http://www.inkscape.org/namespaces/inkscape"
   width="301"
   height="115"
   viewBox="0 0 301 115"
   id="svg9087"
   version="1.1"
   inkscape:version="0.91 r13725"
   sodipodi:docname="origin.svg">
  <metadata
     id="metadata9095">
    <rdf:RDF>
      <cc:Work
         rdf:about="">
        <dc:format>image/svg+xml</dc:format>
        <dc:type
           rdf:resource="http://purl.org/dc/dcmitype/StillImage" />
        <dc:title></dc:title>
      </cc:Work>
    </rdf:RDF>
  </metadata>
  <defs
     id="defs9093" />
  <sodipodi:namedview
     pagecolor="#ffffff"
     bordercolor="#666666"
     borderopacity="1"
     objecttolerance="10"
     gridtolerance="10"
     guidetolerance="10"
     inkscape:pageopacity="0"
     inkscape:pageshadow="2"
     inkscape:window-width="731"
     inkscape:window-height="480"
     id="namedview9091"
     showgrid="false"
     inkscape:zoom="0.910299"
     inkscape:cx="150.5"
     inkscape:cy="57.5"
     inkscape:window-x="0"
     inkscape:window-y="99"
     inkscape:window-maximized="0"
     inkscape:current-layer="svg9087" />
  <path
     fill-rule="evenodd"
     d="M17.5,158.738091 C17.7177332,157.891351 17.8798234,157.020418 18.1604572,156.173678 C19.6676545,151.67386 21.1313052,147.174041 22.7570461,142.722608 C25.2310087,135.929309 28.1926342,129.323663 31.6187855,122.957276 C36.2059851,114.233821 41.8162746,106.088018 48.3310149,98.6921253 C54.1583934,92.0778258 60.847767,86.2761917 68.219729,81.4428208 C76.2880449,76.1714061 85.1237683,72.1807635 94.4130277,69.6126527 C99.679689,68.118891 105.080446,67.1465116 110.537378,66.7095439 C115.092839,66.3466553 119.696686,66.5643885 124.278759,66.6369662 C125.725125,66.6049441 127.140871,67.0561439 128.301984,67.9191726 C103.637702,72.4417746 80.5264194,83.1553938 61.1361437,99.0550139 C41.9535335,115.104662 26.9752635,135.591102 17.5,158.738091 L17.5,158.738091 Z M280.415205,165.003968 C278.522888,165.22976 276.608657,165.197205 274.725112,164.907197 C274.449317,163.33468 282.02885,120.973485 282.682049,118.67519 C284.598654,118.434703 286.535651,118.402257 288.459236,118.57842 C293.938853,130.481166 299.418471,142.359719 305.040825,154.552776 C305.626883,152.552967 306.031727,150.50446 306.250454,148.432055 C306.661727,146.496649 306.915749,144.537051 307.254445,142.577452 C307.602818,140.545276 307.965707,138.537293 308.328596,136.529309 C308.681807,134.569711 309.054373,132.634305 309.400327,130.674707 C309.760796,128.642531 310.10675,126.634547 310.4648,124.626563 C310.810754,122.666965 311.166384,120.731559 311.536531,118.67519 C313.514616,118.396936 315.521914,118.396936 317.5,118.67519 C317.422584,119.449353 317.398391,120.054167 317.291944,120.658981 C316.113766,127.336132 314.923491,133.989089 313.738055,140.666239 C313.065501,144.464473 312.402625,148.238515 311.717975,152.012556 C310.992198,156.028523 310.239809,160.068683 309.492258,164.08465 C309.437536,164.314684 309.36804,164.54095 309.284202,164.762042 C307.345799,165.285751 305.298999,165.252211 303.378795,164.665272 C297.952401,153.149607 292.438914,141.488787 286.927846,129.803774 C286.812865,129.823822 286.69612,129.831929 286.579473,129.827967 C284.527942,141.464594 282.488509,153.125414 280.415205,165.003968 L280.415205,165.003968 Z M134.904137,129.634426 C134.110621,133.916511 133.401778,137.714745 132.695355,141.512979 C130.017237,143.037111 127.457663,144.561243 124.818253,145.94022 C122.211303,147.401397 119.39559,148.453924 116.469396,149.061062 C114.72995,149.375565 113.043728,149.956187 111.321217,150.367461 C106.986589,151.442067 102.474062,151.590451 98.0782025,150.802927 C95.3756072,150.405579 92.7207599,149.732747 90.1551349,148.794944 C83.3937909,146.533098 77.8984633,141.526967 75.017842,135.005177 C73.9606883,132.528242 73.3575661,129.881387 73.2372687,127.190976 C73.0340453,122.762042 73.8389167,118.344763 75.591206,114.272142 C77.4982635,109.931663 80.1760988,105.972696 83.4949196,102.58713 C86.2754503,99.6729848 89.4187869,97.1280692 92.8477682,95.0148542 C100.887662,89.9958213 110.180108,87.3461072 119.657978,87.3700012 C126.854104,87.3693172 133.865612,89.6474856 139.687009,93.8778033 C144.195271,97.1482259 147.294856,102.007269 148.360046,107.474029 C148.651534,108.913259 148.867145,110.36682 149.005988,111.828692 C149.107596,112.893166 149.025342,113.981831 149.025342,115.264038 C146.535926,115.457578 144.240051,115.626926 141.740958,115.820467 C141.779666,115.19146 141.789343,114.514068 141.866759,113.836676 C142.400347,109.478273 141.392132,105.070541 139.016874,101.377501 C135.77762,96.2362129 130.623704,92.5971302 124.694871,91.2650054 C121.187846,90.3209074 117.553621,89.9371541 113.926757,90.1279545 C106.904631,90.5213746 100.074905,92.5688833 93.9944962,96.10352 C90.6386152,97.9542403 87.5829896,100.303467 84.9319584,103.070981 C81.3309297,106.734918 78.6403101,111.193044 77.07663,116.086585 C75.9262435,119.566299 75.7109916,123.28732 76.4524616,126.876473 C77.4912063,131.745591 80.3228211,136.046122 84.3852062,138.924374 C89.3218722,142.387427 95.1979634,144.261159 101.228075,144.295125 C110.144826,144.465709 118.898285,141.889672 126.301258,136.91639 C128.875217,135.246229 131.238882,133.272446 133.341297,131.037595 C133.711443,130.650514 134.146909,130.311818 134.904137,129.634426 L134.904137,129.634426 Z M159.198319,118.48165 C162.890105,118.48165 166.581892,118.554228 170.273678,118.48165 C172.762332,118.49968 175.026713,119.923702 176.121023,122.158921 C176.551364,123.080016 176.667791,124.116815 176.452462,125.110415 C175.854905,128.981227 175.104935,132.803653 174.427543,136.650272 C173.718701,140.666239 173.029213,144.706399 172.330047,148.746559 C171.805068,151.77063 171.265574,154.794702 170.764788,157.818773 C170.612838,159.699793 169.58852,161.401021 167.997157,162.415362 C166.854564,163.198977 165.668875,163.917821 164.445688,164.568501 C163.504513,164.952217 162.493118,165.133559 161.477259,165.100738 C154.538829,165.149123 147.59798,165.052353 140.671646,165.149123 C137.951572,165.07612 135.462196,163.60317 134.088847,161.254119 C133.670058,160.389407 133.563217,159.406468 133.78644,158.471973 C134.359804,154.746317 135.073485,151.02066 135.721846,147.295004 C136.723418,141.512979 137.698379,135.706762 138.707209,129.900544 C139.024132,128.061909 139.408794,126.247466 139.78136,124.433023 C139.825093,124.049145 139.947825,123.678478 140.141829,123.344357 C141.775716,120.624988 144.600305,118.839431 147.757651,118.530035 C151.57282,118.38488 155.395246,118.505842 159.215253,118.505842 L159.215253,118.48165 L159.198319,118.48165 Z M145.892404,124.795911 C145.691605,125.594266 145.389198,126.561969 145.212592,127.578057 C144.43843,131.981106 143.715072,136.384154 142.93849,140.787202 C141.970787,146.278916 140.969215,151.746438 139.991835,157.213959 C139.719173,157.822093 139.806893,158.531348 140.2195,159.054729 C140.632107,159.578109 141.301291,159.828967 141.956272,159.705794 C142.273195,159.729987 142.590117,159.705794 142.909459,159.705794 C148.696323,159.705794 154.485605,159.729987 160.274888,159.705794 C161.346619,159.705794 162.41835,159.584831 163.192512,159.536446 C164.262295,158.963812 164.927892,157.846726 164.922281,156.633337 C165.756925,151.77063 166.531087,146.907923 167.375408,142.069408 C168.253599,137.037353 169.189851,132.005298 170.087396,126.94905 C170.208359,126.271658 170.254324,125.594266 170.314806,125.086222 C169.726429,124.05868 168.590208,123.471632 167.411697,123.586283 L149.284202,123.586283 C148.04137,123.555635 146.831261,123.986585 145.887565,124.795911 L145.892404,124.795911 Z M193.450163,146.762768 L185.004536,146.762768 C184.284532,147.757678 183.880734,148.94631 183.845712,150.17392 C182.996553,155.012435 182.215132,159.875142 181.426455,164.665272 C179.458764,165.298217 177.340875,165.289746 175.378311,164.641079 C178.03143,149.399758 180.692613,134.101988 183.36186,118.747768 C183.902915,118.632349 184.450779,118.551543 185.002117,118.505842 C192.448591,118.48165 199.895065,118.505842 207.341539,118.48165 C209.766302,118.601282 211.915111,120.081281 212.891315,122.304076 C213.279749,123.246605 213.364323,124.286867 213.133241,125.279763 C212.552619,129.005419 211.838938,132.731075 211.1809,136.432539 C210.970425,137.642168 210.798657,138.827604 210.566409,140.01304 C210.284274,141.476587 209.46217,142.780555 208.263276,143.666118 C207.711685,144.101585 207.145579,144.512858 206.58673,144.948325 C205.430485,145.873267 203.97734,146.346184 202.498186,146.278916 C201.753054,146.254724 201.003085,146.278916 199.955546,146.278916 C200.405528,147.391774 200.695839,148.214322 201.063566,149.012677 C202.183682,151.456127 203.342506,153.875384 204.467461,156.318834 C204.875375,157.258511 205.559727,158.051717 206.429479,158.592936 C207.022197,158.955824 207.559272,159.415483 208.108443,159.802564 C208.346259,161.609744 208.065173,163.44729 207.297992,165.100738 C206.468356,165.118599 205.639257,165.045587 204.825511,164.883005 C202.686914,164.360221 200.883867,162.928389 199.890226,160.963808 C198.424156,157.842966 197.057276,154.673739 195.639591,151.528704 C194.916233,149.956187 194.190456,148.38367 193.445325,146.762768 L193.450163,146.762768 Z M188.560844,123.779823 C187.527821,129.682811 186.509314,135.489029 185.485968,141.319439 C185.722873,141.417049 185.971896,141.482153 186.226261,141.512979 C191.188158,141.537172 196.145216,141.561364 201.11437,141.537172 C202.339919,141.520455 203.512694,141.035766 204.392464,140.182388 C205.321459,135.295488 206.294,130.094085 207.031874,125.182993 C206.565022,124.10433 205.455983,123.449655 204.286017,123.56209 C199.575723,123.586283 194.867848,123.586283 190.159973,123.586283 C189.622254,123.622207 189.086837,123.686813 188.556006,123.779823 L188.560844,123.779823 Z M258.883815,124.166905 C257.957071,123.887615 257.004839,123.701221 256.041188,123.610475 C251.078485,123.56209 246.114975,123.554026 241.150659,123.586283 C240.453701,123.622407 239.763852,123.744289 239.09671,123.949171 C238.134513,124.179041 237.412653,124.976836 237.279848,125.957155 C237.079049,127.215169 236.921798,128.497375 236.694387,129.755389 C235.658945,135.416451 234.572699,141.05332 233.568707,146.738575 C232.888896,150.561002 232.313112,154.407621 231.672009,158.375203 C231.976321,159.281113 232.883903,159.840721 233.829987,159.705794 C239.493468,159.705794 245.156949,159.729987 250.82285,159.681602 C251.566153,159.561058 252.295552,159.366551 253.000181,159.10098 C254.270292,154.818894 254.558183,150.536809 255.571852,146.278916 C254.018011,145.838536 252.391477,145.715127 250.78898,145.916028 C249.216463,145.84345 247.643946,145.891835 245.814987,145.891835 C246.083525,144.14997 246.313354,142.674223 246.562538,141.05332 C248.265423,140.769275 249.995973,140.688067 251.717975,140.811395 C253.498548,140.76301 255.28396,140.787202 257.064534,140.811395 C258.840335,140.726093 260.620113,140.782722 262.3869,140.980743 C262.004657,143.327422 261.649026,145.504754 261.283718,147.706278 C260.664389,151.431934 260.049897,155.133398 259.399117,158.859054 C259.327587,159.430709 259.122916,159.977604 258.80156,160.455764 C257.198385,162.534477 254.989636,164.064456 252.480041,164.83462 C251.6793,165.028884 250.85814,165.126351 250.034172,165.12493 C244.305371,165.12493 238.576569,165.02816 232.857445,165.173316 C230.073598,165.170299 227.470364,163.794459 225.899661,161.496044 C225.308198,160.558264 225.162053,159.406816 225.500484,158.35101 C225.926273,155.762405 226.42464,153.173799 226.879461,150.585194 C228.03264,144.053199 229.180174,137.505076 230.322064,130.940825 C230.619632,129.223152 230.968005,127.529672 231.166384,125.811999 C231.685528,122.996357 233.557538,120.61676 236.171828,119.449353 C237.26607,118.7912 238.524054,118.455737 239.800714,118.48165 C245.848857,118.505842 251.897,118.650998 257.945143,118.433265 C261.25444,118.275649 264.306867,120.21124 265.575481,123.271779 C265.311782,124.674949 265.038406,126.078118 264.752933,127.578057 C262.902591,127.90104 261.008921,127.884645 259.164449,127.529672 C259.070098,126.513584 258.987843,125.521689 258.878977,124.166905 L258.883815,124.166905 Z M163.042518,84.5394701 C162.529636,84.2975444 161.990142,84.0798113 161.50629,83.7895004 C156.407067,80.8719955 150.834528,78.8739067 145.043244,77.8865126 C142.666075,77.4748647 140.269538,77.1841797 137.862889,77.01558 C135.844534,76.774198 133.813613,76.6530214 131.780876,76.6526914 C127.586978,76.6924366 123.403234,77.0727034 119.270896,77.7897423 C116.464558,78.3703641 113.619511,78.7816378 110.863977,79.5316076 C107.252026,80.523503 103.698137,81.7331317 100.141829,82.9185678 C94.3026505,84.9433142 88.6327768,87.4267658 83.1852546,90.3456876 C76.497731,93.7968472 70.0633095,97.7178102 63.9303859,102.079085 C63.4295996,102.441974 62.8925245,102.756478 62.0119148,103.312907 C62.3557193,102.497808 62.9385976,101.806114 63.6836216,101.329116 C67.3681505,98.7163179 70.9970364,96.0067497 74.76382,93.5149147 C78.8572033,90.8053465 83.0376799,88.2167412 87.2665417,85.7490988 C91.8276767,83.0568888 96.5891054,80.7194454 101.508709,78.7574452 C105.899626,76.8821182 110.442529,75.3848136 115.088,74.2818192 C118.199165,73.6286198 121.31033,72.87865 124.460203,72.539954 C127.482407,72.124263 130.538516,72.0108037 133.583222,72.201258 C136.113766,72.4431837 138.63947,72.539954 141.160336,72.9996129 C148.616307,74.2734816 155.597304,77.5138535 161.382908,82.3863312 C162.0603,82.9427603 162.698984,83.5475747 163.354603,84.152389 C163.245736,84.2733518 163.139289,84.3943147 163.03768,84.5394701 L163.042518,84.5394701 Z M84.9972783,157.431692 C83.1925124,157.165574 81.3829079,156.923648 79.5805613,156.65753 C75.3123414,156.02556 71.1043435,155.038299 67.0004234,153.706036 C62.8627164,152.377259 59.0264713,150.248295 55.7097496,147.44016 C54.0193482,145.969917 52.699767,144.121508 51.858292,142.045216 C50.2784863,137.955387 50.1436215,133.448512 51.4760494,129.271537 C53.1384983,123.743061 55.7911068,118.562441 59.3047659,113.981831 C62.8635163,108.990739 66.8606676,104.327261 71.2486392,100.046909 C71.6647514,99.6598282 72.0760252,99.2485545 72.5042337,98.8614733 C72.6707319,98.7835934 72.8462637,98.7267081 73.0267933,98.6921253 C72.8313664,99.3529123 72.4698855,99.952604 71.9768356,100.433991 C68.726919,104.634878 65.8629854,109.120655 63.4199226,113.836676 C61.363209,117.598517 59.7454126,121.584157 58.5983428,125.715229 C57.4418542,129.868681 57.2761284,134.235557 58.1144914,138.464715 C58.9425123,142.448524 61.0895165,146.036808 64.2086005,148.649788 C67.8358357,151.692462 72.0990912,153.883198 76.6847103,155.06082 C79.4402443,155.81079 82.2248095,156.439797 84.9948591,157.141381 C84.9972783,157.238152 84.9972783,157.334922 84.9972783,157.431692 Z M226.666566,118.38488 C223.913451,134.085859 221.228075,149.448143 218.525765,164.883005 C216.670199,165.20954 214.774055,165.234048 212.910669,164.955582 C212.831642,164.313591 212.81382,163.665541 212.857445,163.020177 C213.738055,157.794581 214.662211,152.568985 215.564594,147.319197 C216.413753,142.408104 217.258074,137.497012 218.102395,132.58592 C218.849946,128.279642 219.61685,124.021749 220.383755,119.739664 C220.46233,119.403976 220.559246,119.072848 220.674066,118.747768 C222.664721,118.495868 224.669739,118.374645 226.676243,118.38488 L226.666566,118.38488 Z M270.711564,118.626805 L276.275856,118.626805 C276.358111,120.441248 269.078565,162.778251 268.316499,164.93139 C266.545144,165.208947 264.743334,165.233384 262.965102,165.003968 C262.7764,164.786234 262.723176,164.737849 262.696565,164.689464 C262.653307,164.64275 262.626173,164.583394 262.619148,164.520116 C265.159369,149.786839 267.704427,135.053562 270.254324,120.320285 C270.338998,119.812241 270.522862,119.32839 270.721241,118.626805 L270.711564,118.626805 Z M56.9097012,154.020539 C57.4733882,154.286658 58.0515907,154.504391 58.6031813,154.794702 C64.3268185,157.75393 70.5027655,159.740632 76.8782509,160.673497 C78.8136567,160.963808 80.7998669,161.060578 82.7618846,161.229926 C84.1490221,161.406769 85.5443785,161.511744 86.9423612,161.54443 C89.1678975,161.52054 91.3904701,161.375169 93.6001573,161.108963 C97.2532358,160.625112 100.901476,160.068683 104.515846,159.342905 C107.314927,158.786476 110.080138,157.988121 112.818737,157.189767 C118.809175,155.450082 124.64506,153.216715 130.266421,150.512616 C130.468203,150.458261 130.676869,150.433808 130.885751,150.440039 C131.106248,151.39228 130.915693,152.393353 130.360772,153.197992 C127.593141,154.552776 124.706967,156.00433 121.774828,157.383307 C119.413633,158.471973 117.035503,159.560639 114.599311,160.455764 C111.997926,161.472567 109.339494,162.336901 106.637535,163.044369 C103.213328,164.012956 99.7294132,164.75645 96.2081166,165.270086 C91.8811213,166.011781 87.4698033,166.125853 83.1102577,165.608782 C81.7990202,165.366856 80.4490746,165.439434 79.1329987,165.221701 C74.8649031,164.518199 70.7196869,163.206525 66.8238176,161.326696 C63.3081609,159.663439 60.0492907,157.504438 57.1467884,154.915665 C56.9733003,154.741164 56.811657,154.555274 56.662937,154.359235 C56.7621265,154.262465 56.8395428,154.141502 56.9193783,154.020539 L56.9097012,154.020539 Z M164.922281,115.360808 L159.776521,115.360808 C159.979739,114.44149 160.107959,113.715713 160.308758,113.014128 C161.664929,108.653383 161.932388,104.026839 161.087759,99.5388653 C160.350826,96.2810455 158.751514,93.2812909 156.4573,90.8537317 C153.772249,87.9349746 150.444078,85.6819567 146.736724,84.2733518 C142.368873,82.4869632 137.808843,81.2123957 133.147756,80.4751179 C133.670316,80.4751179 134.197714,80.4267328 134.715435,80.4751179 C140.793565,81.0640048 146.790722,82.3049636 152.603423,84.1765816 C155.955709,85.2229703 159.100729,86.8437771 161.89821,88.966711 C165.319853,91.4296349 167.634253,95.1406692 168.340692,99.2969396 C168.659932,101.380442 168.674601,103.499286 168.384239,105.587009 C167.913215,108.565854 167.007637,111.459464 165.696444,114.175372 C165.465918,114.585671 165.210617,114.98155 164.931958,115.360808 L164.922281,115.360808 Z M129.896274,157.262344 C129.813762,158.408212 129.657803,159.547604 129.429358,160.673497 C128.998452,162.133549 129.539221,163.706341 130.776884,164.592694 C131.195416,164.955582 131.606689,165.342664 132.163118,165.826515 C131.821806,166.062217 131.463593,166.272455 131.091387,166.455522 C124.839775,168.551604 118.410252,170.073959 111.882485,171.003726 C106.971387,171.631595 102.014548,171.825886 97.0693722,171.584347 C94.9813567,171.740152 92.8893685,171.339452 91.0067134,170.423104 C97.6137051,168.608661 104.218277,166.939373 110.738176,165.003968 C117.304537,162.88565 123.710275,160.298453 129.905951,157.262344 L129.896274,157.262344 Z M176.26376,176.616403 C178.441091,174.89873 179.892645,172.673013 182.031269,171.027918 C183.467631,170.700926 184.9649,170.759348 186.371416,171.197266 C185.899941,174.085835 185.264259,176.945193 184.467461,179.761437 C183.296935,180.201856 182.013914,180.244368 180.816802,179.8824 C181.0176,178.624386 181.208721,177.414757 181.448228,175.914818 C179.908914,176.826514 178.581186,178.055281 177.553224,179.519511 C176.458352,180.132314 175.158401,180.263711 173.963046,179.8824 C173.295331,178.479231 172.596165,177.003484 171.727652,175.164848 C171.154288,176.979291 170.697049,178.430845 170.205939,179.954978 L167.0101,179.954978 C167.341126,176.98298 167.989972,174.055061 168.945506,171.221459 C170.483582,170.76327 172.113112,170.704983 173.679993,171.052111 C174.461413,172.745591 175.312991,174.560034 176.273437,176.616403 L176.26376,176.616403 Z M201.794182,78.6848675 C201.663951,79.4114629 201.493535,80.130279 201.283718,80.8380065 C199.299927,86.5958388 197.451615,92.4020563 195.235575,98.0389258 C193.300169,102.974211 190.987359,107.76434 188.819705,112.578662 C188.550677,113.230394 188.191547,113.841161 187.752812,114.393105 C187.416679,114.847436 186.940732,115.178899 186.398028,115.336615 C184.508336,115.567153 182.597628,115.567153 180.707935,115.336615 C184.981329,109.642873 188.89523,103.687991 192.426817,97.5066892 C195.868088,91.4105821 198.859787,85.0714131 201.378069,78.5397121 L201.794182,78.6848675 Z M229.022922,171.027918 L232.748579,171.027918 C232.46628,171.614489 232.142908,172.18039 231.780876,172.721398 C230.329321,174.608419 228.761643,176.374477 227.447986,178.334075 C226.69782,179.63575 225.227622,180.345898 223.741684,180.124326 C223.257832,180.07594 222.754627,180.003363 222.106266,179.930785 C221.728862,178.164727 221.358715,176.471247 220.911153,174.366493 C219.936242,175.579914 219.043175,176.856879 218.237873,178.18892 C217.676549,179.525826 216.287689,180.31946 214.850913,180.124326 C214.224326,180.07594 213.597738,180.051748 213.048567,180.027555 C211.965286,177.187335 211.301095,174.204587 211.076872,171.173074 C212.088165,170.753107 213.218375,170.718676 214.253357,171.076303 C215.136386,172.697206 214.60173,174.729382 215.736361,176.49544 C217.127434,174.560034 218.424156,172.769783 219.720878,170.979533 L223.652171,170.979533 C224.090057,172.818169 224.50375,174.535841 225.009375,176.640595 C226.482702,174.608419 227.755232,172.818169 229.032599,171.027918 L229.022922,171.027918 Z M236.367788,179.616282 C236.289112,176.678687 236.96991,173.770505 238.344321,171.173074 C239.457179,171.076303 240.707935,170.882763 241.973207,170.85857 C244.131184,170.810185 246.294,170.834378 248.456816,170.834378 C249.550954,170.744964 250.640511,171.054302 251.524434,171.70531 C251.790553,174.221338 250.421253,176.398669 250.128523,178.769542 C249.204557,179.688579 247.933906,180.172217 246.632696,180.100133 C243.963449,180.148518 241.294202,180.148518 238.624955,180.100133 C237.862621,180.007624 237.110331,179.845667 236.377465,179.616282 L236.367788,179.616282 Z M239.655558,178.406653 L246.129491,178.406653 C247.137267,176.623159 247.643064,174.599968 247.593141,172.55205 C245.490289,172.324092 243.366622,172.372893 241.276461,172.697206 C240.75874,174.535841 240.245857,176.350284 239.665235,178.406653 L239.655558,178.406653 Z M259.735394,170.834378 L262.931233,170.834378 C264.709387,170.834378 266.485122,170.834378 268.253599,170.85857 C269.348362,170.7841 270.422913,171.180126 271.207512,171.947236 L270.36561,175.310004 C269.589029,175.818048 268.742289,176.350284 267.76007,176.955099 C268.050381,177.317987 268.331015,177.705068 268.657615,178.043764 C268.984214,178.38246 269.313233,178.624386 269.58419,178.866312 C269.683096,179.129199 269.647204,179.423837 269.488079,179.655292 C269.328954,179.886746 269.066707,180.025765 268.785835,180.027555 C267.980554,180.075949 267.17464,179.943697 266.427059,179.640474 C265.52527,179.045808 264.696264,178.347527 263.956998,177.559913 C263.406256,176.827077 262.425113,176.567039 261.583706,176.930906 C261.329684,177.705068 261.034535,178.576001 260.727289,179.495319 C259.747275,180.187447 258.488509,180.350452 257.364522,179.930785 C257.7003,176.797228 258.501838,173.731325 259.742652,170.834378 L259.735394,170.834378 Z M262.009496,174.922922 L266.591569,174.922922 C266.818979,174.197145 267.031874,173.519753 267.317346,172.600435 L262.682049,172.600435 C262.488509,173.30202 262.302226,173.931027 262.016753,174.922922 L262.009496,174.922922 Z M123.29654,100.917842 C125.231946,103.966106 125.159369,106.796637 123.187674,108.562695 C121.118597,110.218541 118.158604,110.147093 116.171828,108.393347 C114.465853,106.623003 114.26256,103.888706 115.687976,101.885545 C117.536289,99.3695173 119.977319,99.0792064 123.303798,100.917842 L123.29654,100.917842 Z M146.504476,179.325971 C146.57867,176.448973 147.2631,173.620546 148.512459,171.027918 L151.563143,171.027918 C151.70346,173.616523 150.227713,175.793855 150.251905,178.334075 C152.169526,178.556257 154.103851,178.596758 156.029092,178.455038 C156.71858,175.987396 157.398391,173.543946 158.049171,171.221459 C159.807971,171.173074 159.870872,171.245651 161.455486,171.221459 C161.137399,173.938181 160.479038,176.604139 159.495887,179.156623 C155.273279,180.454809 150.766763,180.513586 146.511733,179.325971 L146.504476,179.325971 Z M303.098161,178.38246 C303.340087,177.680876 303.552982,177.051869 303.78765,176.374477 C301.000665,175.93901 298.223358,176.979291 295.719427,175.140656 C296.021834,174.003605 296.304887,172.890746 296.633906,171.656925 C297.586349,171.29921 298.57536,171.047698 299.582981,170.906955 C301.678057,170.785992 303.78523,170.834378 305.885146,170.882763 C306.457531,170.89958 307.019525,171.039872 307.53266,171.294036 C307.860529,171.396775 308.118232,171.652108 308.223995,171.979014 C308.329759,172.30592 308.270453,172.663814 308.064897,172.939131 C307.087953,173.3867 305.964545,173.3867 304.987601,172.939131 C303.509156,172.409225 301.917708,172.275771 300.371658,172.55205 C300.129733,173.156865 299.90958,173.713294 299.645881,174.342301 C302.261098,175.310004 305.132757,173.713294 307.610076,175.672892 C307.300411,176.955099 307.007681,178.164727 306.753659,179.205008 C303.608625,180.608177 296.546813,180.463022 294.657373,179.03566 C294.742047,178.721156 294.836398,178.358268 294.935587,177.995379 C296.10469,177.621933 297.370225,177.690806 298.491895,178.18892 C299.98498,178.663587 301.577825,178.730408 303.105419,178.38246 L303.098161,178.38246 Z M285.54403,175.6487 C286.649631,176.979291 287.619753,178.140535 288.592295,179.301778 C288.819705,179.8824 288.166505,180.07594 287.447986,180.100133 C286.353221,180.164723 285.281052,179.770221 284.489234,179.011467 C283.603786,178.092149 282.752208,177.148639 281.828051,176.180936 C280.284565,176.809943 281.18211,178.696964 280.146667,179.567896 C279.116023,180.210993 277.841605,180.327665 276.711322,179.8824 C277.263019,176.94512 277.995019,174.044589 278.903169,171.197266 C279.971847,170.717531 281.192892,170.708753 282.268356,171.173074 C282.149813,172.310125 282.02643,173.39879 281.876436,174.922922 C283.357022,173.834257 284.518265,172.987517 285.694024,172.140777 C287.017273,171.021132 288.806212,170.623188 290.479315,171.076303 C290.688511,171.381867 290.719049,171.775746 290.559452,172.109903 C290.399854,172.44406 290.074303,172.667866 289.705153,172.697206 C288.142615,173.401787 286.73248,174.40433 285.553708,175.6487 L285.54403,175.6487 Z M204.651325,175.672892 C201.917564,177.390565 198.978166,176.229321 196.222632,176.858328 C196.010038,177.246447 195.828823,177.650946 195.680719,178.067957 C195.15332,179.930785 194.773497,180.245288 192.903411,180.100133 C192.609215,180.05536 192.319997,179.982448 192.039736,179.8824 C192.15661,176.835523 192.82634,173.835264 194.01627,171.027918 C194.477677,170.943009 194.943855,170.886453 195.412181,170.85857 C197.831438,170.834378 200.250696,170.834378 202.669953,170.85857 C203.65563,170.760274 204.64016,171.055981 205.408552,171.681118 C205.616303,173.058218 205.35198,174.465098 204.658582,175.672892 L204.651325,175.672892 Z M201.692573,172.745591 C200.14591,172.272263 198.489514,172.297655 196.958086,172.818169 L196.958086,174.922922 L201.155498,174.922922 C201.339361,174.197145 201.50629,173.519753 201.699831,172.745591 L201.692573,172.745591 Z M129.296299,179.471126 C129.211052,179.153934 129.151985,178.83028 129.119693,178.503423 C129.165965,178.188955 129.247107,177.880616 129.361618,177.584105 C130.26884,177.511528 131.188158,177.463143 132.044575,177.390565 C132.552619,177.777646 132.954216,178.092149 133.496129,178.479231 C133.979981,178.455038 134.596891,178.430845 135.358957,178.38246 C136.055703,175.914818 136.726644,173.543946 137.371779,171.269844 C138.474492,170.700838 139.788288,170.718984 140.874864,171.318229 C140.391012,173.447175 139.907161,175.600314 139.384601,177.753453 C139.250553,178.890032 138.320722,179.766846 137.178239,179.834015 C135.032358,179.954978 132.881638,180.003363 130.733337,180.003363 C130.229431,179.910404 129.745591,179.730295 129.303556,179.471126 L129.296299,179.471126 Z M126.683501,111.393226 C126.828656,111.828692 127.002843,112.385122 127.152837,112.84478 C127.032768,114.124515 125.946121,115.095113 124.661002,115.070497 C123.608739,115.070675 122.679871,114.383352 122.372384,113.377017 C122.13762,112.496044 122.456508,111.560387 123.180416,111.006145 C124.258167,110.148881 125.82569,110.32173 126.690758,111.393226 L126.683501,111.393226 Z"
     transform="translate(-17 -66)"
     id="path9089" />
</svg>
