<?xml version="1.0" encoding="UTF-8" standalone="no"?>
<svg
   xmlns:dc="http://purl.org/dc/elements/1.1/"
   xmlns:cc="http://creativecommons.org/ns#"
   xmlns:rdf="http://www.w3.org/1999/02/22-rdf-syntax-ns#"
   xmlns:svg="http://www.w3.org/2000/svg"
   xmlns="http://www.w3.org/2000/svg"
   xmlns:sodipodi="http://sodipodi.sourceforge.net/DTD/sodipodi-0.dtd"
   xmlns:inkscape="http://www.inkscape.org/namespaces/inkscape"
   viewBox="0 0 301 159"
   id="svg13093"
   version="1.1"
   inkscape:version="0.91 r13725"
   sodipodi:docname="rsi.svg">
  <metadata
     id="metadata13101">
    <rdf:RDF>
      <cc:Work
         rdf:about="">
        <dc:format>image/svg+xml</dc:format>
        <dc:type
           rdf:resource="http://purl.org/dc/dcmitype/StillImage" />
        <dc:title></dc:title>
      </cc:Work>
    </rdf:RDF>
  </metadata>
  <defs
     id="defs13099" />
  <sodipodi:namedview
     pagecolor="#ffffff"
     bordercolor="#666666"
     borderopacity="1"
     objecttolerance="10"
     gridtolerance="10"
     guidetolerance="10"
     inkscape:pageopacity="0"
     inkscape:pageshadow="2"
     inkscape:window-width="731"
     inkscape:window-height="480"
     id="namedview13097"
     showgrid="false"
     inkscape:zoom="0.910299"
     inkscape:cx="150.5"
     inkscape:cy="79.5"
     inkscape:window-x="0"
     inkscape:window-y="99"
     inkscape:window-maximized="0"
     inkscape:current-layer="svg13093" />
  <path
     fill-rule="evenodd"
     d="M66.1192097,214.756566 C65.9054672,214.52396 65.6656661,214.316725 65.4045389,214.13895 C66.2588568,213.695304 66.6839255,212.712486 66.422136,211.786124 C66.3986078,211.109686 66.422136,210.433249 66.422136,209.727401 C66.4600437,209.01181 66.1943925,208.313416 65.6904907,207.803916 C65.1865889,207.294415 64.4911735,207.021063 63.775207,207.051062 L56.5255623,207.051062 L56.5255623,221.785633 C59.228371,221.785633 61.8870642,221.844454 64.5428164,221.785633 C65.7149038,221.573814 66.5926407,220.591816 66.6721238,219.403397 C66.6721238,218.226984 66.7132982,217.050571 66.6485955,215.874159 C66.5628519,215.465054 66.3814394,215.082072 66.1192097,214.756566 Z M59.1107297,209.433298 L62.5576196,209.433298 C63.7987352,209.433298 63.7987352,209.433298 63.7987352,210.668531 C63.7987352,211.168507 63.7987352,211.639072 63.7987352,212.109637 C63.7744245,212.6283 63.3766089,213.052304 62.8605459,213.109588 C61.6311944,213.138999 60.4018429,213.138999 59.1136708,213.138999 L59.1136708,209.433298 L59.1107297,209.433298 Z M64.0281358,218.932832 C63.9856483,219.140048 63.8351701,219.308494 63.6340374,219.373987 C62.1635213,219.403397 60.6665358,219.403397 59.1195528,219.403397 L59.1195528,215.521235 C60.4577225,215.521235 61.7664819,215.491824 63.0840644,215.521235 C63.6306335,215.594343 64.0404109,216.058006 64.0457819,216.609417 C64.048723,217.374085 64.0663692,218.168164 64.0281358,218.932832 Z M202.1596,216.727058 C202.009607,216.521186 201.936081,216.403544 201.865497,216.315313 C200.006764,213.344871 198.150973,210.403838 196.277535,207.462806 C196.153114,207.272994 195.962172,207.136607 195.742267,207.080472 C195.068771,207.021651 194.389393,207.051062 193.665899,207.051062 L193.665899,221.756223 L196.271653,221.756223 L196.271653,212.197868 C196.492231,212.550792 196.618695,212.727254 196.736336,212.903716 C198.536248,215.727107 200.330278,218.521088 202.141954,221.344479 C202.259904,221.546747 202.443641,221.702457 202.662516,221.785633 C203.353659,221.815044 204.050684,221.785633 204.765355,221.785633 L204.765355,207.109882 L202.150777,207.109882 L202.150777,216.727058 L202.1596,216.727058 Z M51.3493455,207.080472 C48.9592666,207.051062 46.5682073,207.051062 44.1761677,207.080472 C42.9303118,207.22464 41.966569,208.24041 41.8880446,209.492118 C41.8880446,211.168507 41.8880446,212.815485 41.8880446,214.462463 C41.8880446,216.109441 41.8880446,217.727009 41.8880446,219.344577 C41.9506092,220.646922 42.9783317,221.696135 44.2791038,221.785633 C46.6084014,221.815044 48.937699,221.815044 51.2669966,221.785633 C52.5421626,221.693746 53.55598,220.678676 53.6462917,219.403397 C53.6462917,216.080031 53.6462917,212.786075 53.6462917,209.492118 C53.5781899,208.234808 52.6073956,207.212919 51.3552276,207.080472 L51.3493455,207.080472 Z M51.0258319,214.433053 C51.0258319,215.903569 51.0258319,217.374085 51.0258319,218.844601 C51.0675245,219.007713 51.0177315,219.180618 50.8956736,219.296573 C50.7736157,219.412528 50.5983862,219.453394 50.4376255,219.403397 L45.0555364,219.403397 C44.895443,219.44755 44.7239199,219.404605 44.6035191,219.290225 C44.4831182,219.175844 44.4314397,219.006747 44.4673299,218.844601 C44.4673299,215.903569 44.4673299,212.962537 44.4673299,210.050915 C44.424511,209.878565 44.4746533,209.696361 44.5996252,209.570187 C44.7245972,209.444014 44.9063134,209.39213 45.0790646,209.433298 L50.4023331,209.433298 C50.5728218,209.394894 50.7509527,209.44885 50.8714771,209.575401 C50.9920016,209.701951 51.0372088,209.882501 50.9905396,210.050915 C51.0111268,211.521431 51.0258319,212.991947 51.0258319,214.433053 L51.0258319,214.433053 Z M218.308808,209.050964 C217.764717,208.639219 217.223567,208.168654 216.708887,207.698089 C216.231939,207.266887 215.607634,207.035273 214.964855,207.051062 C212.738493,207.080472 210.512132,207.051062 208.282829,207.051062 C208.085604,207.05655 207.889029,207.076208 207.694623,207.109882 L207.694623,221.726813 C207.774294,221.752891 207.855923,221.772561 207.938728,221.785633 C210.415078,221.785633 212.891427,221.815044 215.364835,221.785633 C215.769127,221.740813 216.154025,221.588479 216.479486,221.344479 C217.158865,220.815093 217.779422,220.256297 218.420567,219.697501 C218.843824,219.354729 219.076835,218.829632 219.047007,218.285805 C219.029361,215.727107 219.029361,213.168409 219.047007,210.609711 C219.067963,210.001226 218.792842,209.420293 218.308808,209.050964 L218.308808,209.050964 Z M216.441253,212.227279 C216.34714,213.991898 216.441253,215.727107 216.394196,217.491726 C216.34242,217.861633 216.185177,218.208792 215.941277,218.491677 C215.361016,219.20535 214.449059,219.562543 213.538454,219.432808 C212.500269,219.344577 211.44738,219.403397 210.332729,219.403397 L210.332729,209.492118 C210.490478,209.458414 210.650899,209.43873 210.812117,209.433298 C211.965002,209.433298 213.120827,209.403887 214.273712,209.462708 C214.631993,209.495871 214.976514,209.617111 215.276604,209.815632 C216.143169,210.285295 216.61222,211.256564 216.441253,212.227279 L216.441253,212.227279 Z M38.6293808,219.168115 C38.3911348,219.061828 38.181488,218.900561 38.0176461,218.69755 C37.4970834,217.932881 37.0147541,217.138802 36.4853682,216.285903 C37.2135895,216.22637 37.8862027,215.872968 38.3483645,215.307056 C38.8105264,214.741143 39.0224139,214.011483 38.9352481,213.28605 C38.9352481,212.050817 38.9352481,210.786173 38.9352481,209.550939 C38.8924769,208.204652 37.811068,207.123243 36.464781,207.080472 C34.0747021,207.051062 31.6836428,207.051062 29.2916032,207.080472 C29.1945492,207.080472 29.1004361,207.109882 28.9975,207.109882 L28.9975,221.756223 L31.6179598,221.756223 L31.6179598,216.315313 C32.0767608,216.315313 32.4738002,216.344724 32.8590754,216.315313 C33.3115821,216.224295 33.7637937,216.472763 33.9296112,216.90352 C34.6001665,218.079933 35.3001322,219.197525 36.0206851,220.344528 C36.6852247,221.506452 38.0569369,222.064848 39.3440516,221.697403 C39.3440516,221.285658 39.3234644,220.844503 39.3440516,220.432759 C39.4089305,219.900101 39.1191551,219.387329 38.6293808,219.168115 L38.6293808,219.168115 Z M36.3000832,213.521333 C36.2574911,213.695895 36.1323113,213.838644 35.9648055,213.903667 C34.5295818,213.933077 33.094358,213.903667 31.6238418,213.903667 L31.6238418,209.433298 C33.0708297,209.433298 34.4884073,209.433298 35.9030438,209.462708 C36.0954397,209.523751 36.2430985,209.679181 36.2942011,209.874453 C36.3265525,211.080276 36.3236115,212.286099 36.3000832,213.521333 L36.3000832,213.521333 Z M267.171119,219.197525 C266.928961,219.092247 266.715266,218.930967 266.54762,218.72696 C266.015293,217.932881 265.524141,217.138802 264.991814,216.285903 C265.162394,216.256493 265.285917,216.227082 265.388853,216.197672 C266.617735,215.917996 267.478999,214.810656 267.447576,213.550743 C267.447576,212.197868 267.482868,210.844993 267.426989,209.462708 C267.407808,208.996907 267.252375,208.546971 266.979952,208.168654 C266.429928,207.397887 265.514946,206.973354 264.571246,207.051062 C263.877163,207.109882 263.171315,207.051062 262.471349,207.051062 L257.471594,207.051062 L257.471594,221.756223 L260.118523,221.756223 L260.118523,216.315313 C260.577325,216.315313 260.971423,216.344724 261.356698,216.315313 C261.789404,216.235563 262.219184,216.468207 262.389,216.87411 C263.053674,218.021112 263.744816,219.168115 264.488897,220.285707 C265.113879,221.496614 266.51324,222.089982 267.818146,221.697403 C267.818146,221.256248 267.794618,220.844503 267.818146,220.403348 C267.885771,219.899802 267.617488,219.410932 267.156414,219.197525 L267.171119,219.197525 Z M264.374197,213.933077 C262.991912,213.903667 261.612568,213.903667 260.156757,213.903667 L260.156757,209.433298 L263.165433,209.433298 C264.832998,209.433298 264.832998,209.433298 264.832998,211.080276 C264.832998,211.874355 264.832998,212.639023 264.832998,213.433102 C264.871895,213.569069 264.836101,213.715469 264.738856,213.81815 C264.641611,213.920831 264.497372,213.964528 264.359492,213.933077 L264.374197,213.933077 Z M90.8532914,219.344577 C89.8760811,218.489123 89.0766379,217.449847 88.5004655,216.285903 C89.21397,216.227476 89.8749685,215.887762 90.337814,215.341616 C90.8006596,214.795469 91.0273702,214.087707 90.9679916,213.374281 L90.9679916,209.727401 C90.9963977,209.009776 90.7239708,208.312866 90.2164151,207.804752 C89.7088594,207.296638 89.0122491,207.023445 88.2945933,207.051062 L81.5596293,207.051062 C81.3831674,207.080472 81.2067054,207.080472 81.0390666,207.109882 L81.0390666,221.756223 L83.6418802,221.756223 L83.6418802,216.315313 C84.1006812,216.315313 84.4947795,216.344724 84.8771137,216.315313 C85.3320226,216.227981 85.7852417,216.474296 85.9594136,216.90352 C86.5917356,217.991702 87.271114,219.079884 87.9534335,220.168066 C88.599521,221.423437 90.0246664,222.069016 91.3944413,221.726813 C91.4309598,221.227125 91.4230862,220.725183 91.3709131,220.226886 C91.3191535,219.876129 91.1323406,219.559497 90.8503504,219.344577 L90.8532914,219.344577 Z M88.3328267,213.433102 C88.3328267,213.697795 88.3328267,213.933077 87.9651977,213.903667 L83.6712905,213.903667 L83.6712905,209.433298 L87.8534384,209.433298 C87.9966282,209.408402 88.1426385,209.458145 88.240847,209.565282 C88.3390554,209.672418 88.3759385,209.822195 88.3387088,209.962684 C88.3210626,211.109686 88.3269446,212.256689 88.3298857,213.433102 L88.3328267,213.433102 Z M127.872065,213.138999 C126.469193,213.138999 125.06632,213.109588 123.663448,213.138999 C123.24288,213.138999 123.075241,213.021357 123.089946,212.580202 C123.119357,211.727303 123.116416,210.844993 123.089946,209.992094 C123.047878,209.839713 123.088856,209.676432 123.197893,209.561973 C123.30693,209.447515 123.468031,209.398667 123.622273,209.433298 L126.351551,209.433298 C127.527964,209.433298 127.527964,209.433298 127.730895,210.5803 L130.283711,210.5803 L130.283711,209.550939 C130.247132,208.224526 129.197212,207.148998 127.872065,207.080472 C126.201559,207.051062 124.530072,207.051062 122.857605,207.080472 C121.55833,207.16683 120.534013,208.22034 120.484192,209.521529 C120.484192,210.697942 120.484192,211.874355 120.484192,213.050768 C120.512819,214.400614 121.610423,215.482575 122.960541,215.491824 C124.384001,215.521235 125.80746,215.521235 127.23092,215.491824 C127.403817,215.448229 127.586872,215.499443 127.712045,215.62643 C127.837217,215.753417 127.885792,215.937189 127.839714,216.109441 C127.807362,217.021161 127.810303,217.962291 127.839714,218.874012 C127.839714,219.315166 127.692662,219.432808 127.301505,219.403397 L124.266359,219.403397 C123.054654,219.403397 123.054654,219.403397 122.848782,218.256395 L120.27832,218.256395 C120.27832,218.638729 120.27832,218.991653 120.27832,219.315166 C120.325419,220.644928 121.381688,221.717801 122.710553,221.785633 C124.508504,221.815044 126.303514,221.815044 128.095583,221.785633 C129.374151,221.702329 130.391794,220.682167 130.471938,219.403397 C130.471938,218.197574 130.471938,216.962341 130.471938,215.756517 C130.494895,215.058094 130.228547,214.381166 129.735815,213.88565 C129.243082,213.390133 128.567666,213.119976 127.869124,213.138999 L127.872065,213.138999 Z M232.605166,207.080472 L229.99353,207.080472 L229.99353,207.874551 C229.99353,211.521431 229.99353,215.1389 229.99353,218.785781 C229.99353,219.256346 229.858242,219.432808 229.36709,219.403397 C227.820107,219.403397 226.270183,219.373987 224.7232,219.403397 C224.170286,219.432808 223.98206,219.285756 223.987942,218.69755 C224.017352,215.05067 223.987942,211.4332 223.987942,207.78632 L223.987942,207.109882 L221.367482,207.109882 L221.367482,219.256346 C221.362758,219.927571 221.62691,220.572758 222.100996,221.04795 C222.575083,221.523142 223.219653,221.788794 223.890888,221.785633 C225.933925,221.815044 227.976962,221.815044 230.019999,221.785633 C230.70562,221.799144 231.367595,221.534967 231.855533,221.053122 C232.343471,220.571276 232.615944,219.912672 232.611048,219.226935 C232.611048,215.403593 232.611048,211.550841 232.611048,207.727499 C232.631636,207.521627 232.613989,207.315755 232.602225,207.080472 L232.605166,207.080472 Z M110.999363,213.138999 C109.617077,213.138999 108.234792,213.109588 106.852507,213.138999 C106.671689,213.191513 106.476668,213.139255 106.346336,213.003364 C106.216003,212.867473 106.171932,212.670439 106.231949,212.491971 C106.267242,211.668482 106.258419,210.815583 106.231949,209.962684 C106.193948,209.811533 106.239087,209.651573 106.350497,209.542585 C106.461907,209.433597 106.62282,209.391984 106.773099,209.433298 L109.617077,209.433298 C110.699377,209.433298 110.696436,209.433298 110.808196,210.462659 C110.82594,210.495459 110.848772,210.525238 110.875839,210.55089 L113.411009,210.55089 L113.411009,209.727401 C113.4312,209.01672 113.159797,208.328712 112.659853,207.823212 C112.159908,207.317713 111.47494,207.038725 110.76408,207.051062 C109.220038,207.051062 107.673055,207.051062 106.126072,207.080472 C105.439504,207.077304 104.780269,207.349247 104.295616,207.835557 C103.810964,208.321867 103.541274,208.982027 103.546787,209.66858 C103.546787,210.786173 103.546787,211.903765 103.546787,212.991947 C103.581375,214.368273 104.696519,215.471734 106.073134,215.491824 C107.496593,215.521235 108.920053,215.521235 110.343512,215.491824 C110.775844,215.491824 110.978775,215.609466 110.961129,216.080031 C110.928778,217.021161 110.93466,217.932881 110.961129,218.874012 C110.961129,219.285756 110.834665,219.432808 110.431743,219.403397 L107.028969,219.403397 C106.029018,219.403397 106.029018,219.403397 105.987844,218.403446 C105.978849,218.350329 105.957713,218.300005 105.926082,218.256395 C105.861379,218.256395 105.784912,218.226984 105.705505,218.226984 L103.379148,218.226984 C103.379148,218.668139 103.379148,219.021063 103.379148,219.403397 C103.468472,220.653691 104.443757,221.658755 105.690799,221.785633 C107.547571,221.815044 109.403362,221.815044 111.258173,221.785633 C112.507457,221.663395 113.485206,220.655792 113.569825,219.403397 C113.569825,218.197574 113.569825,216.962341 113.569825,215.756517 C113.594151,215.062829 113.332326,214.389627 112.845702,213.894661 C112.359077,213.399694 111.690423,213.126465 110.996422,213.138999 L110.999363,213.138999 Z M294.899171,213.138999 C293.516886,213.138999 292.134601,213.109588 290.752316,213.138999 C290.594685,213.180826 290.426698,213.135832 290.311076,213.020816 C290.195454,212.905799 290.149579,212.738051 290.190579,212.580202 C290.217048,211.697893 290.217048,210.844993 290.190579,209.962684 C290.15113,209.811887 290.195325,209.651507 290.30645,209.542204 C290.417575,209.432901 290.578664,209.391362 290.728788,209.433298 C291.696387,209.462708 292.666928,209.433298 293.634528,209.433298 C294.663889,209.433298 294.663889,209.433298 294.766825,210.462659 C294.788079,210.503193 294.811646,210.542472 294.83741,210.5803 L297.378462,210.5803 L297.378462,209.786222 C297.417964,209.056131 297.147865,208.343213 296.63451,207.82258 C296.121154,207.301947 295.412109,207.02184 294.681535,207.051062 C293.155139,207.051062 291.628744,207.051062 290.102348,207.080472 C289.415488,207.078113 288.756122,207.350124 288.270712,207.836087 C287.785302,208.322049 287.51404,208.981724 287.51718,209.66858 C287.51718,210.756762 287.51718,211.874355 287.51718,212.991947 C287.551716,214.367152 288.665118,215.470172 290.040586,215.491824 C291.440517,215.521235 292.84241,215.521235 294.246262,215.491824 C294.444361,215.434381 294.657995,215.490735 294.801985,215.638417 C294.945975,215.786099 294.996903,216.001091 294.934464,216.197672 C294.893289,217.079982 294.902113,217.932881 294.934464,218.815191 C294.934464,219.256346 294.819764,219.432808 294.346257,219.403397 C293.316896,219.373987 292.287535,219.403397 291.255232,219.403397 C290.07882,219.403397 290.07882,219.403397 289.90824,218.256395 L287.352483,218.256395 C287.352483,218.668139 287.352483,219.021063 287.352483,219.403397 C287.43979,220.676696 288.450104,221.692023 289.722955,221.785633 C291.536591,221.815044 293.351208,221.815044 295.166805,221.785633 C296.446526,221.704874 297.465564,220.683314 297.54316,219.403397 C297.54316,218.197574 297.54316,216.962341 297.54316,215.756517 C297.570437,215.049122 297.299314,214.362801 296.795949,213.865029 C296.292585,213.367258 295.603277,213.103819 294.89623,213.138999 L294.899171,213.138999 Z M242.578207,213.138999 C241.174354,213.109588 239.771482,213.109588 238.36959,213.138999 C237.951963,213.138999 237.781383,213.021357 237.781383,212.580202 C237.804911,211.727303 237.807852,210.874404 237.781383,210.050915 C237.736729,209.878298 237.786245,209.694922 237.911716,209.568244 C238.037188,209.441566 238.220082,209.390297 238.393118,209.433298 C239.343071,209.462708 240.293025,209.433298 241.240037,209.433298 C242.266457,209.433298 242.266457,209.433298 242.354688,210.462659 C242.377091,210.505908 242.405839,210.545561 242.439978,210.5803 L244.969266,210.5803 C244.969266,210.197966 244.969266,209.874453 244.969266,209.521529 C244.91764,208.244228 243.930214,207.201526 242.657615,207.080472 C240.926327,207.051062 239.194059,207.051062 237.460811,207.080472 C236.177461,207.203069 235.186339,208.262284 235.149159,209.550939 C235.149159,210.668531 235.149159,211.815534 235.149159,212.962537 C235.144074,213.644659 235.416654,214.299509 235.904241,214.776557 C236.391829,215.253605 237.052479,215.511812 237.734327,215.491824 C239.137199,215.491824 240.540071,215.521235 241.942944,215.491824 C242.113753,215.451545 242.293109,215.504892 242.414139,215.631974 C242.535169,215.759055 242.579709,215.940799 242.53115,216.109441 C242.50174,217.021161 242.504681,217.932881 242.53115,218.844601 C242.577703,219.002625 242.534183,219.173455 242.417695,219.289942 C242.301208,219.40643 242.130378,219.44995 241.972354,219.403397 L238.875447,219.403397 C237.684329,219.403397 237.684329,219.403397 237.534336,218.256395 L234.972697,218.256395 L234.972697,219.315166 C235.000788,220.667761 236.090569,221.757543 237.443164,221.785633 C239.19602,221.815044 240.949855,221.815044 242.704671,221.785633 C244.030686,221.726789 245.09498,220.670133 245.163374,219.344577 C245.163374,218.138753 245.163374,216.962341 245.163374,215.756517 C245.176898,215.063362 244.909532,214.394197 244.422081,213.901208 C243.93463,213.408218 243.26853,213.133308 242.575266,213.138999 L242.578207,213.138999 Z M71.7042301,215.491824 L77.5127689,215.491824 L77.5127689,213.109588 L71.698348,213.109588 L71.698348,209.433298 L78.6097739,209.433298 L78.6097739,207.080472 L69.060242,207.080472 L69.060242,221.756223 L78.6244791,221.756223 L78.6244791,219.373987 L71.7042301,219.373987 L71.7042301,215.491824 L71.7042301,215.491824 Z M171.452282,221.756223 L180.987108,221.756223 L180.987108,219.373987 L174.072741,219.373987 L174.072741,215.491824 L179.898926,215.491824 L179.898926,213.109588 L174.090388,213.109588 L174.090388,209.433298 L181.007696,209.433298 L181.007696,207.109882 L171.452282,207.109882 L171.452282,221.756223 L171.452282,221.756223 Z M152.041468,207.433396 C151.938682,207.232759 151.739666,207.09934 151.515024,207.080472 C150.835645,207.051062 150.153326,207.109882 149.473947,207.051062 C149.305934,207.02142 149.133072,207.060929 148.994618,207.160616 C148.856164,207.260303 148.763868,207.411708 148.738689,207.580447 C147.415225,211.580251 146.074114,215.550645 144.735944,219.521039 C144.491839,220.256297 144.247733,220.991555 143.980099,221.785633 C144.794765,221.785633 145.515318,221.785633 146.23293,221.815044 C146.530527,221.851533 146.802041,221.641667 146.841723,221.344479 C147.038772,220.697452 147.282878,220.050424 147.468163,219.403397 C147.527715,219.09633 147.817171,218.889576 148.126954,218.932832 C149.695505,218.962242 151.264056,218.962242 152.832606,218.932832 C152.973614,218.907343 153.118944,218.939778 153.235733,219.022804 C153.352522,219.105829 153.430907,219.232433 153.453164,219.373987 C153.664918,220.050424 153.911965,220.726862 154.176658,221.403299 C154.234504,221.585239 154.377052,221.727788 154.558992,221.785633 C155.335425,221.815044 156.114798,221.785633 156.929464,221.785633 C156.91981,221.666746 156.90113,221.548764 156.873585,221.43271 C155.269742,216.756468 153.659036,212.09003 152.041468,207.433396 L152.041468,207.433396 Z M148.403411,216.609417 C149.068085,214.580104 149.715112,212.609613 150.362139,210.639121 L150.503309,210.639121 C151.170923,212.609613 151.838537,214.580104 152.523798,216.609417 L148.406353,216.609417 L148.403411,216.609417 Z M278.514681,215.491824 L284.358512,215.491824 L284.358512,213.109588 L278.514681,213.109588 L278.514681,209.433298 L285.443753,209.433298 L285.443753,207.109882 L275.905985,207.109882 L275.905985,221.756223 L285.461399,221.756223 L285.461399,219.403397 L278.508798,219.403397 L278.508798,215.491824 L278.514681,215.491824 Z M140.247929,207.080472 C138.639184,207.051062 137.03044,207.051062 135.424636,207.051062 L132.851233,207.051062 L132.851233,221.756223 L135.468751,221.756223 L135.468751,216.315313 L140.283221,216.315313 C141.669358,216.317003 142.797987,215.201498 142.812509,213.815436 C142.812509,212.40374 142.812509,211.021455 142.812509,209.60976 C142.79797,208.205156 141.652599,207.075547 140.247929,207.080472 L140.247929,207.080472 Z M140.139111,213.491922 C140.099277,213.683211 139.961933,213.839538 139.777364,213.903667 C138.362727,213.933077 136.94515,213.903667 135.49228,213.903667 L135.49228,209.433298 L139.683251,209.433298 C139.815678,209.403592 139.954134,209.443064 140.050988,209.538136 C140.147843,209.633208 140.18988,209.770907 140.162639,209.903863 C140.150875,211.109686 140.174403,212.286099 140.139111,213.491922 L140.139111,213.491922 Z M166.937797,218.256395 C166.924038,218.393298 166.924038,218.531236 166.937797,218.668139 C167.03191,219.256346 166.784863,219.432808 166.190775,219.432808 C164.746728,219.373987 163.302681,219.403397 161.858634,219.403397 C161.70033,219.448539 161.529984,219.404827 161.412976,219.289037 C161.295968,219.173248 161.250474,219.00337 161.293956,218.844601 C161.293956,215.903569 161.311602,212.991947 161.293956,210.050915 C161.293956,209.521529 161.499828,209.433298 161.955688,209.433298 C163.235037,209.462708 164.514386,209.433298 165.77903,209.433298 C166.864271,209.433298 166.864271,209.433298 166.955443,210.462659 C166.969124,210.521724 167.003567,210.57391 167.052497,210.609711 L169.552375,210.609711 C169.552375,210.168556 169.552375,209.845042 169.552375,209.521529 C169.501659,208.241659 168.510356,207.19752 167.234841,207.080472 C165.15259,207.051062 163.069359,207.051062 160.985148,207.080472 C159.709123,207.198469 158.71661,208.241235 158.661732,209.521529 C158.661732,212.786075 158.661732,216.050621 158.661732,219.315166 C158.699114,220.67061 159.79417,221.7579 161.149845,221.785633 C163.130141,221.815044 165.110436,221.815044 167.090731,221.785633 C167.55089,221.726365 167.994725,221.57642 168.396549,221.344479 C169.434293,220.694199 169.890454,219.416946 169.499436,218.256395 L166.937797,218.256395 L166.937797,218.256395 Z M91.9414733,209.462708 L96.191265,209.462708 L96.191265,221.756223 L98.8381941,221.756223 L98.8381941,209.403887 L103.017401,209.403887 L103.017401,207.109882 L91.9414733,207.109882 L91.9414733,209.462708 L91.9414733,209.462708 Z M245.519239,209.433298 L249.748444,209.433298 L249.748444,221.756223 L252.368903,221.756223 L252.368903,209.433298 L256.598108,209.433298 L256.598108,207.109882 L245.519239,207.109882 L245.519239,209.433298 L245.519239,209.433298 Z M188.242635,221.756223 L190.760159,221.756223 L190.760159,207.109882 L188.230871,207.109882 L188.230871,221.756223 L188.242635,221.756223 Z M270.444488,221.756223 L272.988481,221.756223 L272.988481,207.109882 L270.444488,207.109882 L270.444488,221.756223 L270.444488,221.756223 Z M144.683006,163.612015 C143.050733,163.612015 141.930199,163.523784 140.839076,163.523784 C136.971619,163.464963 133.104161,163.523784 129.233763,163.464963 C126.438091,163.778045 123.909968,161.785953 123.560512,158.994594 L118.85486,137.936803 L144.785942,124.96685 C150.159345,122.200923 154.089902,117.264974 155.582471,111.408691 C158.591147,100.291589 161.464536,89.1450767 163.967354,77.9103333 C166.026077,68.7637228 161.243959,63.2345821 151.862065,63.2051717 L62.2929267,63.2051717 L29.268075,194.728136 L60.8253516,194.728136 L68.9543649,162.906167 L89.6651143,152.553733 L96.8765255,182.699314 C99.0850266,190.123904 106.002959,195.141093 113.746287,194.934009 L136.621636,194.934009 C139.36856,184.316882 142.003725,173.993859 144.683006,163.612015 L144.683006,163.612015 Z M78.803882,124.408054 L86.5799714,93.9683696 L124.369296,93.99778 C127.160335,94.2624729 128.486741,96.4682471 126.778001,98.6740213 C125.232169,100.596331 123.305686,102.178371 121.119455,103.320852 L112.13166,107.791221 L112.13166,107.761811 C106.076075,110.820485 99.9910787,113.820338 93.9237291,116.849601 C90.1180333,118.761272 86.3152785,120.643533 82.5007596,122.555204 L82.5007596,122.555204 L78.803882,124.408054 Z M172.328709,120.114147 L221.682172,153.436043 C223.859607,154.437361 225.380195,156.475149 225.72021,158.847542 C225.716917,159.32857 225.633423,159.80568 225.473163,160.259238 C225.377019,160.540261 225.264076,160.815253 225.134944,161.082727 C223.879123,163.523784 221.367482,163.376732 218.88231,163.376732 L181.487084,163.376732 L173.743346,194.639905 L216.29126,194.639905 C223.904612,194.639905 231.518945,194.649709 239.134258,194.669316 C242.260329,194.671286 245.259688,193.433892 247.475026,191.228308 C250.046905,188.779249 251.866149,185.646844 252.718886,182.199339 L259.189157,156.729999 C259.620184,154.89072 259.773835,152.997339 259.645017,151.112627 C259.383426,144.813853 255.945028,139.077653 250.513112,135.87808 L203.353659,104.820779 C201.649099,103.702788 200.229121,102.202244 199.206803,100.438641 C198.768836,99.6299059 198.630316,98.692556 198.815646,97.7917116 C199.234864,95.7710271 200.886932,94.2369635 202.933091,93.9683696 L251.951277,94.0860109 L260.068526,63.2051717 L186.542718,63.2051717 C179.925184,63.0391586 174.086909,67.5084759 172.519876,73.9399397 C170.02294,83.1453708 167.667173,92.3802122 165.284937,101.615054 C164.958024,102.774776 164.771406,103.969527 164.729082,105.173703 C164.383968,111.153891 167.276835,116.858768 172.305181,120.114147 L172.328709,120.114147 Z M295.175629,194.345802 C306.448605,150.642062 317.689231,107.085374 328.9975,63.2051717 L296.884368,63.2051717 C285.640802,106.938322 274.458997,150.4656 263.177197,194.345802 L295.166805,194.345802 L295.175629,194.345802 Z M162.829175,194.404623 L168.593598,194.404623 C171.161119,184.258061 173.687466,174.287962 176.29028,163.994349 L170.522915,163.994349 C167.917161,174.199731 165.390814,184.16983 162.820352,194.404623 L162.829175,194.404623 Z M262.915445,93.7919077 C265.515318,83.527705 268.071075,73.4399642 270.712122,63.0287098 L264.938875,63.0287098 C262.336062,73.2929125 259.786187,83.3806533 257.148081,93.7919077 L262.915445,93.7919077 Z M273.24141,93.733087 C275.8354,83.527705 278.391157,73.4399642 281.029263,63.0581201 L275.258958,63.0581201 C272.664967,73.2635022 270.123915,83.2924224 267.471104,93.733087 L273.24141,93.733087 Z M284.093819,93.7036767 C286.687809,83.439474 289.234743,73.3811435 291.861085,62.9992995 L286.108426,62.9992995 C283.511494,73.2046816 280.952796,83.2924224 278.311749,93.7036767 L284.093819,93.7036767 Z M141.644919,194.434033 L147.412284,194.434033 C149.970982,184.316882 152.503211,174.317372 155.114847,164.023759 L149.350424,164.023759 C146.788785,174.14091 144.256556,184.14042 141.644919,194.434033 Z M159.679329,163.964938 C157.108867,174.1115 154.567815,184.16983 151.95912,194.463443 L157.720602,194.463443 C160.282241,184.346292 162.823293,174.287962 165.437871,163.964938 L159.679329,163.964938 Z"
     transform="translate(-28 -63)"
     id="path13095" />
</svg>
