<?xml version="1.0" encoding="UTF-8" standalone="no"?>
<svg
   xmlns:dc="http://purl.org/dc/elements/1.1/"
   xmlns:cc="http://creativecommons.org/ns#"
   xmlns:rdf="http://www.w3.org/1999/02/22-rdf-syntax-ns#"
   xmlns:svg="http://www.w3.org/2000/svg"
   xmlns="http://www.w3.org/2000/svg"
   xmlns:sodipodi="http://sodipodi.sourceforge.net/DTD/sodipodi-0.dtd"
   xmlns:inkscape="http://www.inkscape.org/namespaces/inkscape"
   viewBox="0 0 301 367"
   id="svg11209"
   version="1.1"
   inkscape:version="0.91 r13725"
   sodipodi:docname="star_citizen.svg">
  <metadata
     id="metadata11217">
    <rdf:RDF>
      <cc:Work
         rdf:about="">
        <dc:format>image/svg+xml</dc:format>
        <dc:type
           rdf:resource="http://purl.org/dc/dcmitype/StillImage" />
        <dc:title></dc:title>
      </cc:Work>
    </rdf:RDF>
  </metadata>
  <defs
     id="defs11215" />
  <sodipodi:namedview
     pagecolor="#ffffff"
     bordercolor="#666666"
     borderopacity="1"
     objecttolerance="10"
     gridtolerance="10"
     guidetolerance="10"
     inkscape:pageopacity="0"
     inkscape:pageshadow="2"
     inkscape:window-width="731"
     inkscape:window-height="480"
     id="namedview11213"
     showgrid="false"
     inkscape:zoom="0.64305177"
     inkscape:cx="150.5"
     inkscape:cy="183.5"
     inkscape:window-x="0"
     inkscape:window-y="99"
     inkscape:window-maximized="0"
     inkscape:current-layer="svg11209" />
  <path
     fill-rule="evenodd"
     d="M236.337411,58.1990852 C236.063199,60.609645 236.293343,63.0508888 237.013221,65.3677326 C240.591229,75.2522553 244.137657,85.1999379 247.658821,95.1160405 C247.964741,96.1510418 248.638682,97.0383974 249.553617,97.6108561 C252.133699,99.1898533 254.625357,100.89517 257.161226,102.537327 C257.634925,102.853127 258.143362,103.105766 258.980231,103.579466 C255.683285,91.2632872 251.849479,79.5155478 247.658821,67.5467488 C248.640957,67.7993884 249.294662,67.9572881 249.951525,68.1151878 C251.161037,68.3678274 252.361075,68.7152068 253.586376,68.8731065 C254.358388,69.0644661 255.175413,68.9142811 255.828907,68.4608862 C256.4824,68.0074913 256.909128,67.2947574 257.000168,66.5046106 C257.231116,65.5214723 257.344544,64.514395 257.338074,63.5045159 C257.363338,55.6095297 257.363338,47.6934903 257.338074,39.7563975 C257.331383,38.6002756 257.212934,37.4475084 256.984378,36.3141836 C256.670094,34.2371673 255.011257,32.6235127 252.926356,32.3666905 C251.703351,32.1562683 250.465986,32.0401333 249.225186,32.0193111 L224.535985,32.0193111 C223.863332,32.0193111 223.187522,32.1140509 222.271703,32.1456309 C222.508553,50.0830394 222.745402,67.8625483 222.979094,85.5788972 C226.667632,86.9052549 230.078266,88.1052928 233.45732,89.3369106 C233.45732,80.9998052 233.438372,72.7890196 233.45732,64.578234 C233.476268,56.3674484 233.037306,48.061923 233.308894,39.5669179 C237.887986,39.8827173 242.1797,40.1353569 246.572471,40.4195764 L246.572471,60.3465214 C243.164995,59.6201827 239.861732,58.9254239 236.337411,58.1990852 Z M140.539649,49.167221 C140.539649,44.7776087 140.605966,40.5143162 140.511227,36.2510237 C140.456573,34.2998254 138.976524,32.6852272 137.037433,32.4614303 C135.669787,32.1829779 134.277206,32.0454129 132.881512,32.0508911 C126.053928,32.0508911 119.226344,32.1140509 112.39876,32.1772108 C110.65942,31.9200033 108.900378,32.4957086 107.649675,33.731508 C106.398971,34.9673075 105.80222,36.7193213 106.038559,38.4616198 C105.965925,43.8933703 106.038559,49.3251208 106.016453,54.7252913 C105.87288,57.0368541 107.072486,59.2246601 109.098656,60.3465214 C113.109309,62.6834373 117.072592,65.146673 121.099035,67.452009 C123.777014,68.9678463 126.559207,70.3257839 129.158237,71.6837216 L129.158237,82.8946019 C124.942314,84.7578186 120.877975,86.5578755 116.567313,88.4526722 L116.567313,75.8522743 C112.849344,76.8395839 109.298081,78.3720438 106.029085,80.3997863 C106.029085,86.2104961 106.029085,92.0843658 106.029085,97.9898154 C106.040606,98.4514099 106.11933,98.908862 106.262777,99.3477531 C106.331161,100.026201 106.726122,100.628664 107.321007,100.96195 C107.915891,101.295237 108.635935,101.317459 109.250239,101.02149 C110.344297,100.643134 111.388716,100.134178 112.360864,99.5056528 C119.039707,95.2550814 126.096087,91.6291061 133.440477,88.6737318 C134.866957,88.0739293 136.219167,87.3109269 137.470078,86.3999758 C139.089295,85.2601488 140.036147,83.3901158 139.996474,81.4103445 C140.040685,76.9891523 140.040685,72.56796 140.091213,68.1467678 C140.178764,66.5516634 139.271256,65.0684774 137.811141,64.4203343 C136.636367,63.8203154 135.458435,63.2202964 134.337347,62.5571176 C128.994021,59.3991231 123.665431,56.230602 118.351579,53.0515542 C117.619852,52.6791934 117.065645,52.0318613 116.810478,51.2514974 C116.662052,47.6829636 116.737844,44.1460098 116.737844,40.4827363 C121.074452,39.9866096 125.434516,39.723066 129.799309,39.6932377 L129.799309,50.4619988 C133.434161,50.0198796 136.870059,49.6093403 140.539649,49.167221 L140.539649,49.167221 Z M294.943472,380.69348 L294.311873,380.78822 C292.732876,377.788125 291.153878,374.78803 289.603303,371.756355 C287.746402,368.187822 285.92424,364.587708 284.023127,361.019174 C283.727891,360.342446 283.189096,359.801396 282.513606,359.503337 C280.539859,359.313857 278.537691,359.440177 276.47552,359.440177 L276.47552,398.062449 L284.016811,398.062449 L284.016811,376.082808 C284.155763,376.051228 284.294715,376.051228 284.433666,376.019648 C288.19168,383.388302 291.959167,390.778009 295.736128,398.188769 C298.04778,398.188769 300.252061,398.315089 302.443709,398.094029 L302.443709,359.566497 L294.959262,359.566497 L294.959262,380.69348 L294.943472,380.69348 Z M180.175637,32.1140509 L145.971399,32.1140509 C145.796197,34.4160581 145.796197,36.7280516 145.971399,39.0300588 C150.026264,39.1247987 153.781119,38.6826794 157.655979,38.9984789 C157.501237,53.3673537 157.340179,67.5151689 157.191753,81.8208838 C160.981347,81.2840247 164.496195,80.7787456 168.080518,80.2418866 C168.131046,79.5471278 168.206838,78.9155289 168.213154,78.3155099 C168.269998,70.6415834 168.322631,62.9781835 168.371054,55.3253102 C168.399476,50.4304188 168.415266,45.5671074 168.45632,40.6722159 C168.45632,40.0090371 168.563691,39.3458583 168.642641,38.4300399 L180.175637,38.4300399 L180.175637,32.1140509 L180.175637,32.1140509 Z M80.3072202,384.988352 L80.3072202,392.914918 L70.6405991,392.914918 C70.1571176,383.455517 70.2256572,373.97597 70.8458688,364.524548 L80.3388001,364.524548 L80.3388001,371.977415 L87.9179868,371.977415 C87.9179868,368.661521 87.9179868,365.503526 87.9179868,362.345532 C87.9099642,361.126557 87.0568097,360.07652 85.8652904,359.819136 C85.0471621,359.56581 84.1953431,359.438037 83.3388949,359.440177 C77.9071444,359.408597 72.4732886,359.408597 67.0373274,359.440177 C65.7875541,359.174002 64.4881625,359.561111 63.587817,360.467842 C62.6874716,361.374573 62.3095542,362.676668 62.5845553,363.924529 C62.714033,372.609014 62.6256092,381.293499 62.6256092,389.977983 C62.6256092,391.556981 62.5908712,393.104398 62.6256092,394.651815 C62.5437282,395.437398 62.7793145,396.223112 63.279922,396.834043 C63.7805295,397.444974 64.5046054,397.830412 65.2909565,397.90455 C66.1199062,398.0929 66.9672737,398.188229 67.8173521,398.188769 C72.7059275,398.220349 77.5966083,398.220349 82.4893944,398.188769 C83.4188694,398.178554 84.3448268,398.07273 85.2526395,397.87297 C86.0424202,397.810109 86.7721693,397.427098 87.2725372,396.812821 C87.7729051,396.198543 88.0003886,395.406405 87.9021969,394.620235 C87.9432508,391.9991 87.9274608,389.346385 87.9021969,386.725249 C87.8668286,386.142379 87.7951079,385.562285 87.6874532,384.988352 L80.2945882,384.988352 L80.3072202,384.988352 Z M240.891239,359.566497 L240.891239,398.062449 L262.176121,398.062449 L262.176121,392.914918 C259.798151,392.914918 257.565449,392.978078 255.335905,392.914918 C253.13132,393.083854 250.914627,392.999085 248.729381,392.662279 L248.729381,380.882959 L260.063423,380.882959 L260.063423,375.798588 L248.880965,375.798588 C248.423134,372.08318 248.466683,368.323096 249.010442,364.619288 L261.939272,364.619288 L261.939272,359.566497 L240.891239,359.566497 L240.891239,359.566497 Z M202.430024,398.030869 L225.799183,398.030869 L225.799183,392.693859 L211.74295,392.693859 C212.099803,391.90436 212.317705,391.430661 212.54508,390.956962 C216.757845,382.146157 220.95482,373.335353 225.20548,364.556128 C225.985595,363.049181 226.1996,361.312488 225.808657,359.661237 C218.406283,359.201125 210.980939,359.253884 203.58585,359.819136 L203.58585,364.808768 L216.489415,364.808768 C215.958872,366.008806 215.570439,366.924624 215.147268,367.808862 C211.092403,376.335447 207.053328,384.893612 202.951093,393.420197 C202.240032,394.847821 202.05551,396.480561 202.430024,398.030869 L202.430024,398.030869 Z M155.315905,364.619288 L163.608798,364.619288 L163.608798,359.566497 L139.169079,359.566497 L139.169079,364.745608 L147.487236,364.745608 L147.487236,381.482978 C147.487236,384.262014 147.468288,387.041049 147.487236,389.851664 C147.509342,392.599119 147.392497,395.346574 147.578818,398.188769 C150.332589,398.157189 152.770561,398.315089 155.312747,398.062449 L155.312747,364.619288 L155.315905,364.619288 Z M110.829237,359.566497 L110.829237,398.062449 L118.389475,398.062449 L118.389475,359.566497 L110.845027,359.566497 L110.829237,359.566497 Z M187.344285,359.566497 L179.765098,359.566497 L179.765098,398.062449 L187.344285,398.062449 L187.344285,359.566497 Z M110.374485,349.524074 C113.146359,350.247678 116.052007,350.291013 118.844227,349.650394 C126.031994,348.250715 132.703259,344.921087 138.142731,340.018511 C139.183907,339.100146 140.135573,338.085036 140.984926,336.986836 C141.486426,336.165261 141.909363,335.298241 142.248124,334.397281 C140.814932,333.394036 139.026281,333.038826 137.318494,333.418303 C132.151826,334.024404 127.15072,335.622099 122.589608,338.123714 C118.421804,340.227199 114.786894,343.250892 111.959799,346.966099 C111.366096,347.755598 110.917661,348.608256 110.374485,349.524074 L110.374485,349.524074 Z M222.994884,334.365701 C223.29543,336.226488 224.31645,337.894155 225.837079,339.007953 C231.555898,344.549919 238.787299,348.274953 246.619841,349.713554 C249.386519,350.314681 252.257442,350.238846 254.988526,349.492494 C253.61164,347.724018 252.537922,346.11344 251.24946,344.723923 C247.15183,340.441939 242.050068,337.250624 236.406886,335.439419 C233.291586,334.24346 230.008944,333.540265 226.677106,333.355143 C225.359384,333.102349 223.998975,333.475703 222.994884,334.365701 Z M237.584818,329.09185 C237.852078,330.743268 238.883457,332.17151 240.367012,332.944603 C243.130944,334.787927 246.021354,336.434163 249.016758,337.871075 C254.033113,340.207053 259.541445,341.29073 265.068844,341.029069 C267.080945,340.976124 269.068081,340.569932 270.939556,339.829031 C269.918997,338.627063 268.837547,337.478153 267.699454,336.386817 C260.432784,330.420929 251.234046,327.32061 241.838637,327.670753 C240.279462,327.483832 238.718555,328.005293 237.584818,329.09185 L237.584818,329.09185 Z M94.2497657,339.955351 C95.1032281,340.224129 95.9708947,340.445526 96.8487952,340.61853 C107.214245,342.013367 117.683994,338.936393 125.646547,332.155105 C126.132357,331.773106 126.552622,331.314441 126.890797,330.797167 C127.901355,329.37607 127.623451,328.618151 125.90866,328.081292 C125.538002,327.970989 125.155035,327.907338 124.768624,327.891812 C122.302906,327.791574 119.833458,327.833751 117.372601,328.018132 C110.778727,328.669996 104.477908,331.068231 99.1193932,334.96572 C97.2062101,336.3189 95.5559785,338.009799 94.2497657,339.955351 L94.2497657,339.955351 Z M284.56946,328.144452 C282.990463,326.944414 281.727265,325.807536 280.299852,324.923298 C273.621223,321.039979 265.912238,319.298458 258.212838,319.933666 C256.512723,320.048532 254.823678,320.291333 253.160047,320.660005 C251.992398,320.733345 250.950229,321.417718 250.418908,322.460062 C254.268503,329.755029 275.790235,333.481463 284.56946,328.144452 L284.56946,328.144452 Z M114.741992,322.365322 C113.912738,321.389695 112.756332,320.749742 111.489258,320.565265 C107.617634,319.740185 103.632518,319.590609 99.7099382,320.123146 C94.2833063,320.542862 89.0379728,322.265307 84.418929,325.144357 C82.9359003,325.983451 81.6543377,327.13675 80.6640736,328.523411 C82.0093792,329.02869 83.1273092,329.50239 84.2894512,329.849769 C87.9628099,330.846614 91.7939913,331.125401 95.5729654,330.670847 C100.833538,330.182957 105.945566,328.6589 110.614493,326.186495 C112.44171,325.509044 113.925924,324.134981 114.741992,322.365322 L114.741992,322.365322 Z M262.832984,314.280856 C263.596444,315.633515 264.880165,316.614848 266.385728,316.996731 C269.462608,318.007708 272.610308,318.788828 275.802867,319.333647 C281.559835,320.326195 287.477559,319.759175 292.941303,317.69149 C294.330821,317.154631 295.625599,316.365133 297.362496,315.480894 C295.966662,314.565076 295.04137,313.901897 294.046601,313.365038 C290.253559,311.403877 286.086157,310.273479 281.822005,310.049144 C276.798152,309.612712 271.737154,310.137889 266.909955,311.596561 C265.246149,311.908802 263.777328,312.87588 262.832984,314.280856 L262.832984,314.280856 Z M67.8078781,315.575634 C69.582671,316.459872 70.9185026,317.217791 72.3332842,317.75465 C77.7384515,319.749358 83.5693928,320.304375 89.2538185,319.365227 C92.5196143,318.77735 95.7386334,317.954125 98.8857016,316.901992 C100.372737,316.546054 101.61861,315.535887 102.27423,314.154536 C101.054802,312.633046 99.3050815,311.629015 97.3761803,311.343921 C91.0006989,309.593681 84.2936458,309.431046 77.8408265,310.870222 C74.1616223,311.59336 70.7163693,313.20917 67.8078781,315.575634 L67.8078781,315.575634 Z M274.609146,305.027932 C275.615323,305.662345 276.684151,306.191467 277.79872,306.60693 C279.731296,307.15763 281.708383,307.538042 283.707328,307.743808 C290.668707,308.584214 297.724099,307.377039 304.010074,304.270014 C305.693992,303.304036 307.325784,302.249907 308.898649,301.112019 C306.940693,300.290941 305.576439,299.596182 304.133236,299.154063 C298.307194,297.42939 292.118783,297.341983 286.246355,298.901423 C283.479515,299.614084 280.769783,300.532458 278.139783,301.648878 C276.497168,302.157612 275.189426,303.409208 274.609146,305.027932 L274.609146,305.027932 Z M56.6285777,301.112019 C58.6644874,303.129783 61.1364868,304.653174 63.854069,305.564791 C70.9403777,308.202091 78.6437561,308.707086 86.0137162,307.017469 C86.9925743,306.79383 87.9413693,306.454596 88.8401212,306.006911 C90.5707022,305.122672 90.674916,304.270014 89.2032906,303.069976 C88.4282394,302.425059 87.5726184,301.883661 86.657947,301.459399 C79.6548439,298.232459 71.8549107,297.144863 64.2361864,298.332984 C61.525472,298.683148 58.9267279,299.632461 56.6285777,301.112019 L56.6285777,301.112019 Z M47.6030295,285.732586 C48.6912694,286.822351 49.8349263,287.855331 51.0294535,288.827421 C58.4679487,294.063342 67.5730697,296.378966 76.6092087,295.332889 C78.0126713,295.374517 79.3574572,294.769072 80.2566923,293.690732 C77.2281756,286.395765 57.1243828,281.342974 47.6030295,285.732586 L47.6030295,285.732586 Z M317.516816,285.511527 C316.253618,285.100987 315.517806,284.848348 314.772519,284.658868 C311.37534,283.844079 307.855617,283.672699 304.395349,284.153589 C298.690455,284.868727 293.207353,286.807741 288.321157,289.837979 C287.218161,290.556774 286.222916,291.428677 285.365275,292.427535 C284.515774,293.374933 284.698938,294.132852 285.905292,294.543391 C287.274048,295.068972 288.719406,295.367644 290.184374,295.427629 C293.279364,295.459973 296.372681,295.270005 299.440456,294.85919 C305.401511,294.076855 310.998288,291.549846 315.52728,287.595803 C316.136773,287.058944 316.654684,286.427345 317.516816,285.511527 L317.516816,285.511527 Z M71.5374696,281.437714 C71.0423851,279.584628 69.8704794,277.984526 68.2531553,276.953362 C62.7866047,272.421771 56.1542382,269.521478 49.1157089,268.584676 C46.3085635,268.074456 43.4192162,268.258767 40.6996536,269.121535 C41.6693318,270.857926 42.9396126,272.408353 44.451351,273.700627 C50.8273041,279.11409 58.8315762,282.23798 67.1889112,282.574592 C68.7349409,282.84986 70.3239833,282.434424 71.5374696,281.437714 L71.5374696,281.437714 Z M324.394928,269.532075 L324.129657,268.868896 C322.921138,268.659184 321.702656,268.511617 320.479015,268.426777 C311.551393,268.357924 302.912183,271.585118 296.216144,277.490221 C295.334841,278.250239 294.580114,279.145677 293.980284,280.142936 C293.623414,280.483693 293.509316,281.007068 293.691972,281.465443 C293.874628,281.923819 294.317412,282.225284 294.810836,282.227212 C295.860792,282.499476 296.944961,282.61651 298.028832,282.574592 C306.308109,282.223217 314.23146,279.110353 320.535859,273.732207 C321.900759,272.406415 323.189194,271.004108 324.394928,269.532075 L324.394928,269.532075 Z M35.6500205,251.405186 C36.527617,253.739673 37.9075819,255.852744 39.6922534,257.594856 C44.682289,262.756658 51.0659892,266.355581 58.0654652,267.953077 C59.2661767,268.252622 60.4976363,268.411588 61.7350547,268.426777 C62.5363354,268.377988 63.3270138,268.218577 64.0846026,267.953077 C64.0334849,266.224142 63.2755408,264.591823 61.9876943,263.437145 C57.0257897,257.817635 50.5015499,253.804578 43.2481552,251.910466 C40.7841106,251.181457 38.1888994,251.008874 35.6500205,251.405186 L35.6500205,251.405186 Z M300.511016,267.605698 C302.232661,268.552552 304.265566,268.757781 306.14172,268.174137 C311.005344,267.124621 315.622563,265.152092 319.743202,262.363427 C323.299497,260.117708 326.288897,257.080754 328.478215,253.489463 C328.855889,252.785963 329.18611,252.058001 329.466667,251.310447 C328.418213,251.278867 327.726612,251.184127 327.035012,251.215707 C326.106811,251.226049 325.180406,251.299909 324.262292,251.436766 C315.937331,252.915147 308.38755,257.247813 302.911092,263.689785 C301.996505,264.92009 301.195308,266.230755 300.517332,267.605698 L300.511016,267.605698 Z M33.0288851,233.751997 C33.4078982,235.831154 34.234376,237.803063 35.4510668,239.531127 C39.9362376,246.209403 46.4950102,251.225588 54.1148141,253.805262 C55.2218591,254.143763 56.3710998,254.324495 57.5286061,254.342121 C57.9327072,254.419744 58.345717,254.260296 58.592825,253.931267 C58.839933,253.602237 58.8779357,253.161151 58.6907481,252.794704 C58.4145838,251.755145 58.0014805,250.7569 57.4622882,249.826189 C52.9523946,242.59974 46.0170744,237.214931 37.8985125,234.636236 C36.2947506,234.258082 34.6725422,233.962943 33.0383591,233.751997 L33.0288851,233.751997 Z M332.157279,233.909897 C330.808815,234.036217 329.814047,234.067797 328.854016,234.257277 C322.165478,235.811583 316.143275,239.449675 311.655579,244.647078 C309.979067,246.556818 308.454376,248.594666 307.095435,250.742008 C306.319663,251.678119 306.126337,252.966958 306.593313,254.089482 C308.319399,254.556525 310.158258,254.353461 311.740844,253.521043 C317.055707,251.537051 321.864069,248.398349 325.819184,244.331279 C328.091921,242.106539 329.92126,239.470234 331.20988,236.562612 C331.554102,235.804694 331.775161,235.015195 332.166753,233.909897 L332.157279,233.909897 Z M32.6404518,216.446188 C32.5498995,216.850522 32.5033117,217.263459 32.5015,217.677806 C32.6592909,218.511512 32.8702547,219.334271 33.1330989,220.141041 C36.3516442,228.641685 42.769664,235.544854 51.0136635,239.373228 C51.5656355,239.656016 52.1595915,239.847958 52.7726665,239.941667 C53.4152677,239.999263 54.0612191,240.009818 54.7053591,239.973246 C55.1661367,238.406539 54.936356,236.717651 54.0737602,235.330995 C50.8337674,228.312931 45.4231489,222.522562 38.6406412,218.814684 C36.6977283,217.894916 34.6965183,217.103715 32.6499257,216.446188 L32.6404518,216.446188 Z M332.492026,216.730407 C331.814574,216.824939 331.143751,216.962057 330.483542,217.140947 C321.223042,220.48048 313.886271,227.703029 310.401855,236.909992 C310.149995,237.836047 310.027775,238.792556 310.038685,239.752187 C311.640564,240.260661 313.387275,240.004477 314.775677,239.057428 C321.759669,235.527248 327.414859,229.833286 330.897239,222.825337 C331.936324,220.961047 332.488116,218.864674 332.5015,216.730407 L332.492026,216.730407 Z M52.9589881,224.372754 C52.9631577,223.081871 52.8575103,221.792974 52.6431887,220.520001 C52.2239857,218.876751 51.642148,217.279342 50.9062917,215.751429 C48.1977119,209.435404 43.6310316,204.093291 37.8132467,200.435156 C36.6479467,199.771977 35.353169,199.298278 33.9194395,198.635099 C33.8461133,199.591894 33.8524511,200.553129 33.9383875,201.508874 C35.7766646,210.669786 41.2970608,218.673504 49.2072907,223.646415 C50.2503108,224.524209 51.6735992,224.799068 52.9684621,224.372754 L52.9589881,224.372754 Z M312.817721,224.814873 C313.774361,224.586494 314.697726,224.236252 315.565176,223.772735 C323.466701,218.960349 329.049484,211.118657 331.010927,202.077313 C331.175114,200.926462 331.262678,199.765977 331.27304,198.603519 C329.864575,199.203538 328.854016,199.582497 327.91925,200.056196 C324.986784,201.652143 322.379553,203.783774 320.232692,206.340605 C316.332217,210.682591 313.56774,215.922946 312.186122,221.593719 C311.818976,222.705492 312.062356,223.928387 312.827194,224.814873 L312.817721,224.814873 Z M36.9542722,181.266129 C36.7909593,182.353292 36.708625,183.451083 36.7079486,184.550444 C37.4586727,193.370729 41.584369,201.561034 48.2251544,207.414324 C49.2708293,208.216726 50.3994003,208.904879 51.5915765,209.46702 C52.6221189,207.863185 52.8837825,205.883341 52.3052833,204.066849 C51.0936265,197.151637 47.8873595,190.741298 43.0807815,185.624162 C41.3977988,183.727338 39.3062518,182.237232 36.9637462,181.266129 L36.9542722,181.266129 Z M327.93504,181.13981 C326.716963,181.825065 325.548761,182.595423 324.43914,183.445146 C317.764146,189.135971 313.501504,197.151003 312.514553,205.866906 C312.250203,207.004067 312.540788,208.199215 313.297736,209.088061 C320.797973,207.698543 329.725623,190.929592 327.944514,181.13981 L327.93504,181.13981 Z M52.6621367,191.687511 C53.0177851,190.749772 53.2677586,189.7753 53.4074233,188.782156 C53.8980056,179.601848 50.5243317,170.635159 44.1039717,164.05506 C43.389951,163.39194 42.6301561,162.779883 41.8302156,162.223423 C41.6047995,162.692056 41.416838,163.177799 41.2680926,163.6761 C40.6873383,166.572669 40.6766117,169.554653 41.2365127,172.455325 C42.2736437,178.440111 44.783893,184.072707 48.5409539,188.845316 C49.4748821,190.314207 50.9659657,191.340182 52.6716106,191.687511 L52.6621367,191.687511 Z M323.36858,162.191843 C322.621614,162.678723 321.909353,163.216876 321.236934,163.80242 C314.779744,170.306425 311.280837,179.179307 311.560839,188.340037 C311.457213,189.556977 311.893723,190.757957 312.754561,191.624351 C314.334283,191.252028 315.699091,190.262543 316.544154,188.876896 C320.457591,183.93663 323.007679,178.056836 323.940177,171.823726 C324.530986,168.614665 324.338146,165.310392 323.378054,162.191843 L323.36858,162.191843 Z M55.8264471,175.771219 C56.8981993,174.838182 57.5275325,173.49698 57.5601861,172.076366 C58.005447,169.007172 57.9926759,165.888885 57.5222901,162.823442 C56.9909755,157.565977 55.0993411,152.537581 52.0336958,148.233507 C51.319989,147.286109 50.4168026,146.46503 49.4630883,145.422892 C49.1125509,146.243971 48.8757013,146.74925 48.7020116,147.254529 C47.6786832,150.507913 47.3452557,153.93899 47.7230333,157.328531 C48.1378446,162.661498 49.750569,167.832147 52.441077,172.455325 C53.0724059,173.977835 54.2989793,175.175884 55.8359211,175.771219 L55.8264471,175.771219 Z M315.435698,145.612372 C314.680937,146.401871 313.894597,147.128209 313.250366,147.949288 C310.369637,151.806525 308.498183,156.322331 307.805983,161.086545 C307.016681,165.045056 306.987744,169.117596 307.720717,173.086924 C307.769446,174.17984 308.362242,175.175737 309.299715,175.739639 C316.013611,172.329005 320.01479,153.033659 315.44833,145.612372 L315.435698,145.612372 Z M61.0624019,161.054965 C62.404664,160.22274 63.3247892,158.854053 63.5887975,157.296951 C64.9045628,152.342247 65.1510807,147.164294 64.3119782,142.106998 C63.818905,138.417296 62.4974577,134.886959 60.446593,131.780356 C60.0431343,131.254264 59.6019573,130.758204 59.1265513,130.296099 C58.5759874,131.24233 58.0875719,132.22338 57.6643999,133.233034 C54.7795558,141.514387 55.3044106,150.602782 59.1233933,158.496989 C59.6732674,159.421127 60.3270076,160.27936 61.0718759,161.054965 L61.0624019,161.054965 Z M303.754276,160.833905 C304.926161,160.357227 305.812821,159.366871 306.15751,158.14961 C309.643799,150.553253 310.187317,141.933477 307.682822,133.959372 C307.153904,132.639455 306.545399,131.35284 305.860659,130.106619 C305.162032,131.007743 304.512643,131.945985 303.915334,132.917234 C299.839719,140.769113 299.09095,149.929583 301.837374,158.33909 C302.032657,159.435779 302.752128,160.367553 303.76375,160.833905 L303.754276,160.833905 Z M280.637757,101.747829 C280.19276,102.8499 279.816242,103.978399 279.510353,105.126883 C277.915247,113.515969 279.660379,122.196301 284.373664,129.317121 C285.060843,130.209953 285.85406,131.015896 286.735844,131.717196 C287.924518,130.772988 288.633484,129.350432 288.671695,127.832863 C289.495387,121.584863 288.600101,115.230519 286.082139,109.453335 C284.910982,106.488133 283.04749,103.846111 280.647231,101.747829 L280.637757,101.747829 Z M78.3808436,131.748776 C79.2713247,130.980805 80.0808345,130.123677 80.7967093,129.190801 C85.4669235,122.02886 87.1521809,113.324908 85.4926471,104.937403 C85.1749305,103.79741 84.7835695,102.679235 84.3210311,101.589929 C83.0988873,103.074187 82.0630651,104.116325 81.2735665,105.316363 C77.0423979,111.988301 75.3074028,119.941761 76.3755171,127.769703 C76.354917,129.345988 77.1075786,130.832436 78.3903175,131.748776 L78.3808436,131.748776 Z M294.195027,115.485105 C293.612031,116.530107 293.084956,117.60534 292.61603,118.706259 C289.888119,126.804129 290.403111,135.643883 294.052917,143.370196 C294.415245,144.532379 295.303079,145.456476 296.449835,145.865012 C297.779013,144.794205 298.624963,143.236475 298.799383,141.538559 C299.967202,136.705236 300.102787,131.679988 299.19729,126.790725 C298.601644,122.635531 296.874359,118.724285 294.204501,115.485105 L294.195027,115.485105 Z M68.7142225,145.865012 C74.8344158,141.538559 76.0912976,122.337953 70.6090192,115.643004 C64.8408591,123.455744 63.3495491,133.630766 66.6331042,142.770177 C66.8371963,144.058787 67.600018,145.191461 68.7173805,145.865012 L68.7142225,145.865012 Z M99.6878322,91.1369675 C99.0468552,91.5756274 98.4311218,92.0500795 97.8435634,92.558065 C91.5699117,98.8270694 88.1654178,107.409731 88.4358979,116.274603 C88.2909243,117.435812 88.7281192,118.593788 89.6043559,119.369438 C96.5993136,116.716723 102.807931,99.5372327 99.6909902,91.1369675 L99.6878322,91.1369675 Z M265.270956,91.3580271 C264.253655,94.4485907 264.111563,97.7604111 264.860417,100.92675 C265.825789,106.766466 268.279466,112.25896 271.984852,116.874622 C272.769962,118.114084 273.999131,119.006587 275.42075,119.369438 C279.576671,113.716628 272.906986,95.2423603 265.274114,91.3580271 L265.270956,91.3580271 Z M125.943398,100.89517 C125.883396,100.83201 125.826552,100.737271 125.76655,100.674111 C125.052844,101.05307 124.339137,101.432029 123.62543,101.842569 C123.682873,101.922435 123.733575,102.006939 123.777014,102.095208 C124.503353,101.684669 125.223375,101.30571 125.946556,100.89517 L125.943398,100.89517 Z M245.315589,104.116325 C246.101514,104.391958 246.868457,104.71899 247.611451,105.095303 C268.536892,117.143996 285.519072,135.002655 296.500363,156.507453 C302.587861,168.410319 306.436103,181.330565 307.853353,194.624446 C310.382648,216.20862 307.696883,238.084609 300.021527,258.415934 C290.212779,283.952895 271.771459,305.248961 247.898828,318.607309 C233.75853,326.760331 218.478576,332.753096 202.565818,336.386817 C201.817373,336.544717 201.06577,336.734197 199.761519,337.049996 C200.809973,337.397376 201.372096,337.618435 201.943693,337.744755 C205.313273,338.660573 208.695485,339.513232 212.049275,340.49221 C212.658212,340.472505 213.233547,340.771006 213.568073,341.280206 C213.902598,341.789406 213.948131,342.435967 213.688274,342.987026 C213.564284,343.82213 213.308459,344.632244 212.930356,345.387102 C212.772352,346.044287 212.305477,346.584048 211.677908,346.835075 C211.05034,347.086103 210.340009,347.017224 209.772361,346.650299 C201.669673,344.235983 193.438764,342.274987 185.117898,340.77643 C184.521037,340.65011 183.908387,340.61853 183.0052,340.52379 L183.0052,351.734671 L182.528343,351.734671 C182.348337,348.039817 182.168332,344.376543 181.972536,340.42905 C178.969283,340.997489 176.152352,341.408029 173.389107,342.102787 C167.363654,343.555465 161.363464,345.102882 155.360117,346.681879 C154.743999,347.039301 153.99419,347.080827 153.342372,346.793627 C152.690553,346.506428 152.215192,345.925075 152.06317,345.229202 C151.833335,344.731178 151.649409,344.213226 151.513679,343.681785 C150.938924,341.534348 151.21367,340.997489 153.424266,340.36589 C156.62963,339.450072 159.863417,338.628994 163.081413,337.776335 C163.665642,337.618435 164.234081,337.428956 165.292009,337.081576 C162.206649,336.292078 159.607619,335.660479 157.027538,334.96572 C138.399364,330.246697 120.834911,322.038308 105.26485,310.775482 C80.7042209,292.98725 64.0570631,266.314632 58.8675958,236.436293 C56.5010513,224.165121 55.7883801,211.632303 56.7485815,199.171958 C58.4477795,176.179444 67.0843662,154.243857 81.5167321,136.264708 C91.7468629,123.318917 104.396759,112.485955 118.762119,104.368964 C119.487468,103.911539 120.295294,103.600424 121.140089,103.453146 C120.644283,103.800525 120.170584,104.179485 119.652673,104.495284 C99.9575382,116.30779 83.959509,133.394232 73.4670042,153.823158 C67.3802057,165.626274 63.3831438,178.394221 61.6529469,191.561191 C59.0891479,209.904014 60.4639355,228.582608 65.6857058,246.352395 C73.2016824,272.346988 89.7832001,294.788055 112.424024,309.607024 C128.491533,320.301133 146.544163,327.657499 165.509911,331.239286 C170.824815,332.281425 176.199722,333.070923 181.704106,333.986742 L181.704106,325.049617 C144.41135,323.75484 113.980915,308.975426 91.1391412,279.637657 C74.7066625,258.828439 66.3177595,232.797392 67.5078686,206.309026 C68.1127728,176.429563 80.6668138,148.038799 102.362654,127.485484 C123.614183,106.552217 152.237291,94.8031221 182.067276,94.7686611 C182.244123,93.3791435 182.408339,92.0843658 182.572555,90.821168 L182.708349,90.821168 C182.790456,92.0527859 182.875722,93.3159836 182.967304,94.7055012 C219.243187,95.7792193 249.285188,109.769135 272.190122,137.906865 C309.264364,183.949326 305.307605,250.619704 263.047728,291.953835 C241.872553,312.982749 213.274272,324.836783 183.431529,324.954877 L183.431529,333.734102 C183.927335,333.702522 184.508405,333.702522 185.08316,333.639362 C202.071293,331.695104 218.647987,327.091355 234.205764,319.996826 C253.560088,311.283465 270.310635,297.678408 282.807299,280.521895 C292.979022,266.261021 299.757053,249.864128 302.623714,232.583539 C304.80438,220.263019 305.229666,207.695802 303.886912,195.256045 C301.331567,170.526358 291.024462,147.237275 274.438614,128.717102 C266.46659,119.684455 257.227029,111.8554 247.008274,105.474262 C246.415854,105.042773 245.856395,104.56776 245.334537,104.053165 L245.315589,104.116325 Z M184.884207,133.327773 C186.494784,133.485673 187.799036,133.643573 189.106445,133.769893 C199.214219,134.394365 209.065784,137.206635 217.979989,142.012258 C241.261394,153.817057 256.753909,176.852609 258.907597,202.866812 C259.049707,204.161589 259.223396,205.424787 259.378138,206.624825 C267.744,208.095455 276.220616,208.845598 284.714728,208.867001 C284.180586,153.117207 239.062221,108.083149 183.311526,107.653278 C183.832595,116.211443 184.353664,124.738029 184.881049,133.327773 L184.884207,133.327773 Z M105.845921,206.782725 C107.525407,166.647473 139.925451,134.62786 180.077739,133.422513 C180.845132,124.738029 181.432519,116.211443 181.618841,107.621699 C122.125383,107.779598 78.8640167,159.475968 80.6451256,209.40386 C89.0201269,208.519622 97.3919702,207.666963 105.842763,206.782725 L105.845921,206.782725 Z M180.235639,286.301025 C140.047013,285.202945 107.555831,253.202799 105.845921,213.035554 C97.3193364,212.088155 88.979073,210.982857 80.5598597,210.540738 C79.7829931,231.478241 88.4990578,262.268687 113.320894,285.195727 C136.276356,306.38587 165.465699,312.922919 181.429361,311.8492 C181.031454,303.417355 180.639862,294.98551 180.232481,286.301025 L180.235639,286.301025 Z M259.35919,213.003974 C257.515829,253.003128 225.30659,284.904749 185.291588,286.364185 C184.194075,294.907145 183.813787,303.527 184.15471,312.13342 C242.261808,311.533401 285.49791,262.047628 284.610514,210.540738 C276.181827,210.951277 267.847879,212.119735 259.356032,213.003974 L259.35919,213.003974 Z M179.632462,139.991142 C143.27314,141.400907 114.151954,170.608849 112.850353,206.972204 C113.529322,206.972204 114.214607,207.035364 114.884102,206.972204 C122.441182,206.182706 130.010895,205.456367 137.54587,204.477389 C143.481937,203.740847 149.272701,202.111895 154.722202,199.645657 C163.149791,196.098799 169.570355,188.996968 172.252229,180.255571 C172.665926,178.929214 173.152257,177.602856 173.537533,176.276498 C176.007953,167.306939 177.736986,158.149508 178.70717,148.896686 C179.045075,145.991331 179.310347,143.085976 179.629304,139.991142 L179.632462,139.991142 Z M252.231597,212.656594 C251.599998,212.656594 251.157879,212.625014 250.709443,212.656594 C243.761856,213.414513 236.814268,214.046112 229.895102,214.93035 C223.019188,215.626398 216.300863,217.428615 209.999737,220.267361 C201.982113,223.757245 195.832978,230.500271 193.094992,238.804789 C192.463394,240.699585 191.809689,242.625962 191.269672,244.552338 C188.464991,255.274415 186.607271,266.222071 185.717917,277.269161 C185.638967,278.09024 185.717917,278.942898 185.717917,279.763977 C222.027256,278.232889 251.021787,248.978163 252.228439,212.656594 L252.231597,212.656594 Z M112.774561,212.593435 C114.255661,251.942046 147.196701,279.511337 179.5093,279.700817 C179.542528,279.175009 179.542528,278.647628 179.5093,278.12182 C178.615588,271.300552 177.857669,264.416124 176.761845,257.626436 C175.687335,250.500329 173.842799,243.511845 171.260619,236.783672 C169.43733,232.139606 166.42626,228.055876 162.528764,224.941193 C157.27514,220.924019 151.191346,218.129725 144.720833,216.761987 C135.930762,214.858528 127.011032,213.612933 118.03578,213.035554 C116.343095,212.877654 114.653568,212.751334 112.771403,212.593435 L112.774561,212.593435 Z M185.553702,140.022722 C185.667389,141.601719 185.727391,142.991237 185.869501,144.349174 C186.24846,147.759808 186.61163,151.138862 187.094803,154.517916 C188.243173,163.51844 190.241637,172.389931 193.063412,181.01349 C195.519152,188.388519 200.713878,194.538532 207.574397,198.19298 C212.553672,200.912136 217.961235,202.759872 223.563323,203.65631 C230.371959,204.793188 237.231123,205.582687 244.090287,206.435345 C246.752476,206.782725 249.458878,206.909044 252.143173,207.130104 C251.877901,172.486905 222.031696,140.685901 185.550544,140.022722 L185.553702,140.022722 Z M287.803246,210.540738 C287.156823,267.870971 240.936242,314.240046 183.608377,315.070355 L183.608377,322.965341 C199.195314,322.970782 214.599574,319.609852 228.767698,313.112398 C271.586734,293.896737 298.101345,250.245322 295.415441,203.389186 C292.729536,156.53305 261.400586,116.197365 216.666263,102.000468 C205.767503,98.4618735 194.372251,96.6920271 182.913618,96.7581976 C183.077834,99.6319726 183.229418,102.126788 183.371527,104.716344 C240.780303,105.363144 287.162448,151.742484 287.81272,209.151221 C288.336947,209.37228 288.804331,209.59334 289.483299,209.909139 C288.782225,210.161779 288.308525,210.351258 287.800088,210.540738 L287.803246,210.540738 Z M181.865164,96.7266177 C180.69039,96.7266177 179.686148,96.6318778 178.70717,96.7266177 C172.92804,97.3582166 167.079434,97.6424361 161.388728,98.7477341 C137.645454,103.027318 115.989737,115.05457 99.807836,132.948814 C73.9122814,161.433924 64.438298,194.940245 71.831163,232.678279 C79.6914084,271.652336 107.54766,303.578963 145.096635,316.649352 C155.645604,320.390841 166.701292,322.509768 177.886091,322.933761 C179.086129,322.965341 180.289325,322.902181 181.388307,322.902181 L181.388307,315.101935 C180.440909,315.007195 179.695622,314.912455 178.937703,314.880875 C173.273337,314.71426 167.63314,314.069847 162.077171,312.954499 C140.105705,308.678721 120.105949,297.412657 105.062739,280.837695 C91.2518653,266.04777 82.160672,247.478384 78.9492826,227.499168 C78.112414,222.383217 77.8439845,217.172526 77.4176552,212.024996 C77.4974411,211.526695 77.354098,211.018516 77.0256774,210.635358 C76.6972568,210.252201 76.2169794,210.032823 75.7123382,210.035459 C76.7909283,209.785793 77.5108641,208.767016 77.3860753,207.666963 C77.4429192,207.066944 77.4650252,206.435345 77.5281851,205.803746 C78.0650441,200.719375 78.2671558,195.571844 79.2113961,190.582213 C88.2894252,142.357969 129.507785,106.819026 178.542954,104.937403 C179.60404,104.905823 180.65881,104.747924 181.865164,104.653184 L181.865164,96.7266177 L181.865164,96.7266177 Z M125.949714,100.89517 C125.226533,101.30571 124.506511,101.684669 123.78333,102.095208 C123.739891,102.006939 123.689189,101.922435 123.631746,101.842569 C124.345453,101.432029 125.05916,101.05307 125.772866,100.674111 C125.82971,100.737271 125.886554,100.83201 125.946556,100.89517 L125.949714,100.89517 Z M245.359801,104.053165 C244.342927,103.642626 243.32921,103.200506 242.312336,102.789967 C243.475063,102.685218 244.609827,103.186376 245.315589,104.116325 L245.359801,104.053165 Z M217.04838,83.8420002 C213.258787,83.0525016 209.882891,82.3261629 206.206985,81.5366643 C205.442751,78.4734097 204.650094,75.2522553 203.797436,71.8416213 C199.354137,71.462662 194.980315,71.1152826 190.429645,70.7363232 C189.643304,73.7995779 188.920124,76.6101929 188.174837,79.5155478 L177.263966,79.5155478 C181.96622,63.5992557 186.608472,47.8724433 191.266514,32.1140509 L202.600556,32.1140509 C207.609135,49.0724812 212.387181,66.1888112 217.045222,83.8420002 L217.04838,83.8420002 Z M197.203543,44.7460288 C198.855174,51.5041369 200.506805,58.2622451 202.227912,65.2729928 C198.567797,65.0203532 195.280325,64.7677137 191.838111,64.5150741 C193.464478,57.8201259 195.043475,51.3146573 196.622472,44.8091887 C196.813088,44.7725633 197.006358,44.7514409 197.200385,44.7460288 L197.203543,44.7460288 Z"
     transform="translate(-32 -32)"
     id="path11211" />
</svg>
