<?xml version="1.0" encoding="UTF-8" standalone="no"?>
<!-- Created with Inkscape (http://www.inkscape.org/) -->

<svg
   xmlns:dc="http://purl.org/dc/elements/1.1/"
   xmlns:cc="http://creativecommons.org/ns#"
   xmlns:rdf="http://www.w3.org/1999/02/22-rdf-syntax-ns#"
   xmlns:svg="http://www.w3.org/2000/svg"
   xmlns="http://www.w3.org/2000/svg"
   xmlns:sodipodi="http://sodipodi.sourceforge.net/DTD/sodipodi-0.dtd"
   xmlns:inkscape="http://www.inkscape.org/namespaces/inkscape"
   width="70.194618mm"
   height="13.017523mm"
   viewBox="0 0 248.72109 46.125081"
   id="svg5588"
   version="1.1"
   inkscape:version="0.91 r13725"
   sodipodi:docname="tumbril.svg">
  <defs
     id="defs5590" />
  <sodipodi:namedview
     id="base"
     pagecolor="#ffffff"
     bordercolor="#666666"
     borderopacity="1.0"
     inkscape:pageopacity="0.0"
     inkscape:pageshadow="2"
     inkscape:zoom="0.35"
     inkscape:cx="177.93197"
     inkscape:cy="-382.65175"
     inkscape:document-units="px"
     inkscape:current-layer="layer1"
     showgrid="false"
     fit-margin-top="0"
     fit-margin-left="0"
     fit-margin-right="0"
     fit-margin-bottom="0"
     inkscape:window-width="1680"
     inkscape:window-height="1005"
     inkscape:window-x="0"
     inkscape:window-y="100"
     inkscape:window-maximized="1" />
  <metadata
     id="metadata5593">
    <rdf:RDF>
      <cc:Work
         rdf:about="">
        <dc:format>image/svg+xml</dc:format>
        <dc:type
           rdf:resource="http://purl.org/dc/dcmitype/StillImage" />
        <dc:title></dc:title>
      </cc:Work>
    </rdf:RDF>
  </metadata>
  <g
     inkscape:label="Layer 1"
     inkscape:groupmode="layer"
     id="layer1"
     transform="translate(261.5034,-103.58538)">
    <g
       id="g6195"
       transform="translate(-283.63309,-48.359891)"
       style="fill-rule:evenodd">
      <path
         id="path6197"
         d="m 30.735937,166.35937 22.659376,0 0,5.27344 -8.357813,0 0,15.91406 -5.946094,0 0,-15.91406 -8.355469,0 0,-5.27344 0,0 z m 25.546875,2.34375 5.875782,0.0234 -8.634375,-16.78125 -0.124219,0.0703 0,-0.0703 -22.659375,0 0,0.0469 -8.610938,16.73437 5.878125,-0.0234 5.8125,-11.48437 16.640625,0 5.821875,11.48437 z m 0,12.63282 5.875782,-0.0234 -8.634375,16.75781 L 53.4,198 l 0,0.0703 -22.659375,0 0,-0.0469 -8.610938,-16.71094 5.878125,0.0234 5.8125,11.48437 16.640625,0 5.821875,-11.48437 z m 11.718751,-14.97657 5.946093,0 0,12.23438 c -0.09008,1.01869 0.174892,2.03718 0.75,2.88281 0.689811,0.6545 1.632993,0.97175 2.578125,0.86719 l 5.894531,0 c 0.945132,0.10456 1.888315,-0.21269 2.578125,-0.86719 0.575108,-0.84563 0.840083,-1.86412 0.75,-2.88281 l 0,-12.23438 5.946094,0 0,13.64063 c 0.177071,2.13845 -0.51294,4.25831 -1.914844,5.88281 -1.683453,1.40582 -3.854828,2.08833 -6.039843,1.89844 l -8.552344,0 c -2.185016,0.18989 -4.35639,-0.49262 -6.039844,-1.89844 -1.401903,-1.6245 -2.091914,-3.74436 -1.914844,-5.88281 l 0,-13.64063 0.01875,0 z m 38.390627,0 9.14062,0 6.72188,13.64063 6.72187,-13.64063 9.14063,0 0,21.1875 -5.8125,0 0,-15.21093 -0.0539,0 -7.79297,15.21093 -4.45312,0 -7.79532,-15.21093 -0.0539,0 0,15.21093 -5.78438,0 0,-21.1875 0.0211,0 z m 46.44375,0 17.10937,0 c 1.03819,-0.0133 2.07497,0.081 3.09375,0.28125 0.79678,0.14589 1.55149,0.46602 2.21016,0.9375 0.58644,0.43884 1.04058,1.03083 1.3125,1.71094 0.30604,0.84044 0.45153,1.73087 0.4289,2.625 0.0172,0.74814 -0.0551,1.49564 -0.21562,2.22656 -0.11091,0.49509 -0.31535,0.96443 -0.60234,1.38282 -0.23923,0.33073 -0.5501,0.60314 -0.90938,0.79687 -0.37086,0.1769 -0.75111,0.33338 -1.13906,0.46875 l 0,0.0703 c 1.09014,0.0689 2.09668,0.60765 2.75859,1.47657 0.60901,1.09246 0.88825,2.33804 0.80391,3.58593 0.0335,0.97251 -0.11676,1.94261 -0.44297,2.85938 -0.24802,0.67102 -0.67325,1.26229 -1.23047,1.71094 -0.54655,0.43042 -1.19038,0.72014 -1.875,0.84375 -0.78207,0.14592 -1.57633,0.21655 -2.37187,0.21093 l -18.95391,0 0,-21.1875 0.0234,0 z m 5.94609,8.39063 10.52578,0 c 0.45526,0.0284 0.90705,-0.0953 1.28438,-0.35156 0.34262,-0.33703 0.51485,-0.81068 0.46875,-1.28907 0.0507,-0.47895 -0.12227,-0.95452 -0.46875,-1.28906 -0.36939,-0.2748 -0.82516,-0.40787 -1.28438,-0.375 l -10.52578,0 0,3.30469 0,0 z m 0,7.71094 10.65938,0 c 0.53502,0.0262 1.06837,-0.0784 1.5539,-0.30469 0.4189,-0.26627 0.6477,-0.7494 0.58828,-1.24219 0.0777,-0.54799 -0.14739,-1.0951 -0.58828,-1.42969 -0.48328,-0.23496 -1.01688,-0.34764 -1.5539,-0.32812 l -10.65938,0 0,3.30469 0,0 z m 33.21094,-16.10157 17.94609,0 c 0.96578,-0.0329 1.929,0.11819 2.83828,0.44532 0.69839,0.26257 1.31353,0.70774 1.78125,1.28906 0.45542,0.57661 0.77218,1.25021 0.92578,1.96875 0.18548,0.84663 0.2751,1.71145 0.26719,2.57812 l 0,1.35938 c 0.005,0.63532 -0.0398,1.27006 -0.13359,1.89844 -0.0756,0.52545 -0.24385,1.03332 -0.49688,1.5 -0.25243,0.43862 -0.60003,0.81504 -1.01718,1.10156 -0.50981,0.33533 -1.07712,0.5737 -1.67344,0.70312 l 0,0.0703 c 0.43107,0.0931 0.85245,0.22654 1.25859,0.39843 0.40106,0.17094 0.75486,0.43628 1.03125,0.77344 0.32449,0.40052 0.56376,0.8631 0.70313,1.35938 0.18823,0.70276 0.27427,1.42896 0.25547,2.15625 l 0,3.58593 -5.9461,0 0,-2.53125 c 0.0798,-0.80951 -0.10349,-1.62318 -0.52265,-2.32031 -0.50944,-0.49179 -1.21084,-0.73217 -1.91485,-0.65625 l -9.34922,0 0,5.50781 -5.94609,0 0,-21.1875 -0.007,0 z m 5.94609,10.42969 9.82969,0 c 0.6216,0.0651 1.24125,-0.13972 1.70156,-0.5625 0.36837,-0.4727 0.54496,-1.06691 0.49453,-1.66406 l 0,-0.70313 c 0.1033,-0.68102 -0.1434,-1.36827 -0.65625,-1.82812 -0.64643,-0.30654 -1.36021,-0.44365 -2.07422,-0.39844 l -9.29531,0 0,5.15625 z m 32.09531,-10.42969 5.9461,0 0,21.1875 -5.9461,0 0,-21.1875 z m 21.51094,0 5.9461,0 0,15.75 13.35937,0 0,5.4375 -19.3125,0 0,-21.1875 0.007,0 z"
         inkscape:connector-curvature="0" />
    </g>
  </g>
</svg>
