# Blender v2.79 (sub 0) OBJ File: 'Idris_Bridge1.blend'
# www.blender.org
mtllib Idris_Bridge1_Table_Orbit.mtl
o Table_Orbit_Orbit
v 0.000000 0.739334 -2.274904
v -0.443812 0.739334 -2.231192
v -0.870568 0.739334 -2.101737
v -1.263869 0.739334 -1.891513
v -1.608600 0.739334 -1.608600
v -1.891513 0.739334 -1.263869
v -2.101737 0.739334 -0.870568
v -2.231192 0.739334 -0.443812
v -2.274904 0.739334 -0.000000
v -2.231192 0.739334 0.443812
v -2.101737 0.739334 0.870568
v -1.891513 0.739334 1.263869
v -1.608600 0.739334 1.608600
v -1.263869 0.739334 1.891514
v -0.870568 0.739334 2.101737
v -0.443811 0.739334 2.231193
v 0.000001 0.739334 2.274904
v 0.443813 0.739334 2.231192
v 0.870569 0.739334 2.101737
v 1.263870 0.739334 1.891513
v 1.608601 0.739334 1.608599
v 1.891514 0.739334 1.263868
v 2.101738 0.739334 0.870566
v 2.231193 0.739334 0.443810
v 2.274904 0.739334 -0.000002
v 2.231192 0.739334 -0.443814
v 2.101736 0.739334 -0.870570
v 1.891512 0.739334 -1.263871
v 1.608598 0.739334 -1.608602
v 1.263866 0.739334 -1.891515
v 0.870565 0.739334 -2.101738
v 0.443808 0.739334 -2.231193
vn 0.0000 1.0000 0.0000
usemtl Material
s off
f 2//1 3//1 4//1 5//1 6//1 7//1 8//1 9//1 10//1 11//1 12//1 13//1 14//1 15//1 16//1 17//1 18//1 19//1 20//1 21//1 22//1 23//1 24//1 25//1 26//1 27//1 28//1 29//1 30//1 31//1 32//1 1//1
